<svg width="89" height="16" viewBox="0 0 89 16" fill="none" xmlns="http://www.w3.org/2000/svg">
  <g clip-path="url(#clip0_3590_19429)">
    <path d="M7.93986 0.815918L9.63279 6.02624H15.1112L10.6791 9.24639L12.372 14.4567L7.93986 11.2366L3.5077 14.4567L5.20063 9.24639L0.76847 6.02624H6.24692L7.93986 0.815918Z" fill="#FDAE67"/>
    <path d="M26.1625 0.815918L27.8554 6.02624H33.3339L28.9017 9.24639L30.5947 14.4567L26.1625 11.2366L21.7304 14.4567L23.4233 9.24639L18.9911 6.02624H24.4696L26.1625 0.815918Z" fill="#FDAE67"/>
    <path d="M44.3871 0.815918L46.0801 6.02624H51.5585L47.1264 9.24639L48.8193 14.4567L44.3871 11.2366L39.955 14.4567L41.6479 9.24639L37.2157 6.02624H42.6942L44.3871 0.815918Z" fill="#FDAE67"/>
    <path d="M62.6078 0.815918L64.3008 6.02624H69.7792L65.3471 9.24639L67.04 14.4567L62.6078 11.2366L58.1757 14.4567L59.8686 9.24639L55.4364 6.02624H60.9149L62.6078 0.815918Z" fill="#FDAE67"/>
    <path d="M80.8305 0.815918L82.5234 6.02624H88.0019L83.5697 9.24639L85.2626 14.4567L80.8305 11.2366L76.3983 14.4567L78.0913 9.24639L73.6591 6.02624H79.1375L80.8305 0.815918Z" fill="#FDAE67"/>
  </g>
  <defs>
    <clipPath id="clip0_3590_19429">
      <rect width="88.6002" height="15.0809" fill="white" transform="translate(0.399414 0.815918)"/>
    </clipPath>
  </defs>
</svg>