<?xml version="1.0" encoding="UTF-8"?> <svg xmlns="http://www.w3.org/2000/svg" width="18" height="18" viewBox="0 0 18 18" fill="none"> <path d="M5.71301 6.534L8.11676 4.788C8.3866 4.59053 8.71481 4.48913 9.04901 4.5C9.45664 4.51016 9.85098 4.64708 10.1772 4.89171C10.5034 5.13634 10.7453 5.47654 10.8693 5.865C11.0088 6.30225 11.1363 6.59775 11.2518 6.7515C11.6007 7.2171 12.0534 7.59495 12.5739 7.85507C13.0944 8.11519 13.6684 8.25041 14.2503 8.25V9.75C13.4757 9.75084 12.7107 9.57996 12.0101 9.24965C11.3095 8.91934 10.6909 8.43782 10.1988 7.83975L9.67601 10.806L11.2218 12.1035L12.889 16.6845L11.479 17.1975L9.94901 12.9945L7.40651 10.8608C7.19786 10.6923 7.0382 10.4709 6.94415 10.2198C6.8501 9.96862 6.8251 9.69684 6.87176 9.43275L7.25351 7.269L6.74576 7.638L5.15051 9.834L3.93701 8.952L5.70026 6.525L5.71301 6.534ZM10.1253 4.125C9.72744 4.125 9.34591 3.96696 9.0646 3.68566C8.7833 3.40436 8.62526 3.02282 8.62526 2.625C8.62526 2.22718 8.7833 1.84564 9.0646 1.56434C9.34591 1.28304 9.72744 1.125 10.1253 1.125C10.5231 1.125 10.9046 1.28304 11.1859 1.56434C11.4672 1.84564 11.6253 2.22718 11.6253 2.625C11.6253 3.02282 11.4672 3.40436 11.1859 3.68566C10.9046 3.96696 10.5231 4.125 10.1253 4.125ZM7.89626 14.0107L5.48576 16.8832L4.33676 15.9195L6.56876 13.26L7.12826 11.625L8.47151 12.75L7.89626 14.0107Z" fill="#0F1B32"></path> </svg> 