<svg xmlns="http://www.w3.org/2000/svg" width="140" height="48" viewBox="0 0 140 48" fill="none">
    <g clip-path="url(#clip0_1530_1565)">
        <path fill-rule="evenodd" clip-rule="evenodd" d="M139.659 0.046875H130.313V9.68482H139.659V0.046875Z"
              fill="white"/>
        <path fill-rule="evenodd" clip-rule="evenodd"
              d="M0.956055 13.7579H16.1893V33.0946H13.5898V15.9928H3.55555V33.0946H0.956055V13.7579ZM116.53 29.2503L123.057 13.7579H126.351V33.0946H123.751V18.6806L117.656 33.0946H115.408L109.313 18.6806V33.0946H106.714V13.7579H110.009L116.53 29.2503ZM84.5024 23.4291C84.5024 17.7501 87.9915 13.4928 94.1674 13.4928C100.337 13.4928 103.832 17.757 103.832 23.4291C103.832 29.1016 100.343 33.3657 94.1674 33.3657C87.9973 33.3657 84.5024 29.1016 84.5024 23.4291ZM101.045 23.4291C101.045 19.1135 98.7027 15.7281 94.1674 15.7281C89.601 15.7281 87.2898 19.1135 87.2898 23.4291C87.2898 27.7451 89.601 31.1305 94.1674 31.1305C98.7027 31.1239 101.045 27.7451 101.045 23.4291ZM82.1537 33.0811V30.8592H79.8235V13.7579H67.7032C67.7032 16.116 67.7531 25.3932 64.5146 30.8592H62.5791V33.0811H82.1537ZM70.165 15.9928H77.2238V30.8526H67.3903C69.7954 26.485 70.165 19.4496 70.165 15.9928ZM49.895 13.7579H53.2523L44.8212 22.1304L53.3839 33.0946H50.2082L43.0425 23.9011L40.399 26.5301V33.1007H37.7994V13.7579H40.399V23.1835L49.895 13.7579ZM28.7296 13.4863C31.605 13.4863 33.7659 14.2678 35.1876 15.5086L33.9036 17.3177C32.8576 16.5357 31.21 15.7281 28.7234 15.7281C24.1572 15.7281 21.8458 19.1135 21.8458 23.4291C21.8458 27.7451 24.1572 31.1305 28.7234 31.1305C31.21 31.1305 32.8576 30.323 33.9036 29.5409L35.1876 31.35C33.7594 32.5903 31.605 33.3718 28.7296 33.3718C22.56 33.3718 19.0646 29.108 19.0646 23.436C19.0646 17.7636 22.5538 13.4863 28.7296 13.4863Z"
              fill="white"/>
        <path d="M5.12087 42.4526V46.1798H5.69489V47.62H5.12087V46.6756H1.53008V47.62H0.956055V46.1798H1.45215C1.80517 45.6653 2.04699 44.8915 2.17617 43.8584C2.23596 43.4026 2.26923 42.9342 2.27493 42.4526H5.12087ZM2.09557 46.1798H4.54559V42.9471H2.80428C2.79877 43.1347 2.78347 43.3469 2.76123 43.5832C2.73756 43.8197 2.70145 44.0934 2.65287 44.4043C2.60429 44.7153 2.53187 45.0304 2.43472 45.3486C2.33881 45.6683 2.22618 45.9448 2.09557 46.1798ZM8.27553 46.2643C8.77166 46.2643 9.22033 46.091 9.61929 45.7442L9.97801 46.108C9.57058 46.5424 9.0022 46.7602 8.27553 46.7602C7.87108 46.7602 7.51947 46.6642 7.21928 46.4735C6.9191 46.2844 6.69117 46.0236 6.53707 45.6925C6.3828 45.3629 6.30487 44.986 6.30487 44.5634C6.30487 44.1406 6.3828 43.7651 6.53707 43.4342C6.69117 43.1046 6.9191 42.8439 7.21928 42.6533C7.51947 42.4626 7.87108 42.3682 8.27553 42.3682C8.8757 42.3682 9.35379 42.5758 9.71092 42.9915C10.0668 43.407 10.2462 44.0145 10.2462 44.8112H6.91074C6.92195 45.2339 7.05114 45.5822 7.2958 45.8544C7.54172 46.1282 7.86823 46.2643 8.27553 46.2643ZM6.91074 44.3154H9.63874C9.60403 43.8855 9.46915 43.536 9.23425 43.2664C8.99952 42.9986 8.67978 42.8639 8.27553 42.8639C7.87108 42.8639 7.5515 42.9986 7.31662 43.2664C7.08175 43.536 6.94687 43.8855 6.91074 44.3154ZM13.409 46.6756H11.2231V42.4526H13.409C13.6453 42.4526 13.8537 42.4871 14.0343 42.5544C14.2151 42.6232 14.3553 42.715 14.4541 42.8281C14.5527 42.9414 14.6263 43.063 14.6736 43.1905C14.7208 43.3195 14.7445 43.4557 14.7445 43.5989C14.7445 43.7637 14.7028 43.9314 14.6167 44.1048C14.5318 44.2767 14.4096 44.4015 14.2525 44.4802C14.4402 44.5692 14.5861 44.7024 14.6904 44.8773C14.7944 45.0519 14.8473 45.247 14.8473 45.4618C14.8473 45.6195 14.8236 45.7657 14.7751 45.9004C14.7277 46.0365 14.6514 46.1655 14.5471 46.2858C14.4428 46.4047 14.2943 46.5007 14.0996 46.571C13.9051 46.6412 13.6758 46.6756 13.409 46.6756ZM13.409 46.1798C13.9843 46.1798 14.2721 45.9406 14.2721 45.4618C14.2721 44.9833 13.9843 44.7439 13.409 44.7439H11.7969V46.1798H13.409ZM11.7969 42.9471V44.2496H13.409C13.6897 44.2496 13.8858 44.1865 13.9996 44.0619C14.1135 43.9371 14.1706 43.7824 14.1706 43.5989C14.1706 43.4142 14.1135 43.2593 13.9996 43.1347C13.8858 43.01 13.6897 42.9471 13.409 42.9471H11.7969ZM17.6322 46.2643C18.1283 46.2643 18.577 46.091 18.976 45.7442L19.3345 46.108C18.9273 46.5424 18.3589 46.7602 17.6322 46.7602C17.2277 46.7602 16.8762 46.6642 16.5759 46.4735C16.2758 46.2844 16.0479 46.0236 15.8937 45.6925C15.7395 45.3629 15.6616 44.986 15.6616 44.5634C15.6616 44.1406 15.7395 43.7651 15.8937 43.4342C16.0479 43.1046 16.2758 42.8439 16.5759 42.6533C16.8762 42.4626 17.2277 42.3682 17.6322 42.3682C18.2324 42.3682 18.7105 42.5758 19.0676 42.9915C19.4233 43.407 19.6027 44.0145 19.6027 44.8112H16.2674C16.2786 45.2339 16.4078 45.5822 16.6525 45.8544C16.8984 46.1282 17.2249 46.2643 17.6322 46.2643ZM16.2674 44.3154H18.9953C18.9607 43.8855 18.8258 43.536 18.5909 43.2664C18.3562 42.9986 18.0365 42.8639 17.6322 42.8639C17.2277 42.8639 16.9082 42.9986 16.6733 43.2664C16.4385 43.536 16.3036 43.8855 16.2674 44.3154ZM20.8978 42.4526H24.1261V46.6756H23.5521V42.9471H21.4676V44.913C21.4676 45.1079 21.4564 45.2884 21.4342 45.4532C21.4134 45.6195 21.3828 45.7585 21.3426 45.8731C21.3036 45.9877 21.2577 46.0923 21.2063 46.1869C21.1549 46.28 21.1007 46.3532 21.0424 46.4062C20.984 46.4607 20.9228 46.5079 20.8604 46.5495C20.7977 46.591 20.7367 46.6183 20.6784 46.6312C20.6185 46.644 20.5616 46.6568 20.5059 46.6698C20.4519 46.6813 20.4031 46.6857 20.36 46.6798C20.317 46.6741 20.2808 46.6726 20.2545 46.6756C20.2322 46.6756 20.2182 46.6756 20.2141 46.6756V46.1798C20.2545 46.1798 20.2864 46.1798 20.3114 46.1783C20.3351 46.1769 20.3739 46.167 20.4267 46.1512C20.4796 46.1339 20.5253 46.111 20.5616 46.0838C20.5977 46.055 20.6394 46.0106 20.6852 45.9477C20.7324 45.8846 20.7686 45.8086 20.7951 45.7226C20.8228 45.6352 20.8465 45.5235 20.8673 45.3844C20.8867 45.2455 20.8978 45.0894 20.8978 44.913V42.4526ZM25.6866 42.9813C26.0772 42.5729 26.5969 42.3682 27.2486 42.3682C27.9003 42.3682 28.42 42.5729 28.8092 42.9813C29.1998 43.3898 29.3942 43.9171 29.3942 44.5634C29.3942 45.211 29.1998 45.7383 28.8092 46.1468C28.42 46.5552 27.9003 46.7602 27.2486 46.7602C26.5969 46.7602 26.0772 46.5552 25.6866 46.1468C25.2976 45.7383 25.103 45.211 25.103 44.5634C25.103 43.9171 25.2976 43.3898 25.6866 42.9813ZM28.3867 43.3397C28.1187 43.023 27.7392 42.8639 27.2486 42.8639C26.7567 42.8639 26.3773 43.023 26.1104 43.3397C25.8437 43.6576 25.7088 44.0661 25.7088 44.5634C25.7088 45.062 25.8437 45.4704 26.1104 45.7871C26.3773 46.1053 26.7567 46.2643 27.2486 46.2643C27.7392 46.2643 28.1187 46.1053 28.3867 45.7871C28.6535 45.4704 28.787 45.062 28.787 44.5634C28.787 44.0661 28.6535 43.6576 28.3867 43.3397ZM30.3711 42.4526H34.0358V46.6756H33.4617V42.9471H30.945V46.6756H30.3711V42.4526ZM35.8228 42.4526L37.2431 45.8861L38.6648 42.4526H39.3124V46.6756H38.7426V43.632L37.521 46.6756H36.9666L35.745 43.632V46.6756H35.1753V42.4526H35.8228ZM42.2599 46.2643C42.7559 46.2643 43.2049 46.091 43.6038 45.7442L43.9624 46.108C43.5551 46.5424 42.9866 46.7602 42.2599 46.7602C41.8554 46.7602 41.5038 46.6642 41.2036 46.4735C40.9034 46.2844 40.6755 46.0236 40.5214 45.6925C40.3671 45.3629 40.2892 44.986 40.2892 44.5634C40.2892 44.1406 40.3671 43.7651 40.5214 43.4342C40.6755 43.1046 40.9034 42.8439 41.2036 42.6533C41.5038 42.4626 41.8554 42.3682 42.2599 42.3682C42.8601 42.3682 43.3383 42.5758 43.6955 42.9915C44.0512 43.407 44.2306 44.0145 44.2306 44.8112H40.8951C40.9063 45.2339 41.0355 45.5822 41.2802 45.8544C41.526 46.1282 41.8526 46.2643 42.2599 46.2643ZM40.8951 44.3154H43.6232C43.5886 43.8855 43.4537 43.536 43.2188 43.2664C42.9839 42.9986 42.6641 42.8639 42.2599 42.8639C41.8554 42.8639 41.5359 42.9986 41.301 43.2664C41.0661 43.536 40.9313 43.8855 40.8951 44.3154ZM48.3105 44.2323V42.4526H48.8845V46.6756H48.3105V44.728H45.7813V46.6756H45.2075V42.4526H45.7813V44.2323H48.3105ZM49.7795 42.9471V42.4526H53.3828V42.9471H51.8682V46.6756H51.2941V42.9471H49.7795Z"
              fill="white"/>
    </g>
    <defs>
        <clipPath id="clip0_1530_1565">
            <rect width="140" height="48" fill="white"/>
        </clipPath>
    </defs>
</svg>