<svg xmlns="http://www.w3.org/2000/svg" width="160" height="38" viewBox="0 0 160 38" fill="none">
    <path d="M0 36.8603V32.7765H1.78949C2.45534 31.9431 2.82988 30.6791 2.91312 28.9845L3.95352 7.69047H16.7712V32.7765H18.7688V36.8603H0ZM7.40764 28.9011C7.29666 30.7624 6.99651 31.7361 6.33368 32.7765H12.1102V11.8576H8.23996L7.40764 28.9011Z"
          fill="#FF7060"/>
    <path d="M28.0609 7.69047C32.6109 7.69047 34.8859 10.0935 34.8859 14.8996V18.6917C34.8859 23.4977 32.6109 25.9008 28.0609 25.9008H25.8968V36.8603H21.3191V7.69047H28.0609ZM25.8968 11.8576V21.7337H28.0609C29.559 21.7337 30.3081 20.8169 30.3081 18.9834V14.6079C30.3081 12.7744 29.559 11.8576 28.0609 11.8576H25.8968Z"
          fill="#FF7060"/>
    <path d="M47.1606 29.4428C46.578 32.2765 45.7041 34.2211 44.5388 35.2768C43.1516 36.5547 40.946 37.0965 37.9219 36.902V32.8182C39.1704 32.9015 40.0859 32.7904 40.6685 32.4848C41.3621 32.1237 41.7922 31.4431 41.9586 30.4429L42.0002 30.1929L35.6746 7.69047H40.2108L42.7077 17.6499L44.1227 24.484L45.2047 17.6916L47.2855 7.69047H52.0713L47.1606 29.4428Z"
          fill="#FF7060"/>
    <path d="M67.1864 19.4834L72.5964 7.69047H77.1742L71.556 19.5251L77.1742 36.8603H72.4716L68.31 23.9422L67.1864 26.1508V36.8603H62.6502V26.1508L61.5266 23.9006L57.365 36.8603H52.6624L58.3222 19.6501L52.6624 7.69047H57.2401L62.6502 19.4834V7.69047H67.1864V19.4834Z"
          fill="#FF7060"/>
    <path d="M83.6877 19.9835H89.9717V24.1506H83.6877V32.6932H91.5948V36.8603H79.11V7.69047H91.5948V11.8576H83.6877V19.9835Z"
          fill="#FF7060"/>
    <path d="M107.707 25.9841V29.8596C107.707 34.749 105.432 37.1937 100.882 37.1937C96.3319 37.1937 94.0569 34.749 94.0569 29.8596V14.6912C94.0569 9.80182 96.3319 7.35711 100.882 7.35711C105.432 7.35711 107.707 9.80182 107.707 14.6912V17.5249H103.379V14.3995C103.379 12.4827 102.588 11.5242 101.007 11.5242C99.4254 11.5242 98.6347 12.4827 98.6347 14.3995V30.1512C98.6347 32.0403 99.4254 32.9849 101.007 32.9849C102.588 32.9849 103.379 32.0403 103.379 30.1512V25.9841H107.707Z"
          fill="#FF7060"/>
    <path d="M116.477 25.234L115.062 27.901V36.8603H110.485V7.69047H115.062V20.4002L121.055 7.69047H125.633L119.265 20.6919L125.633 36.8603H120.93L116.477 25.234Z"
          fill="#FF7060"/>
    <path d="M132.419 36.8603H127.716V7.69047H131.794V26.1508L133.459 19.7335L137.205 7.69047H142.24V36.8603H138.12V16.3164L136.247 23.4839L132.419 36.8603Z"
          fill="#FF7060"/>
    <path d="M154.007 23.4839L150.179 36.8603H145.476V7.69047H149.554V26.1508L151.219 19.7335L154.964 7.69047H160V36.8603H155.88V16.3164L154.007 23.4839Z"
          fill="#FF7060"/>
    <path fill-rule="evenodd" clip-rule="evenodd"
          d="M158.061 3.30533C154.701 5.55595 150.94 5.56604 147.623 3.29702L149.323 0.813C151.604 2.37365 154.029 2.38374 156.386 0.804688L158.061 3.30533Z"
          fill="#FF7060"/>
</svg>