<svg width="36" height="36" viewBox="0 0 36 36" fill="none" xmlns="http://www.w3.org/2000/svg">
<path fill-rule="evenodd" clip-rule="evenodd" d="M29.4493 12.4006C29.6163 11.8444 29.4493 11.4355 28.6553 11.4355H26.0297C25.362 11.4355 25.0544 11.7887 24.8875 12.1782C24.8875 12.1782 23.5522 15.4327 21.6607 17.5466C21.0487 18.1586 20.7706 18.3531 20.4367 18.3531C20.2698 18.3531 20.0283 18.1586 20.0283 17.6023V12.4006C20.0283 11.733 19.8345 11.4355 19.2781 11.4355H15.1521C14.735 11.4355 14.4841 11.7454 14.4841 12.0391C14.4841 12.672 15.4297 12.8179 15.5272 14.5981V18.4647C15.5272 19.3124 15.3742 19.4662 15.0404 19.4662C14.1503 19.4662 11.9853 16.1969 10.701 12.4563C10.4493 11.7292 10.1969 11.4355 9.52582 11.4355H6.90021C6.15003 11.4355 6 11.7887 6 12.1782C6 12.8736 6.89027 16.3229 10.1447 20.8847C12.3146 23.9998 15.3712 25.6889 18.1528 25.6889C19.822 25.6889 20.0283 25.3138 20.0283 24.6677V22.3131C20.0283 21.5629 20.1864 21.4132 20.7147 21.4132C21.1044 21.4132 21.7719 21.6079 23.3298 23.1099C25.11 24.8899 25.4033 25.6889 26.4048 25.6889H29.0304C29.7806 25.6889 30.1556 25.3138 29.9392 24.5735C29.7025 23.8357 28.8526 22.7656 27.7247 21.4967C27.1127 20.7733 26.1947 19.9945 25.9168 19.6051C25.5272 19.1044 25.6385 18.882 25.9168 18.4371C25.9168 18.4371 29.1155 13.9308 29.4493 12.4008V12.4006Z" fill="$c_body_hover"/>
</svg>
