<svg width="25" height="26" viewBox="0 0 25 26" fill="none" xmlns="http://www.w3.org/2000/svg">
<g clip-path="url(#clip0_2131_6331)">
<circle cx="12.5444" cy="12.8393" r="12.3452" fill="white"/>
<path d="M15.5538 9.91943C15.5538 8.32937 14.2126 7.43064 12.5949 7.43064C11.392 7.43064 10.438 7.90075 9.37332 8.85478L10.0923 9.67055C11.1016 8.84095 11.7377 8.53677 12.5673 8.53677C13.6043 8.53677 14.2956 9.07601 14.2956 9.94708C14.2956 10.6246 13.9361 11.0256 13.1203 11.7031L12.8714 11.9105C11.7653 12.906 11.6271 13.1549 11.5994 14.261V14.7587H12.5811L12.6226 14.3578C12.6502 14.0121 12.747 13.7356 12.8991 13.5282C13.0512 13.3208 13.3277 13.0304 13.7287 12.6847L14.0467 12.3944C14.7104 11.8275 15.0699 11.468 15.3464 10.9011C15.4847 10.6108 15.5538 10.2789 15.5538 9.91943ZM12.8161 15.9755H11.4058V17.4688H12.8161V15.9755Z" fill="#022360"/>
</g>
<defs>
<clipPath id="clip0_2131_6331">
<rect width="25" height="25" fill="white" transform="translate(0 0.40625)"/>
</clipPath>
</defs>
</svg>
