<svg width="19" height="19" viewBox="0 0 19 19" fill="none" xmlns="http://www.w3.org/2000/svg">
<path d="M2.61368 16.7213L4.14458 18.2522L6.44094 15.9559L8.73726 18.2522L12.1165 14.8736L8.28917 11.0464L11.0337 8.30128L14.8609 12.1286L18.2401 8.74999L15.9437 6.45365L18.2401 4.15728L16.7091 2.62638L15.6264 1.5436L14.0955 0.0126953L11.7991 2.30906L9.50274 0.0126953L6.12362 3.39183L9.95091 7.2191L7.2064 9.96363L3.37913 6.13632L0 9.51546L2.29636 11.8118L0 14.1082L1.53091 15.6391L2.61368 16.7213ZM14.0955 2.17805L14.5436 2.62638L15.6264 3.70896L16.0745 4.15728L14.8609 5.37088L12.8818 3.39183L14.0955 2.17805ZM8.28917 3.39183L9.50274 2.17805L10.7163 3.39183L14.8609 7.53623L16.0745 8.74999L14.8609 9.96394L12.1161 7.2191L11.0337 6.13632L8.28917 3.39183ZM2.16554 9.51546L3.37913 8.30166L9.95091 14.8736L8.73726 16.0876L5.45124 12.8015L2.16554 9.51546ZM3.37913 12.894L4.36884 13.8837L5.35817 14.8736L4.14458 16.0876L3.15487 15.0979L2.16554 14.1082L3.37913 12.894Z" fill="#0F1B32"/>
</svg>
