<svg width="47" height="60" viewBox="0 0 47 60" fill="none" xmlns="http://www.w3.org/2000/svg">
<path d="M6.02471 1L1.27441 5.75315M1.27441 5.75315L6.02471 10.5063M1.27441 5.75315H10.7798M32.1761 10.5063L36.9302 5.75315M36.9302 5.75315L32.1761 1M36.9302 5.75315H27.4201M15.2981 31.9016C15.2981 29.7994 13.5951 28.0984 11.4948 28.0984C9.39537 28.0984 7.69245 29.7984 7.69245 31.9016V47.5921C7.69245 53.8931 12.8022 59 19.1013 59H34.3154C40.6146 59 45.7252 53.8874 45.7252 47.5921V28.5738C45.7252 26.4715 44.0204 24.7714 41.922 24.7714C39.8216 24.7714 38.1187 26.4715 38.1187 28.5738V32.3809V24.7667C38.1187 22.6673 36.4158 20.9672 34.3154 20.9672C32.2169 20.9672 30.5121 22.6673 30.5121 24.7667V28.5738V20.9644C30.5121 18.864 28.8092 17.1611 26.7088 17.1611C24.6066 17.1611 22.9065 18.864 22.9065 20.9644L22.9037 28.5738V5.75315H22.9075C22.9075 3.65374 21.2036 1.94987 19.1013 1.94987C17.001 1.94987 15.2981 3.65374 15.2981 5.75315V39.9855V31.9016Z" stroke="white" stroke-width="2" stroke-miterlimit="10" stroke-linecap="round" stroke-linejoin="round"/>
</svg>
