<svg width="36" height="36" viewBox="0 0 36 36" fill="none" xmlns="http://www.w3.org/2000/svg">
<path fill-rule="evenodd" clip-rule="evenodd" d="M19.8389 20.0278C18.2778 21.6556 18.1667 23.6944 18.0333 28.1556C22.1222 28.1556 24.9556 28.1444 26.4111 26.7C27.8333 25.2222 27.8444 22.2111 27.8444 18.1889C23.45 18.3222 21.4444 18.4389 19.8389 20.0278V20.0278ZM8 18.1889C8 22.2111 8.01111 25.2222 9.43333 26.7C10.8889 28.1444 13.7222 28.1556 17.8111 28.1556C17.6833 23.6944 17.5722 21.6556 16.0056 20.0278C14.4056 18.4389 12.3944 18.3222 8 18.1889V18.1889ZM17.8111 8C13.7222 8 10.8889 8.01667 9.43333 9.45556C8.01111 10.9333 8 13.95 8 17.9667C12.3944 17.8333 14.4056 17.7222 16.0056 16.1333C17.5722 14.5056 17.6833 12.4611 17.8111 8ZM19.8389 16.1333C18.2778 14.5056 18.1667 12.4611 18.0333 8C22.1222 8 24.9556 8.01667 26.4111 9.45556C27.8333 10.9333 27.8444 13.95 27.8444 17.9667C23.45 17.8333 21.4444 17.7222 19.8389 16.1333V16.1333Z" fill="$c_body_hover"/>
</svg>
