<svg width="25" height="26" viewBox="0 0 25 26" fill="none" xmlns="http://www.w3.org/2000/svg">
<circle cx="12.5" cy="12.6602" r="12.5" fill="#002161"/>
<path d="M15.636 9.51616C15.636 7.90616 14.278 6.99616 12.64 6.99616C11.422 6.99616 10.456 7.47216 9.378 8.43816L10.106 9.26416C11.128 8.42416 11.772 8.11616 12.612 8.11616C13.662 8.11616 14.362 8.66216 14.362 9.54416C14.362 10.2302 13.998 10.6362 13.172 11.3222L12.92 11.5322C11.8 12.5402 11.66 12.7922 11.632 13.9122V14.4162H12.626L12.668 14.0102C12.696 13.6602 12.794 13.3802 12.948 13.1702C13.102 12.9602 13.382 12.6662 13.788 12.3162L14.11 12.0222C14.782 11.4482 15.146 11.0842 15.426 10.5102C15.566 10.2162 15.636 9.88016 15.636 9.51616ZM12.864 15.6482H11.436V17.1602H12.864V15.6482Z" fill="white"/>
</svg>
