<svg width="38" height="38" viewBox="0 0 38 38" fill="none" xmlns="http://www.w3.org/2000/svg">
<path d="M19 5C11.2688 5 5 11.2688 5 19C5 26.7313 11.2688 33 19 33C26.7313 33 33 26.7313 33 19C33 11.2688 26.7313 5 19 5ZM23.5031 19.2156L16.6781 24.1812C16.6407 24.2081 16.5966 24.2242 16.5507 24.2276C16.5047 24.2311 16.4587 24.2218 16.4177 24.2008C16.3767 24.1798 16.3422 24.1479 16.3182 24.1087C16.2941 24.0694 16.2813 24.0242 16.2812 23.9781V14.0531C16.2811 14.007 16.2937 13.9616 16.3178 13.9222C16.3418 13.8828 16.3762 13.8508 16.4173 13.8298C16.4584 13.8087 16.5046 13.7995 16.5506 13.8031C16.5966 13.8066 16.6408 13.8229 16.6781 13.85L23.5031 18.8125C23.5354 18.8353 23.5617 18.8655 23.5798 18.9006C23.598 18.9357 23.6075 18.9746 23.6075 19.0141C23.6075 19.0536 23.598 19.0925 23.5798 19.1275C23.5617 19.1626 23.5354 19.1928 23.5031 19.2156Z" fill="#022360"/>
<circle cx="19" cy="19" r="18.5" stroke="#022360"/>
</svg>
