<svg fill="none" viewBox="0 0 19 18" xmlns="http://www.w3.org/2000/svg"><path d="m13.663 18c-0.3841 0-0.7985-0.0513-1.2491-0.154-1.5221-0.3474-3.0248-1.1226-4.7295-2.4396-3.014-2.3285-5.4752-5.3758-7.118-8.812-0.38749-0.8106-0.74572-1.765-0.46735-2.6972 0.16334-0.5463 0.52384-0.98983 0.84894-1.3624 0.68015-0.77997 1.4216-1.5209 2.2036-2.2022 0.28925-0.25205 0.67402-0.36957 1.0556-0.32238 0.38295 0.047416 0.72892 0.25659 0.94921 0.57352l0.82218 1.184c0.51839 0.74663 1.1636 1.6761 1.2852 2.7567 0.05422 0.4821-0.02655 0.99595-0.22778 1.4465-0.21258 0.4762-0.53654 0.84464-0.93901 1.0688 1 1.908 2.5609 3.5528 4.5162 4.7588 0.1736 0.1071 0.3553 0.2126 0.5014 0.2081 0.1897-0.0043 0.3836-0.1847 0.6082-0.3936 0.1775-0.1652 0.3787-0.3524 0.6221-0.4853 0.42-0.2296 0.9163-0.2795 1.4756-0.1484 0.4603 0.108 0.8984 0.3195 1.2664 0.5121l2.0336 1.0644c0.2509 0.1314 0.6298 0.3299 0.8124 0.7281 0.272 0.593-0.071 1.2083-0.2357 1.5039-0.7267 1.3029-1.5538 2.6121-2.9613 3.0559-0.3306 0.1043-0.6863 0.1563-1.0729 0.1563zm-9.6244-17.093c-0.10708 0-0.20872 0.037887-0.29084 0.10958-0.75094 0.65429-1.4628 1.3658-2.116 2.1146-0.27473 0.31489-0.55219 0.65316-0.66336 1.0257-0.18966 0.63501 0.08803 1.3587 0.41653 2.0461 1.5817 3.3089 3.9518 6.2429 6.8539 8.4853 1.5969 1.2337 2.9874 1.9561 4.3765 2.273 0.7426 0.1692 1.347 0.1749 1.8474 0.017 1.0908-0.3439 1.7773-1.4413 2.4416-2.6323 0.0848-0.1523 0.2836-0.5089 0.2035-0.6838-0.0533-0.1164-0.2586-0.2239-0.4086-0.3024l-2.0336-1.0645c-0.6806-0.3564-1.3801-0.6479-1.8858-0.3714-0.1436 0.0785-0.2872 0.2119-0.4392 0.3532-0.299 0.2782-0.6711 0.6244-1.2058 0.6364-0.0093 2e-4 -0.0188 2e-4 -0.0281 2e-4 -0.3814 0-0.7004-0.1767-0.9703-0.3432-2.1081-1.3002-3.7906-3.0818-4.8655-5.1515-0.21893-0.4213-0.0574-0.94151 0.36027-1.1598 0.4923-0.25727 0.80606-0.95966 0.73029-1.6337-0.09597-0.85302-0.64453-1.6434-1.1287-2.3406l-0.82217-1.184c-0.07419-0.10685-0.18626-0.17446-0.31535-0.19057-0.01883-0.002268-0.03789-0.003402-0.05672-0.003402z" fill="#E9F2FB"/></svg>