<svg width="36" height="36" viewBox="0 0 36 36" fill="none" xmlns="http://www.w3.org/2000/svg">
<path d="M17.9999 10.7457C19.2255 10.7457 20.2225 11.7427 20.2225 12.9683C20.2225 14.193 19.2253 15.1899 17.9999 15.1899C16.775 15.1899 15.7777 14.193 15.7777 12.9683C15.7775 11.7424 16.7752 10.7457 17.9999 10.7457ZM17.9999 18.3345C20.9604 18.3345 23.3681 15.9276 23.3681 12.9683C23.3681 10.0075 20.9607 7.59961 17.9999 7.59961C15.0395 7.59961 12.6316 10.0078 12.6316 12.9683C12.6316 15.9276 15.0395 18.3345 17.9999 18.3345ZM20.1716 22.7132C21.2759 22.4617 22.3298 22.0253 23.2887 21.4225C23.6417 21.2005 23.892 20.8472 23.9846 20.4406C24.0771 20.0339 24.0044 19.6071 23.7823 19.2541C23.6724 19.0792 23.5292 18.9276 23.3607 18.808C23.1922 18.6885 23.0018 18.6033 22.8004 18.5574C22.599 18.5115 22.3905 18.5057 22.1869 18.5404C21.9832 18.5752 21.7884 18.6497 21.6136 18.7598C19.4144 20.1424 16.5838 20.1414 14.3864 18.7598C14.2116 18.6497 14.0168 18.5751 13.8132 18.5404C13.6095 18.5056 13.401 18.5114 13.1996 18.5573C12.9982 18.6032 12.8079 18.6884 12.6394 18.808C12.471 18.9275 12.3277 19.0792 12.2179 19.2541C11.9958 19.607 11.9229 20.0338 12.0153 20.4404C12.1077 20.847 12.3579 21.2003 12.7108 21.4225C13.6696 22.0251 14.7232 22.4615 15.8273 22.7132L12.8264 25.7147C12.5315 26.0097 12.3659 26.4097 12.3659 26.8269C12.366 27.244 12.5318 27.644 12.8268 27.939C13.1218 28.2339 13.5219 28.3995 13.939 28.3994C14.3562 28.3994 14.7562 28.2336 15.0511 27.9386L17.9993 24.9898L20.9494 27.9388C21.0953 28.0849 21.2685 28.2008 21.4592 28.2799C21.6499 28.3589 21.8543 28.3996 22.0607 28.3996C22.2671 28.3996 22.4715 28.3589 22.6622 28.2799C22.8529 28.2008 23.0262 28.0849 23.172 27.9388C23.3183 27.793 23.4344 27.6197 23.5136 27.4289C23.5928 27.2381 23.6335 27.0336 23.6335 26.827C23.6335 26.6204 23.5928 26.4159 23.5136 26.2251C23.4344 26.0343 23.3183 25.861 23.172 25.7152L20.1716 22.7132Z" fill="$c_body_hover"/>
</svg>
