<svg xmlns="http://www.w3.org/2000/svg" width="133" height="30" viewBox="0 0 133 30" fill="none">
  <path d="M22.5915 0.726562L16.6352 22.0803C16.4258 22.4908 16.4257 22.7003 16.0153 22.9013C15.8142 23.1107 15.1943 23.1107 14.5827 23.1107H12.9408C12.5303 23.1107 12.3209 23.1107 11.9104 22.9013C11.4496 22.4406 11.3659 22.3987 11.4999 21.8793L17.4562 0.726562H7.59607L1.02824 24.5516C0.215645 27.7434 3.87654 29.4775 6.57404 29.4775H17.6572C21.2008 29.4775 24.6774 29.3518 25.6743 25.3726L32.4516 0.726562H22.5915ZM58.1197 0.726562H36.9669L35.1155 7.09332H56.2766L58.1197 0.726562ZM28.9582 29.4775H38.8183L42.1022 17.7744H53.3948L55.2462 11.3993H34.0935L28.9582 29.4775ZM65.7263 21.8793L69.6217 8.11535C69.8311 7.70486 69.8311 7.49543 70.2416 7.29438C70.4427 7.08494 71.0626 7.08494 71.6825 7.08494L82.1542 7.09332L83.7961 0.726562H69.0101C66.3378 0.726562 64.4445 1.0449 63.2549 1.54754C62.2329 2.15908 61.4119 3.18949 61.0014 4.83145L55.4557 24.3422C54.953 26.2439 55.3803 27.2156 57.0976 28.246C58.1197 28.8576 59.3511 29.067 60.792 29.067H76.3989L78.2503 22.7003H66.9577C66.5221 22.7003 65.5085 22.7421 65.7263 21.8793ZM89.3419 23.3118C91.6038 23.3118 93.4468 22.9013 95.0887 22.2898L97.3506 14.4821H91.8048L90.9839 17.3555H93.2457L92.4248 20.0279C91.8048 20.2373 90.7828 20.2373 89.9618 20.2373C88.5209 20.2373 88.1105 19.6174 88.1105 18.5954C88.1105 18.3859 88.2026 18.0844 88.3199 17.7744L89.9618 12.2286C90.3723 10.7877 90.9838 9.96674 92.8352 9.96674C94.0667 9.96674 96.1192 10.1678 97.3506 10.5783L98.381 7.50381C97.3506 7.29438 95.0887 6.88389 93.4468 6.88389C89.1325 6.88389 87.2894 8.73527 86.4685 11.6087L84.6171 18.5954C83.7291 21.8793 84.3742 23.3118 89.3419 23.3118ZM101.456 23.1107H104.949L106.18 18.3859L114.398 6.88389H110.294L105.569 14.4821L104.538 7.09332H100.844L102.855 18.3608L101.456 23.1107ZM115.429 23.1107L118.302 14.2811L119.123 21.0583H122.818L127.341 14.2811L125.49 23.1107H128.983L132.267 7.09332H128.774L121.997 17.3555L120.975 7.09332H117.481L112.137 23.1107H115.429ZM81.5342 29.4775H129.184L130.005 26.3947H82.3552L81.5342 29.4775Z" fill="#586267"/>
</svg>