<svg xmlns="http://www.w3.org/2000/svg" width="133" height="37" viewBox="0 0 133 37" fill="none">
  <path fill-rule="evenodd" clip-rule="evenodd" d="M30.6745 7.65975C33.0333 7.12533 35.558 7.1714 37.8063 8.15731L37.9076 7.45704L45.9423 7.51232C47.131 7.26354 48.3933 7.24511 49.6096 7.53075L49.8768 7.60447L50.6692 2.57355H61.0351L60.2519 7.4294C60.8416 7.33726 61.4313 7.31883 62.0302 7.33725L62.795 2.57355H73.124L72.4883 6.55405C72.7002 6.1947 72.9121 5.88142 73.1609 5.55893C74.9945 3.37518 77.3349 2.55512 80.1084 2.36162C81.8038 2.30634 83.4715 2.38926 85.0379 3.08954L85.1116 2.57355H95.4775L94.6206 7.83482C95.2103 7.65054 95.7724 7.54918 96.3621 7.45704C99.0803 7.12533 101.946 7.28197 104.074 9.19851C106.083 7.51232 108.985 7.18983 111.51 7.37411C113.159 7.53075 114.864 7.97303 116.117 9.16165C117.536 8.00989 119.315 7.54918 121.111 7.37411C123.866 7.18983 126.658 7.4939 128.575 9.66843C129.441 10.7833 129.782 11.8706 129.855 13.2712C129.855 13.7687 129.819 14.2294 129.745 14.727L128.713 21.2045H128.151C128.455 22.2365 128.464 23.1948 128.326 24.2452L127.755 27.765C127.276 29.9119 126.28 31.5152 124.428 32.7406C122.143 34.0859 119.434 34.3255 116.827 33.9845C115.454 33.7726 114.016 33.3303 112.984 32.3444C110.745 34.003 107.898 34.307 105.217 34.0398C104.342 33.9293 103.54 33.7542 102.729 33.4133L102.655 33.8371H95.5236C94.2797 34.1412 93.0542 34.1596 91.7919 34.0583C91.3496 33.9845 90.8889 33.9108 90.4558 33.7726V33.8371H80.0991L80.1452 33.5054C77.9983 34.2333 75.6856 34.2149 73.5018 33.6805C71.2259 33.0263 69.4292 31.6349 68.8579 29.2393L68.13 33.8371H61.8183L61.3944 33.7358C59.653 34.2886 57.7641 34.2702 56.0595 33.5883L56.0226 33.8371H33.6783L33.6967 33.7173C33.1255 33.874 32.5542 33.9661 31.9553 34.0306C29.1081 34.2978 25.9753 34.0306 23.9482 31.7731L23.3861 33.8371H3.22559L4.64456 2.57355H32.0935L30.6745 7.65975Z" fill="white" stroke="#586267" stroke-width="4.5111" stroke-miterlimit="22.9256" stroke-linejoin="round"/>
  <path fill-rule="evenodd" clip-rule="evenodd" d="M30.6745 7.65975C33.0333 7.12533 35.558 7.1714 37.8063 8.15731L37.9076 7.45704L45.9423 7.51232C47.131 7.26354 48.3933 7.24511 49.6096 7.53075L49.8768 7.60447L50.6692 2.57355H61.0351L60.2519 7.4294C60.8416 7.33726 61.4313 7.31883 62.0302 7.33725L62.795 2.57355H73.124L72.4883 6.55405C72.7002 6.1947 72.9121 5.88142 73.1609 5.55893C74.9945 3.37518 77.3349 2.55512 80.1084 2.36162C81.8038 2.30634 83.4715 2.38926 85.0379 3.08954L85.1116 2.57355H95.4775L94.6206 7.83482C95.2011 7.65054 95.7724 7.54918 96.3621 7.45704C99.0803 7.12533 101.946 7.28197 104.074 9.19851C106.083 7.51232 108.985 7.18983 111.51 7.37411C113.159 7.53075 114.864 7.97303 116.117 9.16165C117.536 8.00989 119.315 7.54918 121.111 7.37411C123.866 7.18983 126.658 7.4939 128.575 9.66843C129.441 10.7833 129.782 11.8706 129.855 13.2712C129.855 13.7687 129.819 14.2294 129.745 14.727L128.713 21.2045H128.151C128.455 22.2365 128.464 23.1948 128.326 24.2452L127.755 27.765C127.276 29.9119 126.28 31.5152 124.428 32.7406C122.143 34.0859 119.434 34.3255 116.827 33.9845C115.454 33.7726 114.016 33.3303 112.984 32.3444C110.745 34.003 107.898 34.307 105.217 34.0398C104.342 33.9293 103.54 33.7542 102.729 33.4133L102.655 33.8371H95.5236C94.2797 34.1412 93.0542 34.1596 91.7919 34.0583C91.3496 33.9845 90.8889 33.9108 90.4558 33.7726V33.8371H80.0991L80.1452 33.5054C77.9983 34.2333 75.6856 34.2149 73.5018 33.6805C71.2259 33.0263 69.4292 31.6349 68.8579 29.2393L68.13 33.8371H61.8183L61.3944 33.7358C59.653 34.2886 57.7641 34.2702 56.0595 33.5883L56.0226 33.8371H33.6783L33.6967 33.7173C33.1255 33.874 32.5542 33.9661 31.9553 34.0306C29.1081 34.2978 25.9753 34.0306 23.9482 31.7731L23.3861 33.8371H3.22559L4.64456 2.57355H32.0935L30.6745 7.65975Z" fill="white"/>
  <path fill-rule="evenodd" clip-rule="evenodd" d="M45.2327 18.8713H49.9596L50.881 13.0572C51.0284 12.1727 50.8165 11.454 50.2268 10.9288C50.1162 10.8366 50.0333 10.7445 49.9227 10.68C49.3883 10.3022 48.7157 10.1087 47.9325 10.1087C46.6148 10.1087 45.6013 10.3943 44.8918 10.938L45.0024 10.2469H40.294L37.7877 25.8372L36.9492 31.0524H41.6576L44.3482 14.3196C44.4495 13.7114 44.772 13.3981 45.3064 13.3981C45.8593 13.3981 46.0712 13.7114 45.9606 14.3564L45.2327 18.8713ZM130.51 2.58996C130.639 2.46096 130.703 2.28589 130.703 2.05554C130.703 1.7699 130.62 1.5764 130.454 1.4474C130.298 1.32762 130.049 1.25391 129.717 1.25391H128.648V4.06422H129.072V2.83874H129.57L129.588 2.86638L130.298 4.06422H130.777L129.975 2.82031C130.206 2.80188 130.371 2.70974 130.51 2.58996ZM129.072 2.47939V1.61326H129.662C129.837 1.61326 129.975 1.6409 130.067 1.69618C130.196 1.75147 130.261 1.88047 130.261 2.01868C130.261 2.21218 130.196 2.3596 130.049 2.40567C129.966 2.46096 129.8 2.47939 129.588 2.47939H129.072Z" fill="#586267"/>
  <path fill-rule="evenodd" clip-rule="evenodd" d="M131.312 0.913717C130.833 0.45301 130.261 0.222656 129.589 0.222656C128.916 0.222656 128.326 0.45301 127.847 0.913717C127.368 1.37442 127.119 1.96413 127.119 2.63676C127.119 3.35546 127.368 3.91753 127.847 4.39666C128.326 4.84815 128.898 5.07851 129.589 5.07851C130.261 5.07851 130.851 4.84815 131.33 4.37823C131.809 3.91753 132.04 3.35546 132.04 2.63676C132.04 1.96413 131.791 1.39285 131.312 0.913717ZM130.989 4.10181C130.621 4.4888 130.142 4.6823 129.589 4.6823C129.017 4.6823 128.557 4.4888 128.179 4.10181C127.792 3.7056 127.617 3.22646 127.617 2.63676C127.617 2.0747 127.792 1.59556 128.179 1.21778C128.557 0.830789 129.017 0.628078 129.589 0.628078C130.142 0.628078 130.602 0.830789 130.989 1.21778C131.367 1.61399 131.561 2.0747 131.561 2.63676C131.561 3.22646 131.367 3.7056 130.989 4.10181ZM28.4359 5.36415H24.1513L20.5025 17.2227L20.9817 5.36415H15.1031L11.4174 17.2227L11.9887 5.36415H7.3171L6.1377 31.0532H11.4543L15.49 16.8818L15.0846 31.0532H21.2673L26.9064 10.8189L28.4359 5.36415ZM38.5623 14.3203C38.765 13.058 38.4977 12.0997 37.7883 11.427C37.6777 11.3165 37.5579 11.2151 37.4289 11.123C36.4338 10.4411 35.2267 10.1094 33.7617 10.1094C33.1259 10.1094 32.5362 10.1463 31.9926 10.2292C29.3573 10.6623 27.8462 12.0813 27.4592 14.4954L26.9064 17.9507L25.4597 26.9437C25.1833 28.7036 25.6625 29.9475 26.9064 30.6385C27.7264 31.0992 28.8782 31.3296 30.3709 31.3296C30.9606 31.3296 31.4858 31.3019 31.9834 31.2282C34.6186 30.8505 36.1297 29.4868 36.5075 27.1372L37.7883 19.1577L38.5623 14.3203ZM33.8354 14.3571L31.9834 25.838L31.7899 27.0819C31.6885 27.8006 31.3476 28.1507 30.8132 28.1507C30.2603 28.1507 30.0484 27.8006 30.159 27.0819L31.9834 15.6011L32.2045 14.3571C32.3058 13.6661 32.6283 13.3252 33.1812 13.3252C33.734 13.3252 33.946 13.6661 33.8354 14.3571ZM57.7645 5.36415H53.0561L49.9233 24.8244L48.9282 31.0532H53.6642L56.4653 13.4634L57.7645 5.36415ZM102.941 14.4954C103.135 13.2699 102.978 12.2932 102.481 11.5837C101.78 10.607 100.417 10.1094 98.3712 10.1094C97.4129 10.1094 96.5376 10.1924 95.7913 10.3951C93.6444 10.9295 92.4097 12.2379 92.078 14.3203L91.4053 18.4851H95.9479C96.0032 18.181 96.0585 17.7387 96.0953 17.149C96.169 16.5593 96.2151 16.117 96.2704 15.813C96.5376 14.1636 96.9615 13.3252 97.588 13.3252C98.1409 13.3252 98.3528 13.6661 98.2422 14.3571L97.7447 17.4347C97.6894 17.7848 97.072 18.2639 95.8834 18.8721C95.8465 18.8905 95.8281 18.8905 95.7913 18.9089C93.7826 19.9225 92.4097 20.7702 91.6818 21.4705C91.3869 21.7561 91.1197 22.0694 90.917 22.4103C90.6406 22.871 90.4563 23.3778 90.3733 23.903L89.6915 28.077C89.4612 29.5236 89.8758 30.4819 90.917 30.961C91.4514 31.2098 92.1609 31.3388 93.0362 31.3388C94.2986 31.3388 95.22 31.1177 95.7913 30.7122C95.9663 30.574 96.1322 30.4266 96.2335 30.2515L96.1138 31.0532H100.269L102.472 17.3794L102.941 14.4954ZM96.1875 27.1556C96.1322 27.5334 96.0032 27.8006 95.7913 27.9572C95.6438 28.0586 95.4688 28.1139 95.2937 28.1139C95.2753 28.1139 95.2661 28.1139 95.2568 28.1139C94.6948 28.1139 94.4552 27.8006 94.5658 27.1556L95.1739 23.387C95.2384 22.9816 95.4411 22.6407 95.7913 22.355C96.0953 22.1247 96.5192 21.9496 97.0536 21.8022L96.1875 27.1556ZM112.469 20.4569C110.064 19.0656 108.792 18.0704 108.608 17.4992C108.451 16.9371 108.451 16.0802 108.645 14.9653C108.802 13.878 109.198 13.3252 109.788 13.3252C110.368 13.3252 110.515 14.2005 110.248 15.9235L109.732 18.4298H114.339L114.496 17.4162L114.994 14.3203C115.187 13.1317 115.03 12.201 114.496 11.5284C113.786 10.5886 112.395 10.1094 110.313 10.1094C106.655 10.1094 104.591 11.5653 104.13 14.4954L103.688 17.2872C103.504 18.4114 103.614 19.2222 104.038 19.7935C104.453 20.3463 105.789 21.323 108.028 22.7328C108.59 23.2304 108.737 24.3637 108.451 26.1236C108.24 27.4781 107.862 28.1507 107.327 28.1507C106.802 28.1507 106.599 27.7914 106.71 27.0819L107.42 22.6775H102.711L102.481 24.1886L102.002 27.1372C101.817 28.2705 101.983 29.1827 102.481 29.8553C103.19 30.8505 104.628 31.3296 106.802 31.3296C110.515 31.3296 112.616 29.8738 113.068 26.9437L113.575 23.8293C113.805 22.4287 113.427 21.3046 112.469 20.4569ZM64.2881 10.8742C63.7721 10.4135 62.9889 10.1647 61.8924 10.1279C61.7635 10.1094 61.6252 10.1094 61.4962 10.1094C60.538 10.1094 59.6995 10.3582 58.9439 10.8926C58.1976 11.4086 57.7461 12.1181 57.6079 12.9842L56.4653 20.0791L55.203 27.9388C55.0463 28.9892 55.332 29.8093 56.0783 30.4266C56.1981 30.5187 56.3271 30.6201 56.4653 30.6938C57.1656 31.1177 57.9949 31.3388 59.0084 31.3388C60.022 31.3388 60.9802 31.0163 61.8924 30.3713C61.8924 30.3529 61.9109 30.3529 61.9109 30.3529L62.1965 31.0532H65.7532L69.8719 5.36415H65.1635L64.2881 10.8742ZM63.7445 14.2466L61.8924 25.8195L61.6805 27.1556C61.57 27.8006 61.2475 28.1139 60.713 28.1139C60.1694 28.1139 59.9391 27.8006 60.022 27.1556L61.8924 15.6011L62.1044 14.2834C62.1965 13.6477 62.5282 13.3252 63.0811 13.3252C63.6155 13.3252 63.8458 13.6292 63.7445 14.2466ZM122.319 10.1094C118.652 10.1094 116.597 11.5653 116.127 14.4954L115.685 17.2872C115.51 18.4114 115.611 19.2314 116.044 19.7935C116.449 20.3463 117.785 21.323 120.024 22.7328C120.596 23.2304 120.734 24.3637 120.448 26.1236C120.236 27.4781 119.868 28.1507 119.333 28.1507C118.799 28.1507 118.605 27.8006 118.707 27.0819L119.416 22.6775H114.708L114.496 24.0228L113.998 27.1372C113.823 28.2889 113.98 29.2195 114.496 29.8922C115.224 30.8505 116.661 31.3296 118.799 31.3296C122.512 31.3296 124.613 29.8738 125.074 26.9437L125.571 23.8293C125.802 22.4287 125.433 21.3046 124.466 20.4569C122.07 19.0656 120.789 18.0704 120.614 17.4992C120.448 16.9371 120.448 16.0802 120.642 14.9561C120.808 13.878 121.195 13.3252 121.784 13.3252C122.365 13.3252 122.512 14.1913 122.245 15.9235L121.729 18.4298H126.336L126.99 14.3203C127.451 11.51 125.894 10.1094 122.319 10.1094ZM92.1977 5.36415H87.4893L84.5592 23.5989L83.3614 31.0532H88.079L90.9262 13.3436L92.1977 5.36415ZM79.1321 20.7425L78.1185 27.0634C78.054 27.4965 77.7868 27.7084 77.3169 27.7084C76.8194 27.7084 76.589 27.4965 76.6627 27.0634L79.5283 9.25251C79.5928 8.82866 79.8784 8.61674 80.376 8.61674C80.8367 8.61674 81.0579 8.82866 80.9841 9.25251L80.1641 14.3387H84.9094L85.6557 9.68558C85.9414 7.97175 85.5728 6.74627 84.5592 5.99992C83.776 5.41022 82.5874 5.13379 81.0026 5.13379C76.9852 5.13379 74.7093 6.78312 74.1749 10.1279L71.5212 26.658C71.0237 29.754 72.7836 31.2835 76.8009 31.2835C78.1923 31.2835 79.5099 30.9242 80.7169 30.1778C81.9424 29.4499 82.6519 28.4732 82.8454 27.2477L83.8958 20.7425H79.1321Z" fill="#586267"/>
</svg>