<svg xmlns="http://www.w3.org/2000/svg" width="99" height="47" viewBox="0 0 99 47" fill="none">
  <path d="M40.2847 5.25693H44.304L42.3241 12.1768L45.4721 11.365L47.264 5.25693H51.0357L48.0065 15.6318L53.0157 8.9594L54.1244 5.19753H57.5794L55.4213 12.5431C55.3619 12.7906 54.8669 14.3943 55.2332 14.3943C55.6094 14.3943 56.5894 12.7312 57.6388 10.7512C58.8169 8.65251 59.8068 6.42509 60.3018 5.19753H63.9449L62.1531 11.4343L66.7861 5.19753H98.9006L21.4556 38.3614L22.9999 33.1047L83.8333 8.21693H71.9735L70.7955 12.1075L67.0336 13.2856L68.5779 8.21693H66.7168L61.47 15.018L58.2031 16.1268C58.3813 14.4537 58.6288 12.85 59.0644 11.2462L57.52 14.0874C56.2826 16.3148 55.2926 18.0968 53.4414 18.0968C52.0851 18.0968 51.4614 16.8692 51.4614 15.1962C51.4614 14.6418 51.5307 13.9587 51.7089 13.345L46.769 19.9579L42.7002 21.3142L44.6109 14.2062L41.5222 15.018L39.364 22.4823L34.9191 23.9673L36.8891 17.0474L32.3848 22.7991C30.4643 25.2641 28.4942 26.561 26.9499 26.561C23.9206 26.561 23.4949 21.5617 23.8018 19.5817C22.1287 20.3242 21.5744 20.6311 21.02 20.938C21.7625 31.6296 10.8332 46.39 3.91337 46.39C1.75524 46.39 0.141602 44.717 0.141602 41.0145C0.141602 35.4509 4.27966 27.4223 15.4564 21.0667C15.1495 18.9086 14.407 17.0474 13.0508 15.8793V15.6318C16.8225 12.7312 19.7231 9.45439 19.7231 6.55379C19.7231 5.19753 18.6738 4.70255 17.565 4.70255C15.4564 4.70255 12.6845 7.29626 11.1995 9.45439H10.3977L11.6351 5.25693C14.4763 1.48516 19.04 0.128906 21.515 0.128906C24.0493 0.128906 26.2074 1.11887 26.2074 4.14817C26.2074 7.72195 23.0593 11.4937 18.4263 14.3349C19.4756 15.5724 20.2181 16.9286 20.5844 18.4136C21.7031 17.8592 22.8712 17.2355 24.1087 16.6811C25.4649 10.1375 30.1574 5.06884 34.2954 5.06884C36.3941 5.06884 37.3247 6.30629 37.3247 8.03873C37.3247 11.9887 33.7411 15.018 28.613 17.6711C28.4942 18.5918 28.4942 19.0868 28.4942 19.6411C28.4942 21.433 28.8605 22.3041 29.5436 22.3041C29.9792 22.3041 30.5336 21.8686 31.1473 21.1855L38.0078 13.0381L40.2847 5.25693ZM5.39832 39.777C5.39832 40.6482 5.6458 42.0045 6.62587 42.0045C10.457 42.0045 15.3376 31.8078 15.5257 23.8485C8.79391 28.4122 5.39832 35.0846 5.39832 39.777ZM33.1867 8.77131C33.1867 8.15753 32.9392 7.72194 32.5729 7.72194C31.5235 7.72194 30.0386 10.9987 29.1674 14.7012C31.9492 12.9787 33.1867 10.6324 33.1867 8.77131Z" fill="#586267"/>
  <path d="M86.4264 31.0731L86.5452 29.7762H89.7527V27.9844H84.9415L84.4465 32.855C85.0009 32.6768 85.684 32.5481 86.1096 32.5481C87.3471 32.5481 88.0896 33.1025 88.0896 33.845C88.0896 34.3994 87.5352 35.023 86.5452 35.023C85.8028 35.023 84.9415 34.7161 84.3178 34.1519L84.0703 36.1318C84.7534 36.5674 85.684 36.9337 86.6739 36.9337C88.9508 36.9337 90.2477 35.5774 90.2477 33.845C90.2477 31.7462 88.2777 30.6375 86.4264 31.0731Z" fill="#586267"/>
  <path d="M83.2685 30.5865C83.2685 29.1015 82.1004 27.8047 80.0017 27.8047C78.0217 27.8047 76.7249 29.0421 76.7249 31.0122V31.0815H78.8236V30.9528C78.8236 30.0222 79.2592 29.5371 80.0017 29.5371C80.6154 29.5371 81.051 29.9628 81.051 30.5865C81.051 31.0122 80.8035 31.4478 80.368 32.0021L76.418 36.6946H83.1498V34.8433H80.4273L82.041 33.1109C82.8429 32.1902 83.2685 31.5072 83.2685 30.5865Z" fill="#586267"/>
  <path d="M64.5 29.9544H66.4106V36.6862H68.5787V27.9844H65.5494L64.5 29.9544Z" fill="#586267"/>
  <path d="M72.835 27.7383C70.7363 27.7383 69.4395 29.1539 69.4395 30.9458C69.4395 32.6089 70.7363 33.7276 72.152 33.7276C72.4687 33.7276 72.6469 33.7276 72.9637 33.6682L70.9244 36.6876H73.3894L74.6269 34.8363C75.6168 33.3514 76.1712 32.2426 76.1712 30.9458C76.1712 29.0945 74.9338 27.7383 72.835 27.7383ZM72.835 32.2426C72.0926 32.2426 71.4788 31.7476 71.4788 30.8864C71.4788 30.1439 71.9738 29.5301 72.835 29.5301C73.6369 29.5301 74.1913 30.1439 74.1913 30.8864C74.1319 31.6882 73.6369 32.2426 72.835 32.2426Z" fill="#586267"/>
</svg>