<svg width="73" height="26" viewBox="0 0 73 26" fill="none" xmlns="http://www.w3.org/2000/svg">
<path d="M11.9569 12.9782C10.7045 12.1414 8.98816 11.7231 6.90074 11.7231H4.62778V8.51572H11.2147C12.1889 8.51572 13.0238 7.77198 13.0238 6.79582C13.0238 5.81966 12.1889 5.02944 11.2147 5.02944H2.86507C1.89094 5.02944 1.05598 5.81966 1.05598 6.8423V13.3965C1.05598 14.3727 1.84456 15.2094 2.86507 15.2094H6.99351C9.77673 15.2094 10.6581 16.4644 10.6581 17.8125C10.6581 19.114 9.96228 21.1593 7.0399 21.1593C4.62778 21.1593 3.18978 19.5324 2.91146 19.2535C2.0301 18.4632 1.14875 18.5097 0.545719 19.021C-0.196473 19.6718 -0.103698 20.648 0.360172 21.3452C0.916816 22.1819 3.05062 24.7385 7.08629 24.7385C9.40564 24.7385 11.4003 23.9018 12.7919 22.4143C14.0443 21.0663 14.6474 19.2999 14.5082 17.5336C14.369 15.5812 13.4877 14.0008 11.9569 12.9782ZM57.8801 11.5836C56.9987 11.2583 56.2101 11.0258 55.5607 10.8399C54.8185 10.6075 54.2619 10.3751 54.2155 10.3751C53.3341 10.0497 52.6383 9.30594 53.0094 8.51572C53.3805 7.77198 54.7721 7.44659 57.6017 8.70165C58.4367 9.07352 59.2253 8.74814 59.5036 8.42275C60.1066 7.67901 59.8747 6.42395 58.715 5.81966C57.9264 5.30834 56.5348 4.65757 53.7052 4.88999C51.4786 5.07593 49.7623 6.60989 49.4376 8.5622C49.1129 10.4215 50.087 11.7696 51.4786 12.6063C52.4528 13.1641 54.4938 13.7684 55.2824 14.0008C56.3029 14.2797 57.0915 14.5121 57.2306 15.2094C57.277 15.5812 57.0915 16.0461 56.6276 16.4179C55.839 17.0687 54.1227 17.1617 51.9889 15.8137C51.5714 15.5812 50.5973 14.791 49.6696 15.6277C48.9274 16.2785 49.1129 17.3941 50.0407 18.2308C50.8756 18.9745 52.7311 19.8113 54.6793 19.9042C56.674 19.9972 58.112 19.3464 58.8542 18.7886C59.8747 18.0449 60.5241 16.7898 60.6633 15.6277C60.8952 13.4895 59.5036 12.1879 57.8801 11.5836ZM71.3787 16.325C70.9612 16.1855 70.4509 16.2785 70.0798 16.325C69.616 16.4179 68.9202 16.4644 68.2707 16.2785C67.2038 15.9531 66.74 15.4883 66.74 14.5121V8.2833H69.2913C70.2654 8.2833 71.054 7.53956 71.054 6.60989C71.054 5.68021 70.2654 4.93647 69.2913 4.93647H66.74V2.47284C66.74 1.4502 65.905 0.659973 64.9309 0.659973C63.9104 0.659973 63.1218 1.49668 63.1218 2.47284V4.88999H62.2868C61.3127 4.88999 60.5241 5.63373 60.5241 6.5634C60.5241 7.49308 61.3127 8.23682 62.2868 8.23682H63.1218V14.5586C63.1218 17.5336 65.4875 19.9507 68.5027 19.9507C71.5178 19.9507 72.3064 18.8816 72.3064 17.8589C72.26 17.1152 71.9817 16.5574 71.3787 16.325ZM41.3663 16.5109C39.2789 16.5109 37.6089 15.0234 37.6089 12.3739C37.6089 9.72429 39.3253 8.23682 41.3663 8.23682C43.4537 8.23682 45.1236 9.72429 45.1236 12.3739C45.17 15.0234 43.4537 16.5109 41.3663 16.5109ZM41.3663 4.88999C37.3306 4.88999 34.0371 8.23682 34.0371 12.3739C34.0371 16.5109 37.3306 19.8577 41.3663 19.8577C45.4019 19.8577 48.6954 16.5109 48.6954 12.3739C48.6954 8.2833 45.4019 4.88999 41.3663 4.88999ZM25.8266 16.5109C23.4609 16.5109 21.8374 14.884 21.8374 12.3739C21.8374 9.67781 23.832 8.23682 25.8266 8.23682C27.914 8.23682 29.584 10.1891 29.584 12.3739C29.584 14.6051 27.914 16.5109 25.8266 16.5109ZM26.0586 4.88999C24.6206 4.88999 22.8579 5.7267 21.9301 7.02824C21.8837 5.77318 21.2343 4.93647 20.2602 4.93647C19.2397 4.93647 18.4511 5.77318 18.4511 6.74934V23.6229C18.4511 24.6456 19.2861 25.4358 20.2602 25.4358C21.2343 25.4358 22.0693 24.5991 22.0693 23.6229V18.1378C22.7651 19.0675 24.4814 19.9507 26.1977 19.9507C30.2334 19.9507 33.1094 16.5574 33.1094 12.4204C33.1558 8.2833 30.2334 4.88999 26.0586 4.88999Z" fill="white"/>
</svg>
