<svg width="119" height="21" viewBox="0 0 119 21" fill="none" xmlns="http://www.w3.org/2000/svg">
<path fill-rule="evenodd" clip-rule="evenodd" d="M112.287 7.27239C113.177 7.27239 113.905 7.574 114.492 8.19848C115.078 8.82295 115.381 9.56713 115.381 10.4326C115.381 11.3185 115.078 12.0635 114.492 12.6879C113.905 13.3116 113.177 13.6132 112.287 13.6132C111.397 13.6132 110.67 13.3116 110.083 12.6879C109.497 12.0635 109.213 11.3185 109.213 10.4326C109.213 9.56713 109.497 8.82295 110.063 8.19848C110.649 7.574 111.378 7.27239 112.287 7.27239ZM118.05 4.95718H115.341V6.39592C114.41 5.29816 113.197 4.67605 111.822 4.67605C110.265 4.67605 108.951 5.21941 107.919 6.30615C106.888 7.37319 106.363 8.74184 106.363 10.3932C106.363 12.0438 106.868 13.4329 107.899 14.5401C108.931 15.6473 110.245 16.1907 111.822 16.1907C113.218 16.1907 114.394 15.6229 115.341 14.4795V15.9284H118.05V4.95718ZM53.8943 0.548828C52.9241 0.548828 52.1758 1.25363 52.1758 2.1994C52.1758 3.18612 52.9241 3.91061 53.8943 3.91061C54.8447 3.91061 55.5733 3.18612 55.5733 2.1994C55.5733 1.29379 54.8447 0.548828 53.8943 0.548828ZM54.259 9.32616H48.6575C49.0008 7.89687 50.072 7.03142 51.5087 7.03142C52.9644 7.03142 53.9961 7.89608 54.259 9.32616ZM51.1851 2.1994C51.1851 1.29379 50.4367 0.548828 49.4863 0.548828C48.5359 0.548828 47.7876 1.29379 47.7876 2.1994C47.7876 3.18612 48.5154 3.91061 49.4863 3.91061C50.4573 3.91061 51.1851 3.18612 51.1851 2.1994ZM48.6575 11.4398H56.9279C56.9895 10.9972 57.0289 10.5735 57.0289 10.1908C57.0289 8.4804 56.5032 7.15191 55.4715 6.16518C54.4405 5.17846 53.1065 4.67526 51.5087 4.67526C49.81 4.67526 48.4348 5.21941 47.3629 6.30693C46.2909 7.39367 45.7651 8.76232 45.7651 10.4334C45.7651 12.0233 46.2711 13.3927 47.3021 14.4999C48.333 15.6072 49.8092 16.1702 51.7511 16.1702C53.5714 16.1702 55.1573 15.6292 56.549 14.3322L55.4012 12.5344C54.394 13.3297 53.0654 13.7747 51.8726 13.7747C50.1336 13.7747 49.0616 12.9895 48.6575 11.4398ZM0.507812 0.869141V15.9275H3.50039V3.74741H9.76894V15.9275H12.7623V0.869141H0.507812ZM19.8195 7.25015H21.5182V10.0489C20.9522 10.1497 20.3665 10.189 19.7595 10.189C18.3843 10.189 17.696 9.70632 17.696 8.74007C17.696 7.75414 18.4041 7.25015 19.8195 7.25015ZM24.289 15.9267V4.95541H19.7389C16.5024 4.95541 14.8652 6.46502 14.8652 8.69991C14.8652 10.3308 15.6215 11.3742 17.0582 11.9782L14.319 15.9267H17.4331L19.7263 12.3657C20.304 12.3491 20.798 12.2556 21.2598 12.1682C21.347 12.1517 21.433 12.1355 21.5182 12.12V15.9267H24.289ZM44.2882 9.30391C44.2882 7.83446 43.8635 6.70678 43.0149 5.88149C42.1852 5.05463 41.114 4.6538 39.7989 4.6538C38.1609 4.6538 36.665 5.37829 35.8559 6.5863C35.2694 5.31844 33.9953 4.6538 32.6202 4.6538C31.1843 4.63412 29.8905 5.37829 29.2637 6.52566V4.95541H26.4732V15.9275H29.3245V9.92839C29.3245 8.2975 30.3357 7.27062 31.7306 7.27062C33.0852 7.27062 33.9551 8.21718 33.9551 9.84807V15.9275H36.8063V9.90792C36.8063 8.2975 37.7962 7.27062 39.2329 7.27062C40.548 7.27062 41.4377 8.15654 41.4377 9.8268V15.9267H44.2882V9.30391ZM67.4639 10.4521C67.4639 11.3372 67.1805 12.0814 66.6145 12.6854V12.6862C66.0485 13.2902 65.3199 13.5918 64.4105 13.5918C63.5209 13.5918 62.7931 13.2902 62.2271 12.6862C61.6611 12.0822 61.3769 11.3372 61.3769 10.4521C61.3769 9.56536 61.6603 8.82118 62.2271 8.21639C62.7923 7.61318 63.5209 7.31078 64.4105 7.31078C65.3199 7.31078 66.0485 7.61318 66.6145 8.21639C67.1805 8.82118 67.4639 9.56536 67.4639 10.4521ZM70.3357 10.4316C70.3357 8.82118 69.8297 7.45174 68.7987 6.34454C67.767 5.23733 66.4732 4.67428 64.9157 4.67428C63.5209 4.67428 62.3226 5.27041 61.4172 6.39494V4.95541H58.5864V20.4366H61.4377V14.5565C62.291 15.5991 63.5414 16.1881 64.8952 16.1881C66.4535 16.1881 67.7473 15.6251 68.7782 14.5187C69.8099 13.4107 70.3357 12.042 70.3357 10.4316ZM79.435 12.6657C78.8493 13.2697 78.1412 13.5721 77.2721 13.5721V13.5713C76.4022 13.5713 75.6743 13.2697 75.0878 12.6657C74.5021 12.042 74.2187 11.297 74.2187 10.4316C74.2187 9.56615 74.5021 8.82118 75.0878 8.21718C75.6743 7.61318 76.4022 7.31157 77.2721 7.31157C78.1412 7.31157 78.8493 7.61318 79.4358 8.21718C80.0223 8.82118 80.3254 9.56536 80.3254 10.4316C80.3254 11.297 80.0223 12.042 79.435 12.6657ZM77.2721 4.6538C75.5536 4.6538 74.1382 5.21686 73.0251 6.34454C71.9129 7.45174 71.3674 8.82118 71.3674 10.4316C71.3674 12.0625 71.9129 13.4311 73.0251 14.5383C74.1382 15.6448 75.5536 16.2094 77.2721 16.2094C78.9906 16.2094 80.4059 15.6448 81.519 14.5383C82.6304 13.4311 83.1767 12.0617 83.1767 10.4316C83.1767 8.82118 82.6304 7.45174 81.519 6.34454C80.4059 5.21686 78.9906 4.6538 77.2721 4.6538ZM94.0569 4.95541H91.2056V9.97328C90.4683 10.267 89.8305 10.371 89.0821 10.371C87.7473 10.371 87.0802 9.72679 87.0802 8.43846V4.95541H84.2495V8.63927C84.2495 10.3308 84.735 11.4986 85.6033 12.1223C86.4732 12.7059 87.4441 12.9476 88.7577 12.9476C89.4665 12.9476 90.3704 12.709 91.2048 12.2342V15.9275H94.0569V4.95541ZM99.0924 10.8608L103.481 15.9275H106.979L101.782 10.0371L106.696 4.95541H103.096L99.0924 9.2921V4.93887H96.2411V15.9275H99.0924V10.8608Z" fill="white"/>
</svg>
