<svg width="84" height="15" viewBox="0 0 84 15" fill="none" xmlns="http://www.w3.org/2000/svg">
<path fill-rule="evenodd" clip-rule="evenodd" d="M11.302 14.2358V5.9926L7.70574 10.3474L4.10964 5.9926V14.2358H0.507812V0.365234H4.06251L7.70574 5.13463L11.3491 0.365234H14.9037V14.2358H11.302ZM32 0.365234V14.2358H35.6018V3.58687H40.6379V0.365234H32ZM51.5064 8.80343V14.2358H55.1082V0.365234H51.5064V5.54164H46.1555V0.365234H42.5537V14.2358H46.1555V8.80343H51.5064ZM76.011 14.2358V3.58687H71.8042V0.365234H83.8422V3.58687H79.6147V14.2358H76.011ZM66.5031 6.3289V14.2321H70.1068V0.365234H66.997L61.3596 8.18616V0.365234H57.7578V14.2321H60.7696L66.5031 6.3289ZM25.0896 9.35755H21.7422L23.4159 5.00851L25.0896 9.35755ZM26.213 12.2906L26.9668 14.234H30.6497L25.1085 0.365234H21.7781L16.2388 14.234H19.8593L20.6133 12.2906H26.213Z" fill="white"/>
</svg>
