<svg width="77" height="17" viewBox="0 0 77 17" fill="none" xmlns="http://www.w3.org/2000/svg">
<path fill-rule="evenodd" clip-rule="evenodd" d="M9.71749 0.0455227C8.01378 -0.133508 6.2963 0.218263 4.80113 1.05248C3.30596 1.88671 2.1065 3.16243 1.3676 4.70429C0.628705 6.24616 0.386653 7.97849 0.674716 9.66315C0.962779 11.3478 1.76682 12.9021 2.97631 14.1125C4.1858 15.3228 5.74138 16.1297 7.42922 16.4222C9.11706 16.7148 10.8543 16.4787 12.4022 15.7464C13.9501 15.014 15.2326 13.8214 16.0734 12.3324C16.9143 10.8434 17.2722 9.13121 17.098 7.43107C16.9063 5.54124 16.0677 3.77503 14.7234 2.42982C13.3792 1.08462 11.6113 0.242592 9.71749 0.0455227ZM9.44878 12.6498C8.53248 12.7725 7.60069 12.6056 6.78437 12.1726C5.96805 11.7397 5.30824 11.0625 4.89767 10.2361C4.4871 9.40976 4.34642 8.47585 4.49539 7.56561C4.64435 6.65538 5.07549 5.81459 5.72819 5.16142C6.3809 4.50825 7.22236 4.07553 8.13432 3.92407C9.04629 3.77261 9.9829 3.91004 10.8125 4.31703C11.6421 4.72402 12.3231 5.38012 12.7596 6.19311C13.1962 7.0061 13.3664 7.93512 13.2463 8.8496C13.1203 9.81147 12.68 10.7051 11.9935 11.3921C11.307 12.0791 10.4126 12.5211 9.44878 12.6498ZM21.5332 0.37278C21.2456 0.373467 20.9617 0.438107 20.7023 0.561998C20.4429 0.68589 20.2145 0.865914 20.0336 1.08897C19.8527 1.31203 19.7239 1.57251 19.6567 1.85146C19.5894 2.13041 19.5853 2.42082 19.6447 2.70154C19.8267 3.61098 20.6782 4.23238 21.6058 4.23238H26.9889L18.6116 15.292C18.5496 15.3736 18.5117 15.4708 18.502 15.5728C18.4924 15.6747 18.5114 15.7774 18.5569 15.8691C18.6024 15.9609 18.6726 16.0383 18.7598 16.0924C18.8469 16.1466 18.9474 16.1755 19.05 16.1759H32.1907C33.1177 16.1759 33.9698 15.5547 34.1518 14.6451C34.2112 14.3644 34.2072 14.0741 34.14 13.7951C34.0728 13.5162 33.9441 13.2557 33.7633 13.0327C33.5825 12.8096 33.3541 12.6295 33.0948 12.5056C32.8355 12.3816 32.5517 12.3168 32.2642 12.316H25.7052L34.0762 1.26504C34.1387 1.1826 34.177 1.0844 34.1868 0.981459C34.1965 0.878516 34.1773 0.774902 34.1313 0.682243C34.0853 0.589584 34.0143 0.511546 33.9263 0.456883C33.8383 0.402221 33.7368 0.373097 33.6332 0.37278H21.5332ZM74.0426 0.417299C73.6075 0.5205 73.2208 0.768725 72.9464 1.12093C72.6719 1.47314 72.5262 1.90824 72.5332 2.35429V8.7804L62.0954 0.494154C62.0135 0.429335 61.915 0.388885 61.8111 0.377456C61.7072 0.366027 61.6022 0.384085 61.5082 0.42955C61.4141 0.475016 61.3349 0.546043 61.2795 0.634461C61.2241 0.722879 61.1949 0.825095 61.1952 0.929351V14.1979C61.1881 14.6439 61.3338 15.079 61.6082 15.4312C61.8827 15.7835 62.2694 16.0317 62.7045 16.1349C62.987 16.1969 63.2799 16.1948 63.5615 16.1289C63.8431 16.0629 64.1062 15.9347 64.3316 15.7538C64.5569 15.5728 64.7386 15.3437 64.8633 15.0833C64.9881 14.823 65.0526 14.538 65.0522 14.2494V7.76769L75.4902 16.0541C75.572 16.1189 75.6705 16.1593 75.7744 16.1707C75.8782 16.1821 75.9832 16.1641 76.0772 16.1186C76.1712 16.0732 76.2504 16.0022 76.3058 15.9138C76.3611 15.8254 76.3904 15.7233 76.3901 15.6191V2.30211C76.3904 2.01361 76.3258 1.72873 76.2011 1.46845C76.0763 1.20818 75.8946 0.979159 75.6693 0.798275C75.444 0.617391 75.1809 0.489257 74.8993 0.42332C74.6178 0.357384 74.325 0.355326 74.0426 0.417299ZM46.8652 3.86295C51.2801 3.86295 54.5789 6.19046 54.5789 8.27241C54.5789 10.3544 51.2801 12.6819 46.8652 12.6819C42.4502 12.6819 39.1514 10.3544 39.1514 8.27241C39.1514 6.19046 42.4502 3.86295 46.8652 3.86295ZM46.8652 0.00350258C40.4747 0.00350258 35.2944 3.70565 35.2944 8.27241C35.2944 12.8392 40.4747 16.5413 46.8652 16.5413C53.2556 16.5413 58.4358 12.8392 58.4358 8.27241C58.4358 3.70565 53.2555 0.00350258 46.8652 0.00350258Z" fill="white"/>
</svg>
