<svg width="120" height="18" viewBox="0 0 120 18" fill="none" xmlns="http://www.w3.org/2000/svg">
<path d="M0.53125 17.0131V1.46948H9.17412V17.0131H6.74472V3.72347H2.97065V17.0131H0.53125ZM15.7475 1.12041C14.3279 1.12041 13.2131 1.85844 12.3983 3.33451C11.5885 4.82055 11.1836 6.77535 11.1836 9.18892C11.1836 11.6823 11.5735 13.677 12.3583 15.1481C13.1331 16.6241 14.2579 17.3622 15.7425 17.3622C17.2571 17.3622 18.4418 16.5892 19.2916 15.0433C20.1014 13.5673 20.5113 11.6075 20.5113 9.16897C20.5113 6.7554 20.0914 4.81058 19.2516 3.33451C18.4118 1.85844 17.2421 1.12041 15.7475 1.12041ZM13.4981 9.20887C13.4981 7.50341 13.688 6.1171 14.0729 5.04994C14.4428 3.9778 15.0027 3.43923 15.7475 3.43923C16.5723 3.43923 17.1672 3.98777 17.5371 5.06989C17.867 6.02235 18.0319 7.38871 18.0319 9.16897C18.0319 10.8844 17.842 12.2907 17.4571 13.3927C17.0772 14.4898 16.5073 15.0383 15.7475 15.0383C15.0127 15.0383 14.4578 14.4898 14.0729 13.3728C13.6558 12.0252 13.4616 10.6188 13.4981 9.20887ZM27.7945 1.46948H30.2339V17.0131H27.7945V9.35847H25.5951C24.6073 9.38288 23.6498 9.01728 22.9307 8.34118C22.5715 8.03349 22.2849 7.65045 22.0913 7.21942C21.8978 6.7884 21.8021 6.32004 21.811 5.84782V1.46449H24.2304V5.54363C24.2304 5.95752 24.3504 6.29164 24.5953 6.54097C24.9302 6.87009 25.4351 7.03466 26.105 7.03466H27.7945V1.46948ZM36.5024 17.0131H34.078V3.76835H31.7586V1.47446H38.8418V3.76835H36.5024V17.0131ZM40.7214 1.46948H44.6604C45.8251 1.46948 46.7399 1.74873 47.4097 2.30725C48.2495 3.00539 48.6694 4.10246 48.6694 5.60845L49.9291 17.0131H47.4897L46.7199 9.27369H42.9058L42.6409 17.0131H40.2065L40.7164 1.46948H40.7214ZM42.9508 6.99476H46.445C46.33 5.79795 46.135 4.97015 45.8601 4.52135C45.5302 4.00273 44.9803 3.74841 44.2105 3.74841H43.0408L42.9508 6.99476ZM58.6819 16.7388V1.19521H61.4313C63.2708 1.19521 64.5955 1.99807 65.4103 3.59881C65.9533 4.70605 66.2224 5.92698 66.1951 7.15932C66.1951 9.08919 65.8752 10.5603 65.2303 11.5626C64.6655 12.4203 63.9506 12.8542 63.0809 12.8542C62.7288 12.8493 62.3813 12.7744 62.0586 12.634C61.7358 12.4936 61.4444 12.2904 61.2013 12.0363V16.7388H58.6819ZM61.1813 3.31456V8.11179C61.1813 8.8598 61.2963 9.43826 61.5312 9.84717C61.7512 10.2461 62.0311 10.4456 62.356 10.4456C62.701 10.4456 62.9959 10.2212 63.2458 9.76738C63.4958 9.31359 63.6157 8.66531 63.6157 7.82256C63.6157 6.2667 63.4258 5.11976 63.0359 4.38671C62.651 3.65865 62.1161 3.28963 61.4313 3.28963C61.3485 3.30251 61.265 3.31083 61.1813 3.31456ZM71.9987 0.846136C70.579 0.846136 69.4643 1.58417 68.6495 3.06024C67.8397 4.55127 67.4348 6.50108 67.4348 8.91465C67.4348 11.413 67.8247 13.4027 68.6145 14.8738C69.3843 16.3499 70.514 17.0879 71.9987 17.0879C73.5083 17.0879 74.688 16.3149 75.5428 14.7691C76.3526 13.293 76.7625 11.3332 76.7625 8.8947C76.7625 6.48113 76.3426 4.53631 75.5028 3.06024C74.663 1.58417 73.4933 0.846136 71.9987 0.846136ZM69.7492 8.9346C69.7492 7.22914 69.9442 5.84283 70.3241 4.77567C70.694 3.70353 71.2488 3.16496 71.9987 3.16496C72.8235 3.16496 73.4183 3.7135 73.7882 4.79562C74.1181 5.74808 74.2831 7.11444 74.2831 8.8947C74.2831 10.6101 74.0931 12.0164 73.7082 13.1185C73.3233 14.2205 72.7585 14.7691 71.9987 14.7691C71.2638 14.7691 70.709 14.2105 70.3241 13.0985C69.9073 11.7508 69.7132 10.3445 69.7492 8.9346ZM80.8765 9.01937C80.8765 10.665 81.3264 12.0114 82.2361 13.0586C83.2109 14.1707 84.5756 14.7292 86.3351 14.7292V17.2175C83.7758 17.2175 81.7663 16.4346 80.3116 14.8738C78.922 13.3877 78.2271 11.4429 78.2271 9.03932C78.2271 6.55593 78.867 4.60612 80.1517 3.18989C81.5513 1.62905 83.6008 0.846136 86.2951 0.846136V3.3395C84.4956 3.3395 83.1209 3.88804 82.1762 4.98511C81.3064 5.98246 80.8765 7.32887 80.8765 9.02436V9.01937ZM90.3491 9.01937C90.3491 10.665 90.799 12.0114 91.7088 13.0586C92.6786 14.1707 94.0482 14.7292 95.8078 14.7292V17.2175C93.2484 17.2175 91.2389 16.4346 89.7843 14.8738C88.3946 13.3877 87.6998 11.4429 87.6998 9.03932C87.6998 6.55593 88.3396 4.60612 89.6193 3.18989C91.024 1.62905 93.0735 0.846136 95.7678 0.846136V3.3395C93.9683 3.3395 92.5936 3.88804 91.6488 4.98511C90.779 5.98246 90.3491 7.32887 90.3491 9.02436V9.01937ZM106.69 0.646667L107.325 16.7388H104.846L104.436 6.18193L100.272 10.3458L100.292 16.7388H97.8173V1.19521H100.292V6.93492L106.69 0.646667ZM118.702 0.646667L119.337 16.7388H116.858L116.443 6.18193L112.284 10.3458L112.304 16.7388H109.829V1.19521H112.304V6.93492L118.702 0.646667Z" fill="white"/>
</svg>
