<svg width="95" height="20" viewBox="0 0 95 20" fill="none" xmlns="http://www.w3.org/2000/svg">
<path fill-rule="evenodd" clip-rule="evenodd" d="M42.7421 0.644531H34.7866V2.71746H42.7421V0.644531ZM44.8209 19.1832H42.6835V8.70012L34.9061 19.1832H32.7095V5.32422H34.7874V15.8665L42.6835 5.32422H44.8209V19.1832ZM20.1831 17.1695H24.8139L25.6451 19.3016H17.1553L22.4392 5.32422H24.8139L30.0978 19.3016H27.8418L27.0106 17.1695L23.6266 8.10786L20.1831 17.1695ZM13.0582 17.1103V5.32422H10.9803V17.1103H2.60918V5.32422H0.53125V19.1832H6.52757H14.8987L15.7298 17.1103H13.0582ZM59.5443 11.1264V5.14453H61.6223V11.1264V13.1993V19.0627H59.485V13.1993H51.0545V19.0627H48.9766V13.1993V11.1264V5.14453H51.0545V11.1264H59.5443ZM69.6962 13.554H69.8149L65.481 19.0621H68.1526L72.4866 13.554H75.1582V19.0621H77.2361V5.20312H69.6368C68.5088 5.20312 67.4995 5.61771 66.7277 6.44688C65.9559 7.21682 65.481 8.2829 65.481 9.4082C65.481 10.5335 65.8965 11.5996 66.7277 12.3695C67.4995 13.1395 68.5682 13.554 69.6962 13.554ZM75.1582 11.4219V7.27605H69.6962C68.5682 7.27605 67.6183 8.22367 67.6183 9.34897C67.6183 10.4743 68.5682 11.4219 69.6962 11.4219H75.1582ZM80.6201 11.427C80.6201 7.75492 83.648 4.73438 87.3289 4.73438C91.0691 4.73438 94.0376 7.81415 94.0376 11.427V12.4338C94.0376 16.1058 91.0098 19.1264 87.3289 19.1264C83.648 19.1264 80.6201 16.1058 80.6201 12.4338V11.427ZM87.3289 17.1127C89.8818 17.1127 91.9597 15.0398 91.9597 12.493V11.4862C91.9597 8.93945 89.8818 6.86653 87.3289 6.86653C84.776 6.86653 82.6981 8.93945 82.6981 11.4862V12.493C82.6981 15.0398 84.776 17.1127 87.3289 17.1127Z" fill="white"/>
</svg>
