<svg width="132" height="16" viewBox="0 0 132 16" fill="none" xmlns="http://www.w3.org/2000/svg">
<path fill-rule="evenodd" clip-rule="evenodd" d="M123.024 10.8665L120.899 12.0903C121.676 14.3511 123.784 15.711 126.687 15.7279C128.276 15.7279 129.555 15.354 130.522 14.5721C131.507 13.7901 131.991 12.7193 131.991 11.3935C132.094 9.98258 131.248 8.97972 130.453 8.36779C130.229 8.18082 129.849 7.95982 129.365 7.77285C129.273 7.73634 129.186 7.70112 129.103 7.66746C128.76 7.52873 128.481 7.4163 128.259 7.34789C128 7.24598 127.585 7.11005 127.016 6.92314L127.015 6.92292C124.717 6.22603 123.991 5.71611 123.991 4.62819C123.991 3.50633 124.907 2.79239 126.341 2.79239C127.81 2.79239 128.863 3.48934 129.486 4.84919L131.559 3.67631C130.591 1.65355 128.743 0.429688 126.341 0.429688C125.011 0.429688 123.871 0.803621 122.937 1.58558C121.987 2.35049 121.521 3.37034 121.521 4.67922C121.521 6.00503 122.005 6.97396 122.972 7.65385C123.974 8.29977 124.682 8.57175 126.117 8.99671C127.395 9.37065 128.293 9.72764 128.777 10.0506C129.261 10.3566 129.52 10.7985 129.52 11.4105C129.52 12.5663 128.604 13.3482 126.738 13.3482C124.855 13.3482 123.629 12.5323 123.024 10.8665ZM4.56818 15.4508L0.556152 0.696296H3.18792L6.2705 12.0285L9.5742 0.695312L12.0275 0.696296L15.3427 12.0887L18.4392 0.699083L21.0709 0.695312L17.0571 15.4482L14.0066 15.4451L10.8018 4.42661L7.59404 15.4479L4.56818 15.4508ZM22.8857 0.703125H25.3905V15.4404H22.8857V0.703125ZM36.8447 13.1287H30.7458V0.703125H28.2925V15.4404H36.8447V13.1287ZM44.5522 0.720117C46.6082 0.720117 48.3187 1.43405 49.6663 2.84488C51.0312 4.25571 51.7223 6.00654 51.7223 8.08027C51.7223 10.1371 51.0312 11.8878 49.6663 13.3157C48.3187 14.7265 46.6082 15.4404 44.5522 15.4404H38.6606V0.703125H44.5522V0.720117ZM44.5522 13.1457C45.9689 13.1457 47.1265 12.6698 47.9904 11.7179C48.8888 10.766 49.338 9.54213 49.338 8.09726C49.338 6.61847 48.8888 5.42859 47.9904 4.47671C47.1093 3.52478 45.9517 3.04884 44.5522 3.04884H41.1313V13.1457H44.5522ZM63.6258 14.2406C64.5071 13.4413 64.9387 12.4379 64.9387 11.2304C64.9387 9.69976 64.144 8.4753 62.8312 7.79502C63.8329 7.0637 64.3515 6.07729 64.3515 4.78476C64.3515 3.62832 63.9369 2.6589 63.0727 1.87661C62.226 1.11132 61.1897 0.703125 59.9629 0.703125H54.0195V15.4481H60.4295C61.7078 15.4481 62.7446 15.0399 63.6258 14.2406ZM56.49 6.85964V2.98207H59.9799C61.0687 2.98207 61.8979 3.83238 61.8979 4.92086C61.8979 6.00927 61.0687 6.85964 59.9799 6.85964H56.49ZM62.4856 11.1114C62.4856 12.2678 61.5868 13.1692 60.4465 13.1692V13.1862H56.49V9.05352H60.4465C61.5868 9.05352 62.4856 9.95486 62.4856 11.1114ZM69.7236 13.1351H76.3583V15.4481H67.2705V0.703125H76.2548V3.01606H69.7236V6.84259H75.7191V9.13853H69.7236V13.1351ZM83.9261 10.0739L87.1055 15.4481H89.8176L86.4143 9.71675C88.1937 9.03647 89.386 7.3188 89.386 5.44804C89.386 4.12152 88.9019 2.99907 87.9692 2.09767C87.0534 1.16229 85.9131 0.703125 84.5653 0.703125H78.5703V15.4481H81.0234V10.0739H83.9261ZM81.0234 7.91401V2.98202H84.5483C85.8441 2.98202 86.8979 4.08748 86.8979 5.44804C86.8979 6.8256 85.8611 7.91401 84.5483 7.91401H81.0234ZM100.218 15.4479L97.056 10.071H94.1533V15.4479H91.7002V0.695312H97.6952C99.043 0.695312 100.183 1.15475 101.099 2.09062C102.032 2.99245 102.516 4.11546 102.516 5.44269C102.516 7.31443 101.324 9.03303 99.5442 9.71364L102.947 15.4479H100.218ZM94.1533 2.97541V7.90997H97.6782C98.991 7.90997 100.028 6.82095 100.028 5.44269C100.028 4.08147 98.974 2.97541 97.6782 2.97541H94.1533ZM107.198 0.695312H104.745V15.4463H107.198V0.695312ZM112.554 13.1351H119.189V15.448H110.101V0.703125H119.085V3.01606H112.554V6.84259H118.549V9.13853H112.554V13.1351Z" fill="white"/>
</svg>
