<svg width="131" height="19" viewBox="0 0 131 19" fill="none" xmlns="http://www.w3.org/2000/svg">
<path d="M7.92281 15.4518H10.5456V0.548828H6.73061C2.89395 0.548828 0.878068 2.50015 0.878068 5.37353C0.878068 7.66795 1.98355 9.01887 3.95608 10.4127L0.53125 15.4518H3.37081L7.18582 9.81225L5.86357 8.93309C4.25954 7.86094 3.4792 7.02465 3.4792 5.22343C3.4792 3.63664 4.60636 2.56449 6.7523 2.56449H7.92281V15.4518ZM58.4932 15.6662C59.6853 15.6662 60.5307 15.4518 61.1593 15.0015V12.9215C60.5091 13.3718 59.7287 13.6506 58.6448 13.6506C56.8024 13.6506 56.0438 12.2353 56.0438 10.0052C56.0438 7.66795 56.9758 6.46714 58.6666 6.46714C59.6637 6.46714 60.6391 6.81022 61.1593 7.13186V4.96612C60.6175 4.66591 59.6637 4.45148 58.3848 4.45148C55.0899 4.45148 53.3777 6.78878 53.3777 10.0696C53.3777 13.672 55.0467 15.6662 58.4932 15.6662ZM42.3661 14.7227V12.6427C41.5641 13.1788 40.2202 13.6506 38.9629 13.6506C37.0772 13.6506 36.3619 12.7714 36.2534 10.9702H42.4746V9.61926C42.4746 5.86673 40.8055 4.45148 38.2261 4.45148C35.0829 4.45148 33.5873 6.83167 33.5873 10.091C33.5873 13.8436 35.4514 15.6662 38.7462 15.6662C40.3937 15.6662 41.6075 15.2373 42.3661 14.7227ZM18.7392 4.66591V8.93309H15.2927V4.66591H12.7132V15.4518H15.2927V10.9487H18.7392V15.4518H21.3187V4.66591H18.7392ZM32.9588 13.4361H31.8099V4.66591H24.2882V5.58796C24.2882 8.22547 24.1148 11.6349 23.2045 13.4361H22.4024V17.9177H24.7868V15.4518H30.5744V17.9177H32.9588V13.4361ZM50.603 15.4518H53.5293L49.3893 9.64071L53.0308 4.66591H50.4298L46.7881 9.64071V4.66591H44.2086V15.4518H46.7881V10.1554L50.603 15.4518ZM38.1827 6.46714C39.4616 6.46714 39.8517 7.51784 39.8517 8.86875V9.08319H36.2534C36.3184 7.36774 36.9472 6.46714 38.1827 6.46714ZM29.2305 13.4361H25.5888C26.3041 11.8065 26.4992 8.86875 26.4992 7.00321V6.68157H29.2305V13.4361Z" fill="white"/>
<path d="M72.0535 15.4751H74.2211L77.2992 4.21756V15.4751H79.7702V0.572235H76.367L73.3108 11.5511L70.2977 0.572235H66.8296V15.4751H68.9755V4.21756L72.0535 15.4751Z" fill="white"/>
<path d="M90.0935 8.12001C90.0935 5.50396 88.7496 4.51758 86.0185 4.51758C84.3061 4.51758 82.9621 5.05365 82.1818 5.50396V7.62683C82.8753 7.11218 84.3927 6.55467 85.715 6.55467C86.9505 6.55467 87.5141 6.98353 87.5141 8.14146V8.74187H87.1022C83.1572 8.74187 81.4014 10.0284 81.4014 12.2156C81.4014 14.4028 82.7453 15.625 84.7396 15.625C86.257 15.625 86.9071 15.1319 87.4057 14.6173H87.5141C87.5357 14.896 87.6225 15.2605 87.7091 15.4749H90.2236C90.1369 14.5958 90.0935 13.7166 90.0935 12.8375V8.12001ZM87.5141 12.9018C87.189 13.3736 86.582 13.7595 85.6716 13.7595C84.5878 13.7595 84.046 13.1162 84.046 12.1513C84.046 10.8862 84.9346 10.4359 87.1456 10.4359H87.5141V12.9018Z" fill="white"/>
<path d="M94.5533 4.68904H92.1689V18.5841H94.7486V14.2098C95.3987 15.1747 96.3526 15.6893 97.458 15.6893C99.9725 15.6893 101.707 13.6951 101.707 10.0713C101.707 6.46882 100.016 4.47461 97.5881 4.47461C96.3742 4.47461 95.3771 5.03213 94.6834 6.08285L94.5533 4.68904ZM96.8077 13.6737C95.4421 13.6737 94.7486 12.5801 94.7486 10.0927C94.7486 7.58386 95.4855 6.49027 96.9377 6.49027C98.3467 6.49027 99.0404 7.58386 99.0404 10.0713C99.0404 12.5801 98.3034 13.6737 96.8077 13.6737Z" fill="white"/>
<path d="M109.825 15.4753H112.751L108.611 9.66425L112.252 4.68945H109.651L106.01 9.66425V4.68945H103.43V15.4753H106.01V10.1789L109.825 15.4753Z" fill="white"/>
<path d="M121.427 14.7458V12.6659C120.625 13.2019 119.281 13.6737 118.024 13.6737C116.138 13.6737 115.423 12.7945 115.315 10.9933H121.536V9.64239C121.536 5.88986 119.867 4.47461 117.287 4.47461C114.144 4.47461 112.648 6.8548 112.648 10.1141C112.648 13.8667 114.513 15.6893 117.807 15.6893C119.455 15.6893 120.669 15.2604 121.427 14.7458ZM117.244 6.49027C118.523 6.49027 118.913 7.54097 118.913 8.89189V9.10632H115.315C115.38 7.39087 116.008 6.49027 117.244 6.49027Z" fill="white"/>
<path d="M130.714 6.7051V4.68945H122.065V6.7051H125.1V15.4753H127.679V6.7051H130.714Z" fill="white"/>
</svg>
