<svg width="16" height="16" viewBox="0 0 16 13" fill="none" xmlns="http://www.w3.org/2000/svg">
<g id="Group 337827">
<g id="Group 337357">
<g id="Vector 2465">
<path d="M12.6979 11.2866C11.1103 11.5417 10.0334 11.9705 8.51015 12.937V2.5013C9.91707 0.967983 11.2615 0.118762 13.3596 0.0115878C13.6161 -0.00151876 13.8249 0.208268 13.8249 0.46518V10.004C13.8249 10.6499 13.3357 11.1841 12.6979 11.2866Z" fill="white"/>
<path d="M14.1252 12.1932C13.0416 12.2651 12.2657 12.4385 11.0649 12.937H15.4019C15.7322 12.937 16 12.6692 16 12.3389V2.23839C16 1.90807 15.7322 1.6403 15.4019 1.6403H15.0304V11.2485C15.0304 11.7526 14.6282 12.1599 14.1252 12.1932Z" fill="white"/>
</g>
<g id="Vector 2466">
<path d="M3.30209 11.2866C4.88974 11.5417 5.96662 11.9705 7.48985 12.937V2.5013C6.08293 0.967983 4.73851 0.118762 2.64043 0.0115878C2.38385 -0.00151876 2.17513 0.208268 2.17513 0.46518V10.004C2.17513 10.6499 2.66433 11.1841 3.30209 11.2866Z" fill="white"/>
<path d="M1.87483 12.1932C2.95841 12.2651 3.73434 12.4385 4.93509 12.937H0.598089C0.267774 12.937 0 12.6692 0 12.3389V2.23839C0 1.90807 0.267774 1.6403 0.598089 1.6403H0.969576V11.2485C0.969576 11.7526 1.3718 12.1599 1.87483 12.1932Z" fill="white"/>
</g>
</g>
</g>
</svg>
