<svg width="16" height="16" viewBox="0 0 14 16" fill="none" xmlns="http://www.w3.org/2000/svg">
<g id="Group 337818">
<g id="Group 337384">
<g id="Group">
<path id="Vector" d="M10.9634 1.60355H9.68108L9.28001 0.448686C9.18625 0.180817 8.93181 0 8.6438 0H5.15479C4.86682 0 4.61234 0.180817 4.51857 0.448686L4.12234 1.60355H2.84193C1.49506 1.60355 0.408203 2.69708 0.408203 4.03732V11.9387C0.408203 13.1722 1.32169 14.1924 2.50854 14.3524C2.50923 14.3525 2.50997 14.3524 2.51066 14.3526L2.05334 14.907C1.81791 15.1921 1.85845 15.6143 2.14357 15.8497C2.42789 16.0841 2.84969 16.0457 3.08664 15.7591L4.22494 14.3791H9.5771L10.7154 15.7591C10.952 16.0453 11.3738 16.0844 11.6584 15.8497C11.9436 15.6143 11.9841 15.1921 11.7487 14.907L11.2916 14.3528C11.2933 14.3525 11.2951 14.3527 11.2968 14.3524C12.4836 14.1924 13.3971 13.1722 13.3971 11.9387V4.03732C13.3971 2.69708 12.3102 1.60355 10.9634 1.60355ZM3.8288 12.4387C3.36204 12.4387 2.98864 12.0654 2.98864 11.6053C2.98864 11.1385 3.36204 10.7651 3.8288 10.7651C4.28888 10.7651 4.66227 11.1385 4.66227 11.6053C4.66227 12.0654 4.28888 12.4387 3.8288 12.4387ZM9.98318 12.4387C9.5231 12.4387 9.14303 12.0654 9.14303 11.6053C9.14303 11.1385 9.5231 10.7651 9.98318 10.7651C10.4499 10.7651 10.8167 11.1385 10.8167 11.6053C10.8167 12.0654 10.4499 12.4387 9.98318 12.4387ZM11.3901 8.27136C11.3901 8.70479 11.0367 9.05816 10.5966 9.05816H3.20869C2.7686 9.05816 2.41522 8.70479 2.41522 8.27136V4.40404C2.41522 3.96394 2.7686 3.61057 3.20869 3.61057H10.5966C11.0367 3.61057 11.3901 3.96394 11.3901 4.40404V8.27136Z" fill="white"/>
</g>
</g>
</g>
</svg>
