<svg xmlns="http://www.w3.org/2000/svg" width="134" height="43" viewBox="0 0 134 43" fill="none">
    <path d="M0 42.9805L133.213 42.8998V5.09483L22.1475 5.10331L17.6748 0.433167L13 5.11242L0 5.17552L0 42.9805Z" fill="#586267"/>
    <path d="M16.9492 33.1373V30.6844H18.0574C18.4698 30.1838 18.7017 29.4246 18.7533 28.4067L19.3976 15.6164H27.3354V30.6844H28.5724V33.1373H16.9492ZM21.5367 28.3566C21.4679 29.4746 21.282 30.0595 20.8716 30.6844H24.4489V18.1194H22.0521L21.5367 28.3566Z" fill="#FEFEFE"/>
    <path d="M34.3269 15.6164C37.1446 15.6164 38.5535 17.0598 38.5535 19.9466V22.2243C38.5535 25.1111 37.1446 26.5545 34.3269 26.5545H32.9867V33.1373H30.1518V15.6164H34.3269ZM32.9867 18.1194V24.0515H34.3269C35.2547 24.0515 35.7186 23.5008 35.7186 22.3995V19.7714C35.7186 18.6701 35.2547 18.1194 34.3269 18.1194H32.9867Z" fill="#FEFEFE"/>
    <path d="M46.1551 28.682C45.7943 30.384 45.253 31.5521 44.5314 32.1862C43.6723 32.9538 42.3064 33.2792 40.4337 33.1624V30.7094C41.2068 30.7595 41.7738 30.6927 42.1346 30.5092C42.5641 30.2923 42.8305 29.8834 42.9335 29.2827L42.9593 29.1326L39.042 15.6164H41.8511L43.3974 21.5986L44.2737 25.7035L44.9438 21.6236L46.2324 15.6164H49.1962L46.1551 28.682Z" fill="#FEFEFE"/>
    <path d="M58.5567 22.6999L61.9071 15.6164H64.742L61.2628 22.7249L64.742 33.1373H61.8297L59.2525 25.3781L58.5567 26.7047V33.1373H55.7475V26.7047L55.0517 25.353L52.4745 33.1373H49.5622L53.0672 22.8L49.5622 15.6164H52.3972L55.7475 22.6999V15.6164H58.5567V22.6999Z" fill="#FEFEFE"/>
    <path d="M68.7757 23.0002H72.6673V25.5032H68.7757V30.6343H73.6724V33.1373H65.9408V15.6164H73.6724V18.1194H68.7757V23.0002Z" fill="#FEFEFE"/>
    <path d="M83.6505 26.6045V28.9323C83.6505 31.8692 82.2416 33.3376 79.4238 33.3376C76.6061 33.3376 75.1972 31.8692 75.1972 28.9323V19.8214C75.1972 16.8846 76.6061 15.4162 79.4238 15.4162C82.2416 15.4162 83.6505 16.8846 83.6505 19.8214V21.5235H80.9702V19.6462C80.9702 18.4949 80.4805 17.9192 79.5012 17.9192C78.5218 17.9192 78.0322 18.4949 78.0322 19.6462V29.1075C78.0322 30.2422 78.5218 30.8096 79.5012 30.8096C80.4805 30.8096 80.9702 30.2422 80.9702 29.1075V26.6045H83.6505Z" fill="#FEFEFE"/>
    <path d="M89.0817 26.154L88.2055 27.7559V33.1373H85.3706V15.6164H88.2055V23.2505L91.9167 15.6164H94.7516L90.8085 23.4257L94.7516 33.1373H91.8394L89.0817 26.154Z" fill="#FEFEFE"/>
    <path d="M98.9541 33.1373H96.0418V15.6164H98.5675V26.7047L99.5984 22.8501L101.918 15.6164H105.036V33.1373H102.485V20.7976L101.325 25.1027L98.9541 33.1373Z" fill="#FEFEFE"/>
    <path d="M112.324 25.1027L109.953 33.1373H107.04V15.6164H109.566V26.7047L110.597 22.8501L112.916 15.6164H116.035V33.1373H113.483V20.7976L112.324 25.1027Z" fill="#FEFEFE"/>
    <path fill-rule="evenodd" clip-rule="evenodd" d="M114.834 12.9825C112.753 14.3343 110.424 14.3404 108.37 12.9775L109.423 11.4855C110.835 12.4229 112.337 12.4289 113.797 11.4805L114.834 12.9825Z" fill="#FEFEFE"/>
</svg>