<svg xmlns="http://www.w3.org/2000/svg" width="200" height="64" viewBox="0 0 200 64" fill="none">
    <path d="M0 63.7109L199.473 63.5901V6.98131L174.5 6.99401L167 0.000976562L160 7.00764L0 7.10213L0 63.7109Z" fill="#586267"/>
    <path d="M25.3789 48.9718V45.2988H27.0383C27.6558 44.5492 28.0031 43.4123 28.0803 41.8881L29.045 22.7361H40.9311V45.2988H42.7834V48.9718H25.3789ZM32.2481 41.8132C32.1452 43.4873 31.8668 44.363 31.2522 45.2988H36.6089V26.4841H33.0199L32.2481 41.8132Z" fill="#FEFEFE"/>
    <path d="M51.4001 22.7361C55.6193 22.7361 57.729 24.8974 57.729 29.2201V32.6307C57.729 36.9533 55.6193 39.1147 51.4001 39.1147H49.3933V48.9718H45.1483V22.7361H51.4001ZM49.3933 26.4841V35.3667H51.4001C52.7893 35.3667 53.484 34.5422 53.484 32.8931V28.9577C53.484 27.3086 52.7893 26.4841 51.4001 26.4841H49.3933Z" fill="#FEFEFE"/>
    <path d="M69.1115 42.3004C68.5712 44.849 67.7608 46.5981 66.6803 47.5475C65.3939 48.6969 63.3486 49.1842 60.5443 49.0092V45.3363C61.702 45.4112 62.551 45.3113 63.0913 45.0364C63.7345 44.7116 64.1333 44.0994 64.2876 43.1999L64.3262 42.975L58.4604 22.7361H62.6668L64.9823 31.6937L66.2943 37.8404L67.2977 31.7312L69.2273 22.7361H73.6652L69.1115 42.3004Z" fill="#FEFEFE"/>
    <path d="M87.6816 33.3428L92.6984 22.7361H96.9434L91.7336 33.3803L96.9434 48.9718H92.5826L88.7235 37.3531L87.6816 39.3395V48.9718H83.4752V39.3395L82.4332 37.3156L78.5741 48.9718H74.2133L79.4617 33.4927L74.2133 22.7361H78.4583L83.4752 33.3428V22.7361H87.6816V33.3428Z" fill="#FEFEFE"/>
    <path d="M102.983 33.7926H108.811V37.5405H102.983V45.2238H110.316V48.9718H98.7385V22.7361H110.316V26.4841H102.983V33.7926Z" fill="#FEFEFE"/>
    <path d="M125.257 39.1896V42.6752C125.257 47.0728 123.147 49.2716 118.928 49.2716C114.709 49.2716 112.599 47.0728 112.599 42.6752V29.0327C112.599 24.6351 114.709 22.4363 118.928 22.4363C123.147 22.4363 125.257 24.6351 125.257 29.0327V31.5813H121.243V28.7703C121.243 27.0463 120.51 26.1842 119.044 26.1842C117.577 26.1842 116.844 27.0463 116.844 28.7703V42.9376C116.844 44.6366 117.577 45.4862 119.044 45.4862C120.51 45.4862 121.243 44.6366 121.243 42.9376V39.1896H125.257Z" fill="#FEFEFE"/>
    <path d="M133.39 38.515L132.077 40.9137V48.9718H127.832V22.7361H132.077V34.1674L137.635 22.7361H141.88L135.975 34.4297L141.88 48.9718H137.519L133.39 38.515Z" fill="#FEFEFE"/>
    <path d="M148.172 48.9718H143.811V22.7361H147.593V39.3395L149.137 33.5677L152.61 22.7361H157.28V48.9718H153.459V30.4944L151.723 36.9408L148.172 48.9718Z" fill="#FEFEFE"/>
    <path d="M168.192 36.9408L164.641 48.9718H160.28V22.7361H164.062V39.3395L165.606 33.5677L169.079 22.7361H173.749V48.9718H169.928V30.4944L168.192 36.9408Z" fill="#FEFEFE"/>
    <path fill-rule="evenodd" clip-rule="evenodd" d="M171.951 18.7921C168.835 20.8163 165.347 20.8254 162.272 18.7846L163.848 16.5504C165.963 17.9541 168.212 17.9632 170.398 16.543L171.951 18.7921Z" fill="#FEFEFE"/>
</svg>