<svg width="16" height="16" viewBox="0 0 12 19" fill="none" xmlns="http://www.w3.org/2000/svg">
<g id="Group 337816">
<path id="Union" fill-rule="evenodd" clip-rule="evenodd" d="M2.60419 5.55661C1.093 6.04501 0 7.46351 0 9.13729C0 11.2151 1.68443 12.8996 3.76229 12.8996C4.3123 12.8996 4.83476 12.7815 5.3057 12.5694V17.1337H2.14941V18.3457H5.3057H5.9117H9.67399V17.1337H6.5177V12.569C6.9889 12.7814 7.51169 12.8996 8.06209 12.8996C10.1399 12.8996 11.8244 11.2151 11.8244 9.13729C11.8244 7.46329 10.7311 6.04465 9.2196 5.55643C9.50947 5.02314 9.67413 4.41194 9.67413 3.76229C9.67413 1.68443 7.9897 0 5.91185 0C3.83399 0 2.14956 1.68443 2.14956 3.76229C2.14956 4.41202 2.31426 5.02328 2.60419 5.55661Z" fill="white"/>
</g>
</svg>
