<svg xmlns="http://www.w3.org/2000/svg" width="777" height="643" viewBox="0 0 777 643" fill="none">
<path opacity="0.2" fill-rule="evenodd" clip-rule="evenodd" d="M53.4147 276.807C261.989 186.065 401.071 126.242 470.661 97.339C669.354 14.8139 710.641 0.478414 737.551 0.00504715C743.47 -0.0990646 756.703 1.36565 765.276 8.31142C772.514 14.1763 774.505 22.0989 775.458 27.6595C776.411 33.22 777.598 45.8871 776.655 55.7848C765.887 168.755 719.297 442.905 695.595 569.434C685.566 622.973 665.818 640.925 646.7 642.681C605.151 646.499 573.601 615.263 533.359 588.921C470.388 547.702 434.814 522.043 373.69 481.821C303.051 435.338 348.843 409.79 389.1 368.037C399.636 357.11 582.7 190.837 586.243 175.754C586.686 173.867 587.098 166.836 582.914 163.123C578.731 159.41 572.556 160.679 568.101 161.689C561.785 163.12 461.189 229.516 266.311 360.875C237.758 380.454 211.894 389.994 188.722 389.494C163.176 388.943 114.035 375.07 77.5048 363.213C32.6985 348.669 -2.9127 340.979 0.188236 316.279C1.80339 303.414 19.5455 290.257 53.4147 276.807Z" fill="white"/>
</svg>