<svg width="95" height="78" viewBox="0 0 95 78" fill="none" xmlns="http://www.w3.org/2000/svg">
<g filter="url(#filter0_d_3736_916)">
<mask id="path-1-outside-1_3736_916" maskUnits="userSpaceOnUse" x="1.49414" y="0.326172" width="92" height="76" fill="black">
<rect fill="white" x="1.49414" y="0.326172" width="92" height="76"/>
<path fill-rule="evenodd" clip-rule="evenodd" d="M32.987 5.20204H39.2019V19.7052L42.893 24.2736H85.9445C88.6986 24.2736 90.9312 26.5062 90.9312 29.2603V68.3232C90.9312 71.0774 88.6986 73.31 85.9445 73.31H9.4809C6.72679 73.31 4.49414 71.0774 4.49414 68.3233V29.2603C4.49414 26.5062 6.72679 24.2736 9.48089 24.2736H10.6589L26.7769 4.32617L32.987 12.0133V5.20204Z"/>
</mask>
<path fill-rule="evenodd" clip-rule="evenodd" d="M32.987 5.20204H39.2019V19.7052L42.893 24.2736H85.9445C88.6986 24.2736 90.9312 26.5062 90.9312 29.2603V68.3232C90.9312 71.0774 88.6986 73.31 85.9445 73.31H9.4809C6.72679 73.31 4.49414 71.0774 4.49414 68.3233V29.2603C4.49414 26.5062 6.72679 24.2736 9.48089 24.2736H10.6589L26.7769 4.32617L32.987 12.0133V5.20204Z" fill="url(#paint0_linear_3736_916)"/>
<path d="M39.2019 5.20204H41.2797V3.12423H39.2019V5.20204ZM32.987 5.20204V3.12423H30.9092V5.20204H32.987ZM39.2019 19.7052H37.1241V20.4398L37.5857 21.0111L39.2019 19.7052ZM42.893 24.2736L41.2769 25.5794L41.9006 26.3514H42.893V24.2736ZM10.6589 24.2736V26.3514H11.6514L12.2751 25.5795L10.6589 24.2736ZM26.7769 4.32617L28.3932 3.02044L26.7771 1.01994L25.1607 3.02028L26.7769 4.32617ZM32.987 12.0133L31.3708 13.319L35.0649 17.8917V12.0133H32.987ZM39.2019 3.12423H32.987V7.27986H39.2019V3.12423ZM41.2797 19.7052V5.20204H37.1241V19.7052H41.2797ZM44.5092 22.9677L40.8181 18.3994L37.5857 21.0111L41.2769 25.5794L44.5092 22.9677ZM42.893 26.3514H85.9445V22.1958H42.893V26.3514ZM85.9445 26.3514C87.551 26.3514 88.8534 27.6538 88.8534 29.2603H93.009C93.009 25.3587 89.8461 22.1958 85.9445 22.1958V26.3514ZM88.8534 29.2603V68.3232H93.009V29.2603H88.8534ZM88.8534 68.3232C88.8534 69.9298 87.551 71.2322 85.9445 71.2322V75.3878C89.8461 75.3878 93.009 72.2249 93.009 68.3232H88.8534ZM85.9445 71.2322H9.4809V75.3878H85.9445V71.2322ZM9.4809 71.2322C7.87434 71.2322 6.57195 69.9298 6.57195 68.3233H2.41633C2.41633 72.2249 5.57924 75.3878 9.4809 75.3878V71.2322ZM6.57195 68.3233V29.2603H2.41633V68.3233H6.57195ZM6.57195 29.2603C6.57195 27.6538 7.87433 26.3514 9.48089 26.3514V22.1958C5.57924 22.1958 2.41633 25.3587 2.41633 29.2603H6.57195ZM9.48089 26.3514H10.6589V22.1958H9.48089V26.3514ZM25.1607 3.02028L9.04277 22.9677L12.2751 25.5795L28.3931 5.63206L25.1607 3.02028ZM34.6033 10.7076L28.3932 3.02044L25.1606 5.6319L31.3708 13.319L34.6033 10.7076ZM30.9092 5.20204V12.0133H35.0649V5.20204H30.9092Z" fill="white" mask="url(#path-1-outside-1_3736_916)"/>
</g>
<path d="M16.9677 36.9219H15.4386V29.9312H13.21C13.1573 30.9543 13.0821 31.8401 12.9843 32.5887C12.8902 33.3334 12.7755 33.9691 12.6401 34.4957C12.5084 35.0186 12.3561 35.4436 12.1831 35.7709C12.0138 36.0981 11.8276 36.3539 11.6245 36.5382C11.4214 36.7188 11.2032 36.8429 10.97 36.9106C10.7368 36.9745 10.4923 37.0065 10.2365 37.0065C9.9657 37.0065 9.76822 36.9821 9.64409 36.9332C9.51996 36.8843 9.4579 36.8128 9.4579 36.7188V35.7709H9.89235C9.99015 35.7709 10.0879 35.7596 10.1857 35.737C10.2873 35.7144 10.387 35.6674 10.4848 35.596C10.5863 35.5207 10.6841 35.4135 10.7782 35.2744C10.876 35.1352 10.9681 34.949 11.0546 34.7158C11.1449 34.4788 11.2277 34.1892 11.3029 33.8469C11.3819 33.5046 11.4515 33.0927 11.5117 32.6112C11.5756 32.1298 11.6301 31.5731 11.6753 30.9412C11.7242 30.3055 11.7599 29.5795 11.7825 28.7633H16.9677V36.9219ZM23.6799 31.133V36.9219H22.2863V33.5422C22.2863 33.4557 22.2901 33.3617 22.2976 33.2601C22.3089 33.1548 22.322 33.0495 22.3371 32.9441C22.2618 33.1172 22.1791 33.2695 22.0888 33.4011C22.0813 33.4087 22.0437 33.4613 21.976 33.5591C21.9083 33.6532 21.8199 33.7754 21.7108 33.9259C21.6055 34.0763 21.4851 34.2475 21.3497 34.4393C21.2143 34.6274 21.077 34.8192 20.9378 35.0148C20.6106 35.4775 20.2401 36.0003 19.8263 36.5833C19.7736 36.6623 19.7041 36.7394 19.6175 36.8147C19.5348 36.8899 19.4389 36.9275 19.3298 36.9275H18.4778V31.1386H19.8714V34.5183C19.8714 34.6048 19.8658 34.7007 19.8545 34.8061C19.847 34.9076 19.8357 35.0111 19.8207 35.1164C19.9034 34.9321 19.9862 34.7797 20.0689 34.6594C20.0727 34.6518 20.1084 34.6011 20.1761 34.507C20.2438 34.413 20.3303 34.2907 20.4357 34.1403C20.5447 33.9898 20.667 33.8206 20.8024 33.6325C20.9378 33.4406 21.0751 33.245 21.2143 33.0457C21.5415 32.583 21.9139 32.0602 22.3314 31.4772C22.3841 31.3944 22.4537 31.3173 22.5402 31.2458C22.6267 31.1706 22.7245 31.133 22.8336 31.133H23.6799ZM28.916 35.9288V32.1994H27.4941C27.4565 32.6846 27.4095 33.1228 27.3531 33.514C27.2966 33.9014 27.2308 34.2475 27.1556 34.5522C27.0804 34.8568 26.9976 35.122 26.9073 35.3477C26.8208 35.5734 26.7268 35.7671 26.6252 35.9288H28.916ZM31.3308 35.8894V38.4453C31.3308 38.5732 31.2932 38.6747 31.218 38.7499C31.1465 38.8252 31.0525 38.8628 30.9359 38.8628H30.067V36.9219H25.7338V38.4678C25.7338 38.5656 25.7018 38.6559 25.6378 38.7387C25.5777 38.8214 25.4817 38.8628 25.3501 38.8628H24.4699V35.9288H24.6335C24.7652 35.9288 24.8931 35.9119 25.0172 35.8781C25.1413 35.8405 25.2598 35.7652 25.3727 35.6524C25.4893 35.5395 25.5983 35.3778 25.6999 35.1672C25.8052 34.9528 25.8993 34.6688 25.982 34.3152C26.0648 33.9578 26.1362 33.5196 26.1964 33.0006C26.2604 32.4815 26.3111 31.859 26.3488 31.133H30.2701V35.8894H31.3308ZM35.8389 33.3617C35.8389 33.1811 35.8126 33.0118 35.7599 32.8539C35.711 32.6921 35.6358 32.5511 35.5342 32.4307C35.4327 32.3103 35.3029 32.2163 35.1449 32.1486C34.9907 32.0771 34.8102 32.0414 34.6033 32.0414C34.2008 32.0414 33.883 32.1561 33.6498 32.3856C33.4203 32.615 33.2736 32.9404 33.2097 33.3617H35.8389ZM33.1814 34.2023C33.204 34.4995 33.2567 34.7572 33.3394 34.9753C33.4222 35.1897 33.5313 35.3684 33.6667 35.5113C33.8021 35.6505 33.962 35.7558 34.1463 35.8273C34.3343 35.895 34.5412 35.9288 34.7669 35.9288C34.9926 35.9288 35.1863 35.9025 35.3481 35.8499C35.5136 35.7972 35.6565 35.7389 35.7769 35.675C35.901 35.611 36.0082 35.5527 36.0985 35.5C36.1925 35.4474 36.2828 35.4211 36.3693 35.4211C36.4859 35.4211 36.5724 35.4643 36.6288 35.5508L37.0294 36.0586C36.8752 36.2392 36.7022 36.3915 36.5103 36.5156C36.3185 36.636 36.1173 36.7338 35.9066 36.809C35.6997 36.8805 35.4872 36.9313 35.2691 36.9614C35.0547 36.9915 34.8459 37.0065 34.6428 37.0065C34.2403 37.0065 33.866 36.9407 33.52 36.809C33.1739 36.6736 32.873 36.4761 32.6172 36.2166C32.3615 35.9533 32.1602 35.6298 32.0135 35.2461C31.8668 34.8587 31.7935 34.4111 31.7935 33.9033C31.7935 33.5084 31.8574 33.1378 31.9853 32.7918C32.1132 32.442 32.2956 32.1392 32.5326 31.8834C32.7733 31.6239 33.0648 31.4189 33.4071 31.2684C33.7532 31.1179 34.1425 31.0427 34.5751 31.0427C34.9399 31.0427 35.2766 31.101 35.585 31.2176C35.8935 31.3342 36.1586 31.5054 36.3806 31.7311C36.6025 31.953 36.7755 32.2276 36.8997 32.5548C37.0275 32.8783 37.0915 33.2488 37.0915 33.6663C37.0915 33.877 37.0689 34.0199 37.0238 34.0951C36.9786 34.1666 36.8921 34.2023 36.7642 34.2023H33.1814ZM39.5309 35.4211C39.6889 35.6129 39.8601 35.7483 40.0444 35.8273C40.2325 35.9063 40.4356 35.9458 40.6537 35.9458C40.8644 35.9458 41.0543 35.9063 41.2236 35.8273C41.3929 35.7483 41.5358 35.6279 41.6524 35.4662C41.7728 35.3044 41.8649 35.1013 41.9289 34.8568C41.9928 34.6086 42.0248 34.3171 42.0248 33.9823C42.0248 33.6438 41.9966 33.3579 41.9402 33.1247C41.8875 32.8877 41.8104 32.6959 41.7088 32.5492C41.6073 32.4025 41.4831 32.2953 41.3364 32.2276C41.1935 32.1599 41.0299 32.126 40.8456 32.126C40.5559 32.126 40.3096 32.1881 40.1064 32.3122C39.9033 32.4326 39.7115 32.6037 39.5309 32.8256V35.4211ZM39.4576 31.9229C39.6946 31.6558 39.9635 31.4395 40.2644 31.274C40.5653 31.1085 40.9189 31.0258 41.3252 31.0258C41.6411 31.0258 41.9289 31.0916 42.1884 31.2233C42.4517 31.3549 42.6774 31.5468 42.8655 31.7988C43.0573 32.047 43.204 32.3555 43.3056 32.7241C43.4109 33.0889 43.4635 33.5084 43.4635 33.9823C43.4635 34.4149 43.4052 34.8155 43.2886 35.1841C43.172 35.5527 43.0046 35.8724 42.7865 36.1433C42.5721 36.4141 42.3107 36.6266 42.0022 36.7808C41.6975 36.9313 41.3552 37.0065 40.9753 37.0065C40.6519 37.0065 40.3754 36.9576 40.1459 36.8598C39.9165 36.7583 39.7115 36.6191 39.5309 36.4423V38.812H38.1373V31.133H38.9893C39.1698 31.133 39.2883 31.2176 39.3447 31.3869L39.4576 31.9229ZM51.4308 32.3573C51.3895 32.41 51.3481 32.4514 51.3067 32.4815C51.2691 32.5116 51.2127 32.5266 51.1375 32.5266C51.066 32.5266 50.9964 32.5059 50.9287 32.4645C50.861 32.4194 50.7801 32.3705 50.6861 32.3178C50.592 32.2614 50.4792 32.2125 50.3475 32.1712C50.2197 32.126 50.0598 32.1034 49.868 32.1034C49.6235 32.1034 49.4091 32.1486 49.2247 32.2389C49.0404 32.3254 48.8862 32.4514 48.7621 32.6169C48.6417 32.7824 48.5514 32.9836 48.4913 33.2206C48.4311 33.4538 48.401 33.719 48.401 34.0161C48.401 34.3246 48.433 34.5992 48.4969 34.8399C48.5646 35.0806 48.6605 35.2838 48.7847 35.4493C48.9088 35.611 49.0592 35.7351 49.236 35.8216C49.4128 35.9044 49.6122 35.9458 49.8341 35.9458C50.056 35.9458 50.2347 35.9194 50.3701 35.8668C50.5093 35.8104 50.6259 35.7502 50.7199 35.6862C50.814 35.6185 50.8948 35.5583 50.9625 35.5057C51.034 35.4493 51.113 35.4211 51.1995 35.4211C51.3124 35.4211 51.397 35.4643 51.4534 35.5508L51.854 36.0586C51.6998 36.2392 51.5324 36.3915 51.3519 36.5156C51.1713 36.636 50.9832 36.7338 50.7876 36.809C50.5958 36.8805 50.3964 36.9313 50.1896 36.9614C49.9864 36.9915 49.7833 37.0065 49.5802 37.0065C49.2229 37.0065 48.8862 36.9407 48.5703 36.809C48.2543 36.6736 47.9778 36.478 47.7409 36.2222C47.5039 35.9665 47.3158 35.6543 47.1766 35.2856C47.0412 34.9133 46.9735 34.4901 46.9735 34.0161C46.9735 33.5911 47.0337 33.198 47.1541 32.8369C47.2782 32.4721 47.4587 32.158 47.6957 31.8947C47.9327 31.6276 48.2261 31.4189 48.5759 31.2684C48.9257 31.1179 49.3282 31.0427 49.7833 31.0427C50.2159 31.0427 50.5939 31.1123 50.9174 31.2515C51.2447 31.3906 51.538 31.59 51.7976 31.8495L51.4308 32.3573ZM54.1213 35.4211C54.2793 35.6129 54.4504 35.7483 54.6347 35.8273C54.8228 35.9063 55.0259 35.9458 55.2441 35.9458C55.4547 35.9458 55.6447 35.9063 55.8139 35.8273C55.9832 35.7483 56.1261 35.6279 56.2427 35.4662C56.3631 35.3044 56.4553 35.1013 56.5192 34.8568C56.5832 34.6086 56.6151 34.3171 56.6151 33.9823C56.6151 33.6438 56.5869 33.3579 56.5305 33.1247C56.4778 32.8877 56.4007 32.6959 56.2992 32.5492C56.1976 32.4025 56.0735 32.2953 55.9268 32.2276C55.7839 32.1599 55.6202 32.126 55.4359 32.126C55.1463 32.126 54.8999 32.1881 54.6968 32.3122C54.4937 32.4326 54.3018 32.6037 54.1213 32.8256V35.4211ZM54.0479 31.9229C54.2849 31.6558 54.5539 31.4395 54.8548 31.274C55.1557 31.1085 55.5093 31.0258 55.9155 31.0258C56.2315 31.0258 56.5192 31.0916 56.7788 31.2233C57.0421 31.3549 57.2677 31.5468 57.4558 31.7988C57.6477 32.047 57.7944 32.3555 57.8959 32.7241C58.0012 33.0889 58.0539 33.5084 58.0539 33.9823C58.0539 34.4149 57.9956 34.8155 57.879 35.1841C57.7624 35.5527 57.595 35.8724 57.3768 36.1433C57.1624 36.4141 56.901 36.6266 56.5926 36.7808C56.2879 36.9313 55.9456 37.0065 55.5657 37.0065C55.2422 37.0065 54.9657 36.9576 54.7363 36.8598C54.5068 36.7583 54.3018 36.6191 54.1213 36.4423V38.812H52.7277V31.133H53.5796C53.7602 31.133 53.8787 31.2176 53.9351 31.3869L54.0479 31.9229ZM62.8597 33.3617C62.8597 33.1811 62.8334 33.0118 62.7807 32.8539C62.7318 32.6921 62.6566 32.5511 62.555 32.4307C62.4535 32.3103 62.3237 32.2163 62.1657 32.1486C62.0115 32.0771 61.831 32.0414 61.6241 32.0414C61.2216 32.0414 60.9038 32.1561 60.6705 32.3856C60.4411 32.615 60.2944 32.9404 60.2305 33.3617H62.8597ZM60.2022 34.2023C60.2248 34.4995 60.2775 34.7572 60.3602 34.9753C60.443 35.1897 60.5521 35.3684 60.6875 35.5113C60.8229 35.6505 60.9827 35.7558 61.1671 35.8273C61.3551 35.895 61.562 35.9288 61.7877 35.9288C62.0134 35.9288 62.2071 35.9025 62.3688 35.8499C62.5343 35.7972 62.6773 35.7389 62.7976 35.675C62.9218 35.611 63.029 35.5527 63.1193 35.5C63.2133 35.4474 63.3036 35.4211 63.3901 35.4211C63.5067 35.4211 63.5932 35.4643 63.6496 35.5508L64.0502 36.0586C63.896 36.2392 63.723 36.3915 63.5311 36.5156C63.3393 36.636 63.1381 36.7338 62.9274 36.809C62.7205 36.8805 62.508 36.9313 62.2899 36.9614C62.0754 36.9915 61.8667 37.0065 61.6636 37.0065C61.2611 37.0065 60.8868 36.9407 60.5408 36.809C60.1947 36.6736 59.8938 36.4761 59.638 36.2166C59.3822 35.9533 59.181 35.6298 59.0343 35.2461C58.8876 34.8587 58.8143 34.4111 58.8143 33.9033C58.8143 33.5084 58.8782 33.1378 59.0061 32.7918C59.134 32.442 59.3164 32.1392 59.5534 31.8834C59.7941 31.6239 60.0856 31.4189 60.4279 31.2684C60.774 31.1179 61.1633 31.0427 61.5959 31.0427C61.9607 31.0427 62.2974 31.101 62.6058 31.2176C62.9143 31.3342 63.1794 31.5054 63.4014 31.7311C63.6233 31.953 63.7963 32.2276 63.9204 32.5548C64.0483 32.8783 64.1123 33.2488 64.1123 33.6663C64.1123 33.877 64.0897 34.0199 64.0446 34.0951C63.9994 34.1666 63.9129 34.2023 63.785 34.2023H60.2022ZM68.9953 35.9288V32.1994H67.5735C67.5359 32.6846 67.4889 33.1228 67.4324 33.514C67.376 33.9014 67.3102 34.2475 67.235 34.5522C67.1597 34.8568 67.077 35.122 66.9867 35.3477C66.9002 35.5734 66.8062 35.7671 66.7046 35.9288H68.9953ZM71.4102 35.8894V38.4453C71.4102 38.5732 71.3726 38.6747 71.2973 38.7499C71.2259 38.8252 71.1318 38.8628 71.0152 38.8628H70.1463V36.9219H65.8131V38.4678C65.8131 38.5656 65.7812 38.6559 65.7172 38.7387C65.657 38.8214 65.5611 38.8628 65.4295 38.8628H64.5493V35.9288H64.7129C64.8446 35.9288 64.9724 35.9119 65.0966 35.8781C65.2207 35.8405 65.3392 35.7652 65.452 35.6524C65.5686 35.5395 65.6777 35.3778 65.7793 35.1672C65.8846 34.9528 65.9786 34.6688 66.0614 34.3152C66.1441 33.9578 66.2156 33.5196 66.2758 33.0006C66.3397 32.4815 66.3905 31.859 66.4281 31.133H70.3495V35.8894H71.4102ZM77.4901 31.133V36.9219H76.0965V33.5422C76.0965 33.4557 76.1002 33.3617 76.1077 33.2601C76.119 33.1548 76.1322 33.0495 76.1472 32.9441C76.072 33.1172 75.9893 33.2695 75.899 33.4011C75.8915 33.4087 75.8538 33.4613 75.7861 33.5591C75.7184 33.6532 75.63 33.7754 75.521 33.9259C75.4156 34.0763 75.2953 34.2475 75.1599 34.4393C75.0244 34.6274 74.8872 34.8192 74.748 35.0148C74.4207 35.4775 74.0502 36.0003 73.6365 36.5833C73.5838 36.6623 73.5142 36.7394 73.4277 36.8147C73.345 36.8899 73.249 36.9275 73.14 36.9275H72.288V31.1386H73.6816V34.5183C73.6816 34.6048 73.676 34.7007 73.6647 34.8061C73.6572 34.9076 73.6459 35.0111 73.6308 35.1164C73.7136 34.9321 73.7963 34.7797 73.8791 34.6594C73.8828 34.6518 73.9186 34.6011 73.9863 34.507C74.054 34.413 74.1405 34.2907 74.2458 34.1403C74.3549 33.9898 74.4772 33.8206 74.6126 33.6325C74.748 33.4406 74.8853 33.245 75.0244 33.0457C75.3517 32.583 75.7241 32.0602 76.1416 31.4772C76.1943 31.3944 76.2638 31.3173 76.3504 31.2458C76.4369 31.1706 76.5347 31.133 76.6438 31.133H77.4901ZM9.83028 43.7593C10.0484 43.5486 10.3193 43.3775 10.6428 43.2458C10.9662 43.1104 11.3537 43.0427 11.8051 43.0427C12.1624 43.0427 12.4802 43.086 12.7586 43.1725C13.0369 43.2552 13.2701 43.37 13.4582 43.5167C13.65 43.6596 13.7949 43.8251 13.8927 44.0132C13.9942 44.1975 14.045 44.3912 14.045 44.5943C14.045 44.7034 14.0281 44.8181 13.9942 44.9385C13.9641 45.0551 13.9115 45.1698 13.8362 45.2827C13.7648 45.3955 13.6689 45.5008 13.5485 45.5986C13.4281 45.6927 13.2795 45.7735 13.1028 45.8412C13.4187 45.9616 13.6726 46.1384 13.8644 46.3716C14.06 46.6048 14.1578 46.8926 14.1578 47.2349C14.1578 47.517 14.092 47.7671 13.9604 47.9853C13.8325 48.2034 13.6613 48.3896 13.4469 48.5438C13.2325 48.6943 12.9861 48.809 12.7078 48.888C12.4332 48.967 12.1492 49.0065 11.8558 49.0065C11.6903 49.0065 11.5117 48.9915 11.3198 48.9614C11.1317 48.9313 10.9418 48.8805 10.75 48.809C10.5581 48.7338 10.3701 48.636 10.1857 48.5156C10.0014 48.3915 9.83405 48.2392 9.68359 48.0586L10.0842 47.5508C10.1406 47.4643 10.2252 47.4211 10.3381 47.4211C10.4246 47.4211 10.5073 47.4493 10.5863 47.5057C10.6653 47.5583 10.7556 47.6185 10.8572 47.6862C10.9625 47.7502 11.0866 47.8104 11.2295 47.8668C11.3725 47.9194 11.5512 47.9458 11.7656 47.9458C12.1154 47.9458 12.3806 47.8668 12.5611 47.7088C12.7417 47.5508 12.8319 47.3533 12.8319 47.1164C12.8319 46.8832 12.7379 46.7007 12.5498 46.5691C12.3655 46.4374 12.0646 46.3716 11.6471 46.3716H10.9926V45.4632H11.6471C12.0119 45.4632 12.2922 45.3993 12.4878 45.2714C12.6834 45.1435 12.7811 44.9742 12.7811 44.7636C12.7811 44.5717 12.6946 44.4138 12.5216 44.2896C12.3523 44.1655 12.1003 44.1034 11.7656 44.1034C11.5662 44.1034 11.3969 44.1241 11.2578 44.1655C11.1186 44.2069 10.9982 44.252 10.8967 44.3009C10.7989 44.3461 10.7161 44.3893 10.6484 44.4307C10.5807 44.4721 10.5168 44.4928 10.4566 44.4928C10.3926 44.4928 10.3381 44.4815 10.2929 44.4589C10.2478 44.4326 10.1989 44.378 10.1462 44.2953L9.83028 43.7593ZM18.3071 46.4506C17.9046 46.4694 17.566 46.5051 17.2915 46.5578C17.0169 46.6067 16.7968 46.6706 16.6313 46.7496C16.4658 46.8286 16.3473 46.9208 16.2759 47.0261C16.2044 47.1314 16.1687 47.2461 16.1687 47.3703C16.1687 47.6148 16.2401 47.7897 16.3831 47.895C16.5298 48.0003 16.7197 48.053 16.9529 48.053C17.2388 48.053 17.4852 48.0022 17.6921 47.9006C17.9027 47.7953 18.1077 47.6373 18.3071 47.4267V46.4506ZM15.1136 43.9398C15.7794 43.3305 16.5805 43.0258 17.5171 43.0258C17.8557 43.0258 18.1585 43.0822 18.4255 43.1951C18.6926 43.3041 18.9183 43.4584 19.1026 43.6577C19.2869 43.8533 19.4261 44.0884 19.5201 44.363C19.6179 44.6376 19.6668 44.9385 19.6668 45.2657V48.9219H19.0349C18.9032 48.9219 18.8017 48.9031 18.7302 48.8655C18.6588 48.8241 18.6023 48.7432 18.561 48.6228L18.4368 48.2053C18.2901 48.337 18.1472 48.4536 18.008 48.5551C17.8688 48.6529 17.724 48.7357 17.5736 48.8034C17.4231 48.8711 17.2614 48.9219 17.0883 48.9557C16.9191 48.9933 16.731 49.0122 16.5241 49.0122C16.2796 49.0122 16.0539 48.9802 15.8471 48.9162C15.6402 48.8485 15.4615 48.7488 15.3111 48.6172C15.1606 48.4855 15.044 48.3219 14.9612 48.1263C14.8785 47.9307 14.8371 47.7032 14.8371 47.4436C14.8371 47.2969 14.8616 47.1521 14.9105 47.0092C14.9594 46.8625 15.0383 46.7233 15.1474 46.5917C15.2603 46.46 15.4051 46.3359 15.5819 46.2193C15.7587 46.1027 15.975 46.0011 16.2307 45.9146C16.4903 45.8281 16.7912 45.7585 17.1335 45.7058C17.4758 45.6494 17.867 45.6156 18.3071 45.6043V45.2657C18.3071 44.8783 18.2243 44.5924 18.0588 44.4081C17.8933 44.2201 17.6544 44.126 17.3422 44.126C17.1166 44.126 16.9285 44.1523 16.778 44.205C16.6313 44.2577 16.5016 44.3178 16.3887 44.3856C16.2759 44.4495 16.1724 44.5078 16.0784 44.5605C15.9881 44.6131 15.8866 44.6395 15.7737 44.6395C15.6759 44.6395 15.5932 44.615 15.5255 44.5661C15.4577 44.5134 15.4032 44.4533 15.3618 44.3856L15.1136 43.9398ZM25.1263 44.3573C25.085 44.41 25.0436 44.4514 25.0022 44.4815C24.9646 44.5116 24.9082 44.5266 24.833 44.5266C24.7615 44.5266 24.6919 44.5059 24.6242 44.4645C24.5565 44.4194 24.4756 44.3705 24.3816 44.3178C24.2875 44.2614 24.1747 44.2125 24.043 44.1712C23.9152 44.126 23.7553 44.1034 23.5635 44.1034C23.319 44.1034 23.1046 44.1486 22.9202 44.2389C22.7359 44.3254 22.5817 44.4514 22.4576 44.6169C22.3372 44.7824 22.2469 44.9836 22.1868 45.2206C22.1266 45.4538 22.0965 45.719 22.0965 46.0161C22.0965 46.3246 22.1285 46.5992 22.1924 46.8399C22.2601 47.0806 22.356 47.2838 22.4802 47.4493C22.6043 47.611 22.7547 47.7351 22.9315 47.8216C23.1083 47.9044 23.3077 47.9458 23.5296 47.9458C23.7515 47.9458 23.9302 47.9194 24.0656 47.8668C24.2048 47.8104 24.3214 47.7502 24.4154 47.6862C24.5095 47.6185 24.5903 47.5583 24.658 47.5057C24.7295 47.4493 24.8085 47.4211 24.895 47.4211C25.0079 47.4211 25.0925 47.4643 25.1489 47.5508L25.5495 48.0586C25.3953 48.2392 25.2279 48.3915 25.0474 48.5156C24.8668 48.636 24.6787 48.7338 24.4831 48.809C24.2913 48.8805 24.0919 48.9313 23.8851 48.9614C23.6819 48.9915 23.4788 49.0065 23.2757 49.0065C22.9184 49.0065 22.5817 48.9407 22.2658 48.809C21.9498 48.6736 21.6733 48.478 21.4364 48.2222C21.1994 47.9665 21.0113 47.6543 20.8721 47.2856C20.7367 46.9133 20.669 46.4901 20.669 46.0161C20.669 45.5911 20.7292 45.198 20.8496 44.8369C20.9737 44.4721 21.1542 44.158 21.3912 43.8947C21.6282 43.6276 21.9216 43.4189 22.2714 43.2684C22.6212 43.1179 23.0237 43.0427 23.4788 43.0427C23.9114 43.0427 24.2894 43.1123 24.6129 43.2515C24.9402 43.3906 25.2335 43.59 25.4931 43.8495L25.1263 44.3573ZM31.3883 44.1655H29.3233V48.9219H27.9296V44.1655H25.8702V43.133H31.3883V44.1655ZM33.6022 47.4211C33.7602 47.6129 33.9314 47.7483 34.1157 47.8273C34.3037 47.9063 34.5069 47.9458 34.725 47.9458C34.9357 47.9458 35.1256 47.9063 35.2949 47.8273C35.4642 47.7483 35.6071 47.6279 35.7237 47.4662C35.8441 47.3044 35.9362 47.1013 36.0002 46.8568C36.0641 46.6086 36.0961 46.3171 36.0961 45.9823C36.0961 45.6438 36.0679 45.3579 36.0114 45.1247C35.9588 44.8877 35.8817 44.6959 35.7801 44.5492C35.6786 44.4025 35.5544 44.2953 35.4077 44.2276C35.2648 44.1599 35.1012 44.126 34.9169 44.126C34.6272 44.126 34.3809 44.1881 34.1777 44.3122C33.9746 44.4326 33.7828 44.6037 33.6022 44.8256V47.4211ZM33.5289 43.9229C33.7659 43.6558 34.0348 43.4395 34.3357 43.274C34.6366 43.1085 34.9902 43.0258 35.3964 43.0258C35.7124 43.0258 36.0002 43.0916 36.2597 43.2233C36.523 43.3549 36.7487 43.5468 36.9368 43.7988C37.1286 44.047 37.2753 44.3555 37.3769 44.7241C37.4822 45.0889 37.5348 45.5084 37.5348 45.9823C37.5348 46.4149 37.4765 46.8155 37.3599 47.1841C37.2433 47.5527 37.0759 47.8724 36.8578 48.1433C36.6434 48.4141 36.382 48.6266 36.0735 48.7808C35.7688 48.9313 35.4265 49.0065 35.0466 49.0065C34.7231 49.0065 34.4467 48.9576 34.2172 48.8598C33.9878 48.7583 33.7828 48.6191 33.6022 48.4423V50.812H32.2086V43.133H33.0606C33.2411 43.133 33.3596 43.2176 33.416 43.3869L33.5289 43.9229ZM41.1727 43.0427C41.6015 43.0427 41.9908 43.1123 42.3407 43.2515C42.6942 43.3906 42.9952 43.5881 43.2434 43.8439C43.4954 44.0997 43.6891 44.4119 43.8246 44.7805C43.96 45.1491 44.0277 45.561 44.0277 46.0161C44.0277 46.475 43.96 46.8888 43.8246 47.2574C43.6891 47.6261 43.4954 47.9401 43.2434 48.1997C42.9952 48.4592 42.6942 48.6586 42.3407 48.7977C41.9908 48.9369 41.6015 49.0065 41.1727 49.0065C40.7402 49.0065 40.3471 48.9369 39.9935 48.7977C39.6399 48.6586 39.3371 48.4592 39.0851 48.1997C38.8369 47.9401 38.6431 47.6261 38.504 47.2574C38.3686 46.8888 38.3009 46.475 38.3009 46.0161C38.3009 45.561 38.3686 45.1491 38.504 44.7805C38.6431 44.4119 38.8369 44.0997 39.0851 43.8439C39.3371 43.5881 39.6399 43.3906 39.9935 43.2515C40.3471 43.1123 40.7402 43.0427 41.1727 43.0427ZM41.1727 47.9345C41.6542 47.9345 42.0097 47.7727 42.2391 47.4493C42.4723 47.1258 42.5889 46.6518 42.5889 46.0274C42.5889 45.403 42.4723 44.9272 42.2391 44.6C42.0097 44.2727 41.6542 44.1091 41.1727 44.1091C40.6837 44.1091 40.3208 44.2746 40.0838 44.6056C39.8506 44.9328 39.734 45.4068 39.734 46.0274C39.734 46.6481 39.8506 47.122 40.0838 47.4493C40.3208 47.7727 40.6837 47.9345 41.1727 47.9345ZM50.293 43.133V48.9219H48.8994V45.5422C48.8994 45.4557 48.9031 45.3617 48.9106 45.2601C48.9219 45.1548 48.9351 45.0495 48.9501 44.9441C48.8749 45.1172 48.7921 45.2695 48.7019 45.4011C48.6944 45.4087 48.6567 45.4613 48.589 45.5591C48.5213 45.6532 48.4329 45.7754 48.3238 45.9259C48.2185 46.0763 48.0982 46.2475 47.9627 46.4393C47.8273 46.6274 47.69 46.8192 47.5509 47.0148C47.2236 47.4775 46.8531 48.0003 46.4394 48.5833C46.3867 48.6623 46.3171 48.7394 46.2306 48.8147C46.1478 48.8899 46.0519 48.9275 45.9428 48.9275H45.0909V43.1386H46.4845V46.5183C46.4845 46.6048 46.4789 46.7007 46.4676 46.8061C46.46 46.9076 46.4488 47.0111 46.4337 47.1164C46.5165 46.9321 46.5992 46.7797 46.682 46.6594C46.6857 46.6518 46.7215 46.6011 46.7892 46.507C46.8569 46.413 46.9434 46.2907 47.0487 46.1403C47.1578 45.9898 47.28 45.8206 47.4155 45.6325C47.5509 45.4406 47.6882 45.245 47.8273 45.0457C48.1546 44.583 48.527 44.0602 48.9445 43.4772C48.9971 43.3944 49.0667 43.3173 49.1532 43.2458C49.2398 43.1706 49.3376 43.133 49.4466 43.133H50.293ZM47.7709 41.666C47.9101 41.666 48.0267 41.651 48.1207 41.6209C48.2148 41.5908 48.29 41.5419 48.3464 41.4742C48.4028 41.4027 48.4423 41.3087 48.4649 41.1921C48.4875 41.0755 48.4988 40.9325 48.4988 40.7633H49.3225C49.4203 40.7633 49.4918 40.8046 49.5369 40.8874C49.5858 40.9664 49.6103 41.0548 49.6103 41.1526C49.6103 41.3444 49.567 41.5193 49.4805 41.6773C49.394 41.8315 49.2699 41.9632 49.1081 42.0723C48.9464 42.1776 48.7527 42.2603 48.527 42.3205C48.3013 42.3769 48.0493 42.4051 47.7709 42.4051C47.4926 42.4051 47.2405 42.3769 47.0149 42.3205C46.7892 42.2603 46.5955 42.1776 46.4337 42.0723C46.272 41.9632 46.1478 41.8315 46.0613 41.6773C45.9748 41.5193 45.9316 41.3444 45.9316 41.1526C45.9316 41.0548 45.9541 40.9664 45.9993 40.8874C46.0482 40.8046 46.1215 40.7633 46.2193 40.7633H47.0431C47.0431 40.9325 47.0544 41.0755 47.0769 41.1921C47.0995 41.3087 47.139 41.4027 47.1954 41.4742C47.2518 41.5419 47.3252 41.5908 47.4155 41.6209C47.5095 41.651 47.628 41.666 47.7709 41.666ZM60.7368 47.8894V50.4453C60.7368 50.5732 60.6991 50.6747 60.6239 50.7499C60.5524 50.8252 60.4584 50.8628 60.3418 50.8628H59.4729V48.9219H51.6698V43.133H53.0634V47.8894H54.9761V43.133H56.3697V47.8894H58.2824V43.133H59.676V47.8894H60.7368ZM66.8228 43.133V48.9219H65.4292V45.5422C65.4292 45.4557 65.433 45.3617 65.4405 45.2601C65.4518 45.1548 65.4649 45.0495 65.48 44.9441C65.4048 45.1172 65.322 45.2695 65.2317 45.4011C65.2242 45.4087 65.1866 45.4613 65.1189 45.5591C65.0512 45.6532 64.9628 45.7754 64.8537 45.9259C64.7484 46.0763 64.628 46.2475 64.4926 46.4393C64.3572 46.6274 64.2199 46.8192 64.0807 47.0148C63.7535 47.4775 63.383 48.0003 62.9692 48.5833C62.9165 48.6623 62.847 48.7394 62.7604 48.8147C62.6777 48.8899 62.5818 48.9275 62.4727 48.9275H61.6207V43.1386H63.0143V46.5183C63.0143 46.6048 63.0087 46.7007 62.9974 46.8061C62.9899 46.9076 62.9786 47.0111 62.9636 47.1164C63.0463 46.9321 63.1291 46.7797 63.2118 46.6594C63.2156 46.6518 63.2513 46.6011 63.319 46.507C63.3867 46.413 63.4732 46.2907 63.5786 46.1403C63.6876 45.9898 63.8099 45.8206 63.9453 45.6325C64.0807 45.4406 64.218 45.245 64.3572 45.0457C64.6844 44.583 65.0568 44.0602 65.4743 43.4772C65.527 43.3944 65.5966 43.3173 65.6831 43.2458C65.7696 43.1706 65.8674 43.133 65.9765 43.133H66.8228ZM71.6583 43.4997C71.726 43.3906 71.8181 43.3023 71.9347 43.2345C72.0513 43.1668 72.1755 43.133 72.3071 43.133H73.4017L72.0532 45.2827C71.9592 45.4331 71.8633 45.5554 71.7655 45.6494C71.6677 45.7397 71.5492 45.8111 71.41 45.8638C71.5981 45.9202 71.7523 46.0049 71.8727 46.1177C71.993 46.2268 72.1021 46.366 72.1999 46.5352L73.554 48.9219H72.5892C72.3447 48.9219 72.1548 48.8805 72.0194 48.7977C71.8839 48.715 71.7692 48.5965 71.6752 48.4423L70.8232 46.8399C70.748 46.7007 70.6502 46.5973 70.5298 46.5296C70.4132 46.4619 70.2759 46.428 70.1179 46.428H69.5932V48.9219H68.1996V43.133H69.5932V45.5196H70.0446C70.2026 45.5196 70.3286 45.4914 70.4226 45.435C70.5204 45.3748 70.6032 45.2845 70.6709 45.1642L71.6583 43.4997ZM76.6788 43.0427C77.1076 43.0427 77.497 43.1123 77.8468 43.2515C78.2004 43.3906 78.5013 43.5881 78.7495 43.8439C79.0015 44.0997 79.1953 44.4119 79.3307 44.7805C79.4661 45.1491 79.5338 45.561 79.5338 46.0161C79.5338 46.475 79.4661 46.8888 79.3307 47.2574C79.1953 47.6261 79.0015 47.9401 78.7495 48.1997C78.5013 48.4592 78.2004 48.6586 77.8468 48.7977C77.497 48.9369 77.1076 49.0065 76.6788 49.0065C76.2463 49.0065 75.8532 48.9369 75.4996 48.7977C75.146 48.6586 74.8432 48.4592 74.5912 48.1997C74.343 47.9401 74.1493 47.6261 74.0101 47.2574C73.8747 46.8888 73.807 46.475 73.807 46.0161C73.807 45.561 73.8747 45.1491 74.0101 44.7805C74.1493 44.4119 74.343 44.0997 74.5912 43.8439C74.8432 43.5881 75.146 43.3906 75.4996 43.2515C75.8532 43.1123 76.2463 43.0427 76.6788 43.0427ZM76.6788 47.9345C77.1603 47.9345 77.5158 47.7727 77.7452 47.4493C77.9784 47.1258 78.095 46.6518 78.095 46.0274C78.095 45.403 77.9784 44.9272 77.7452 44.6C77.5158 44.2727 77.1603 44.1091 76.6788 44.1091C76.1899 44.1091 75.8269 44.2746 75.5899 44.6056C75.3567 44.9328 75.2401 45.4068 75.2401 46.0274C75.2401 46.6481 75.3567 47.122 75.5899 47.4493C75.8269 47.7727 76.1899 47.9345 76.6788 47.9345ZM82.9611 47.9683C83.2545 47.9683 83.4858 47.8969 83.6551 47.7539C83.8281 47.611 83.9146 47.4154 83.9146 47.1672C83.9146 47.0618 83.8995 46.964 83.8695 46.8738C83.8431 46.7797 83.7942 46.6989 83.7228 46.6311C83.6513 46.5634 83.5535 46.5108 83.4294 46.4732C83.309 46.4356 83.1548 46.4167 82.9667 46.4167H81.9229V47.9683H82.9611ZM81.9229 44.0414V45.5591H82.8369C82.9723 45.5591 83.0965 45.5403 83.2093 45.5027C83.3222 45.4613 83.42 45.4049 83.5027 45.3334C83.5855 45.2582 83.6494 45.1717 83.6945 45.0739C83.7397 44.9723 83.7623 44.8614 83.7623 44.741C83.7623 44.6545 83.7472 44.5699 83.7171 44.4871C83.687 44.4006 83.6362 44.3254 83.5648 44.2614C83.4933 44.1937 83.3974 44.1411 83.277 44.1034C83.1604 44.0621 83.0137 44.0414 82.8369 44.0414H81.9229ZM82.8764 43.133C83.2413 43.133 83.5554 43.1687 83.8187 43.2402C84.0857 43.3117 84.3058 43.4095 84.4788 43.5336C84.6518 43.6577 84.7797 43.8063 84.8625 43.9793C84.9452 44.1486 84.9866 44.3329 84.9866 44.5323C84.9866 44.6564 84.9697 44.7862 84.9358 44.9216C84.9057 45.0532 84.8493 45.1811 84.7666 45.3052C84.6876 45.4294 84.5785 45.5422 84.4393 45.6438C84.3001 45.7453 84.1234 45.8243 83.9089 45.8807C84.1008 45.9221 84.2757 45.9804 84.4337 46.0556C84.5917 46.1271 84.7271 46.2193 84.8399 46.3321C84.9528 46.4412 85.0393 46.571 85.0995 46.7214C85.1634 46.8681 85.1954 47.0336 85.1954 47.2179C85.1954 47.5113 85.1333 47.7652 85.0092 47.9796C84.8888 48.194 84.7252 48.3708 84.5183 48.51C84.3152 48.6492 84.0782 48.7526 83.8074 48.8203C83.5403 48.888 83.2601 48.9219 82.9667 48.9219H80.597V43.133H82.8764Z" fill="white"/>
<path fill-rule="evenodd" clip-rule="evenodd" d="M14.9232 56.957C15.8743 56.957 16.6453 57.7497 16.6453 58.7276C16.6455 58.8231 16.6381 58.9187 16.6231 59.013C16.6083 59.1075 16.5859 59.2005 16.5562 59.2913C16.5266 59.3819 16.4898 59.4701 16.4462 59.5548C16.4025 59.6394 16.3524 59.7203 16.2959 59.7968L14.9232 61.52L13.6655 59.9601L13.5509 59.7972C13.4946 59.7207 13.4443 59.6397 13.4006 59.555C13.357 59.4703 13.3202 59.3823 13.2905 59.2915C13.2609 59.2009 13.2383 59.1077 13.2235 59.0134C13.2084 58.9189 13.2011 58.8235 13.2011 58.7278C13.2011 57.7497 13.9723 56.9572 14.9236 56.9572L14.9232 56.957ZM14.9232 59.5356C14.9234 59.5356 14.9234 59.5356 14.9234 59.5356H14.9236H14.9232ZM14.1339 58.7239C14.1339 58.2754 14.4873 57.9118 14.9236 57.9118C15.3593 57.9118 15.713 58.2754 15.713 58.7239C15.713 59.1722 15.3594 59.5354 14.9234 59.5356C14.4871 59.5354 14.1339 59.1722 14.1339 58.7239ZM15.5807 62.2124H14.305V63.6078L13.0304 62.033L9.48047 66.4181L10.6613 67.4287L13.0304 64.5026L15.3993 67.4287L16.5799 66.4181L15.5807 65.1836V62.2124Z" fill="white"/>
<path fill-rule="evenodd" clip-rule="evenodd" d="M23.2386 66.4912H23.9311V68.5313H22.9057V67.5342H18.7383V62.5638H19.8699V66.4906H22.107V62.5635H23.2386V66.4912ZM25.8546 65.9097L28.2245 62.5635H29.3561V67.5338H28.2243V64.1875L25.8542 67.5338H24.7228V62.5635H25.8542V65.9097H25.8546ZM40.2327 62.5635V67.5338H39.1078V65.5667H36.7976V67.5338H35.6658V62.5635H36.7976V64.5165H39.1078V62.5635H40.2327ZM32.4995 62.4688C33.768 62.4688 34.5564 63.1986 34.5564 64.3737V67.5332H33.601L33.5902 67.4742L33.5127 67.0484C33.3562 67.2228 32.9007 67.6297 32.0638 67.6297C31.5295 67.6297 31.0736 67.4776 30.7456 67.1896C30.4251 66.9089 30.2491 66.5085 30.2491 66.0622C30.2491 65.5446 30.4202 65.137 30.7584 64.8498C31.1113 64.5502 31.6318 64.3983 32.3056 64.3983H33.4439V64.3737C33.4439 63.7843 33.0909 63.4325 32.4995 63.4325C31.8576 63.4325 31.6102 63.7921 31.5594 64.0229H30.4438C30.4717 63.5933 30.678 63.2034 31.0263 62.9248C31.3988 62.6265 31.9081 62.4688 32.4995 62.4688ZM33.4439 65.4352V65.3138H32.3542C31.7327 65.3138 31.3614 65.5757 31.3614 66.014C31.3614 66.4346 31.6451 66.6659 32.1606 66.6659C32.5726 66.6659 32.8937 66.5573 33.1148 66.3425C33.3333 66.1304 33.4441 65.8253 33.4441 65.4352H33.4439Z" fill="white"/>
<path d="M69.2166 66.1944C69.3268 66.1944 69.4135 66.2261 69.4768 66.2894C69.5429 66.35 69.576 66.4312 69.576 66.5331V67.1445H65.478V66.8058C65.478 66.7369 65.4918 66.6653 65.5193 66.591C65.5496 66.5139 65.5964 66.445 65.6598 66.3844L67.4733 64.5668C67.6248 64.4125 67.7597 64.2652 67.8781 64.1248C67.9993 63.9843 68.0998 63.8452 68.1797 63.7075C68.2596 63.5698 68.3202 63.4307 68.3615 63.2903C68.4055 63.1471 68.4276 62.997 68.4276 62.84C68.4276 62.6968 68.4069 62.5715 68.3656 62.4641C68.3243 62.3539 68.2651 62.2617 68.188 62.1873C68.1136 62.1129 68.0227 62.0579 67.9153 62.0221C67.8107 61.9835 67.6922 61.9642 67.5601 61.9642C67.4389 61.9642 67.326 61.9821 67.2213 62.0179C67.1194 62.051 67.0285 62.0992 66.9487 62.1625C66.8688 62.2231 66.8013 62.2947 66.7462 62.3773C66.6912 62.46 66.6499 62.5508 66.6223 62.65C66.5755 62.7767 66.5149 62.8607 66.4405 62.902C66.3662 62.9433 66.2588 62.9529 66.1183 62.9309L65.5813 62.8359C65.6226 62.5495 65.7025 62.2988 65.8209 62.084C65.9393 61.8665 66.0867 61.6861 66.2629 61.5429C66.4419 61.3969 66.6457 61.2881 66.8743 61.2165C67.1056 61.1422 67.3535 61.105 67.6179 61.105C67.8933 61.105 68.1453 61.1463 68.3739 61.2289C68.6024 61.3088 68.798 61.4231 68.9605 61.5718C69.123 61.7205 69.2496 61.8995 69.3405 62.1088C69.4314 62.3181 69.4768 62.5508 69.4768 62.807C69.4768 63.0273 69.4438 63.2311 69.3777 63.4183C69.3144 63.6056 69.2276 63.7846 69.1174 63.9554C69.01 64.1261 68.8834 64.2914 68.7374 64.4511C68.5914 64.6108 68.4386 64.7733 68.2789 64.9386L66.9321 66.3142C67.0616 66.2756 67.1896 66.2467 67.3163 66.2274C67.4458 66.2054 67.5683 66.1944 67.684 66.1944H69.2166ZM74.5421 64.1578C74.5421 64.6783 74.4857 65.1313 74.3728 65.5169C74.2626 65.8997 74.1084 66.2164 73.9101 66.467C73.7145 66.7177 73.4818 66.9049 73.2119 67.0289C72.9448 67.15 72.6556 67.2106 72.3444 67.2106C72.0332 67.2106 71.744 67.15 71.4769 67.0289C71.2125 66.9049 70.9826 66.7177 70.787 66.467C70.5915 66.2164 70.4386 65.8997 70.3285 65.5169C70.2183 65.1313 70.1632 64.6783 70.1632 64.1578C70.1632 63.6345 70.2183 63.1815 70.3285 62.7987C70.4386 62.4159 70.5915 62.0992 70.787 61.8486C70.9826 61.5979 71.2125 61.4121 71.4769 61.2909C71.744 61.1669 72.0332 61.105 72.3444 61.105C72.6556 61.105 72.9448 61.1669 73.2119 61.2909C73.4818 61.4121 73.7145 61.5979 73.9101 61.8486C74.1084 62.0992 74.2626 62.4159 74.3728 62.7987C74.4857 63.1815 74.5421 63.6345 74.5421 64.1578ZM73.4887 64.1578C73.4887 63.7254 73.457 63.3674 73.3937 63.0837C73.3304 62.8001 73.245 62.5742 73.1376 62.4062C73.0329 62.2383 72.9117 62.1212 72.774 62.0551C72.6363 61.9863 72.4931 61.9518 72.3444 61.9518C72.1985 61.9518 72.0566 61.9863 71.9189 62.0551C71.784 62.1212 71.6642 62.2383 71.5595 62.4062C71.4549 62.5742 71.3709 62.8001 71.3075 63.0837C71.2469 63.3674 71.2167 63.7254 71.2167 64.1578C71.2167 64.5902 71.2469 64.9482 71.3075 65.2319C71.3709 65.5155 71.4549 65.7414 71.5595 65.9094C71.6642 66.0774 71.784 66.1958 71.9189 66.2646C72.0566 66.3307 72.1985 66.3638 72.3444 66.3638C72.4931 66.3638 72.6363 66.3307 72.774 66.2646C72.9117 66.1958 73.0329 66.0774 73.1376 65.9094C73.245 65.7414 73.3304 65.5155 73.3937 65.2319C73.457 64.9482 73.4887 64.5902 73.4887 64.1578ZM78.8019 66.1944C78.912 66.1944 78.9988 66.2261 79.0621 66.2894C79.1282 66.35 79.1613 66.4312 79.1613 66.5331V67.1445H75.0633V66.8058C75.0633 66.7369 75.077 66.6653 75.1046 66.591C75.1349 66.5139 75.1817 66.445 75.245 66.3844L77.0586 64.5668C77.21 64.4125 77.345 64.2652 77.4634 64.1248C77.5846 63.9843 77.6851 63.8452 77.765 63.7075C77.8448 63.5698 77.9054 63.4307 77.9467 63.2903C77.9908 63.1471 78.0128 62.997 78.0128 62.84C78.0128 62.6968 77.9922 62.5715 77.9509 62.4641C77.9096 62.3539 77.8503 62.2617 77.7732 62.1873C77.6989 62.1129 77.608 62.0579 77.5006 62.0221C77.3959 61.9835 77.2775 61.9642 77.1453 61.9642C77.0241 61.9642 76.9112 61.9821 76.8066 62.0179C76.7047 62.051 76.6138 62.0992 76.5339 62.1625C76.4541 62.2231 76.3866 62.2947 76.3315 62.3773C76.2764 62.46 76.2351 62.5508 76.2076 62.65C76.1608 62.7767 76.1002 62.8607 76.0258 62.902C75.9514 62.9433 75.844 62.9529 75.7036 62.9309L75.1666 62.8359C75.2079 62.5495 75.2877 62.2988 75.4062 62.084C75.5246 61.8665 75.6719 61.6861 75.8482 61.5429C76.0272 61.3969 76.231 61.2881 76.4596 61.2165C76.6909 61.1422 76.9388 61.105 77.2031 61.105C77.4785 61.105 77.7305 61.1463 77.9591 61.2289C78.1877 61.3088 78.3832 61.4231 78.5457 61.5718C78.7082 61.7205 78.8349 61.8995 78.9258 62.1088C79.0167 62.3181 79.0621 62.5508 79.0621 62.807C79.0621 63.0273 79.0291 63.2311 78.963 63.4183C78.8996 63.6056 78.8129 63.7846 78.7027 63.9554C78.5953 64.1261 78.4686 64.2914 78.3227 64.4511C78.1767 64.6108 78.0238 64.7733 77.8641 64.9386L76.5174 66.3142C76.6468 66.2756 76.7749 66.2467 76.9016 66.2274C77.031 66.2054 77.1536 66.1944 77.2692 66.1944H78.8019ZM79.9881 62.8359C80.0294 62.5495 80.1093 62.2988 80.2277 62.084C80.3461 61.8665 80.4935 61.6861 80.6697 61.5429C80.8487 61.3969 81.0525 61.2881 81.2811 61.2165C81.5124 61.1422 81.7603 61.105 82.0247 61.105C82.3001 61.105 82.548 61.1449 82.7683 61.2248C82.9914 61.3019 83.1814 61.4107 83.3384 61.5511C83.4953 61.6888 83.6151 61.8513 83.6978 62.0386C83.7831 62.2259 83.8258 62.4283 83.8258 62.6458C83.8258 62.8359 83.8038 63.0039 83.7597 63.1498C83.7184 63.293 83.6578 63.4184 83.578 63.5258C83.4981 63.6332 83.3989 63.724 83.2805 63.7984C83.1621 63.8728 83.0285 63.9347 82.8798 63.9843C83.2378 64.0972 83.505 64.2693 83.6812 64.5007C83.8575 64.732 83.9456 65.0226 83.9456 65.3723C83.9456 65.6698 83.8905 65.9328 83.7804 66.1613C83.6702 66.3899 83.5215 66.5827 83.3342 66.7397C83.147 66.8939 82.9294 67.011 82.6815 67.0908C82.4364 67.1707 82.1762 67.2106 81.9008 67.2106C81.6006 67.2106 81.3389 67.1762 81.1159 67.1074C80.8928 67.0385 80.6986 66.9366 80.5334 66.8017C80.3682 66.6667 80.2277 66.5015 80.112 66.3059C79.9964 66.1104 79.8972 65.8846 79.8146 65.6284L80.2649 65.4426C80.3833 65.393 80.4935 65.3806 80.5954 65.4054C80.7 65.4274 80.7758 65.4825 80.8226 65.5706C80.8721 65.667 80.9258 65.762 80.9837 65.8557C81.0443 65.9493 81.1159 66.0333 81.1985 66.1076C81.2811 66.1792 81.3775 66.2385 81.4877 66.2853C81.6006 66.3293 81.7341 66.3514 81.8884 66.3514C82.0619 66.3514 82.2133 66.3238 82.3428 66.2688C82.4722 66.2109 82.5796 66.1366 82.665 66.0457C82.7531 65.9548 82.8179 65.8543 82.8592 65.7441C82.9032 65.6312 82.9253 65.5183 82.9253 65.4054C82.9253 65.2622 82.9101 65.1327 82.8798 65.0171C82.8495 64.8986 82.7862 64.7981 82.6898 64.7155C82.5934 64.6329 82.4543 64.5682 82.2726 64.5213C82.0935 64.4745 81.8526 64.4511 81.5496 64.4511V63.724C81.8002 63.7213 82.0082 63.6979 82.1734 63.6538C82.3387 63.6098 82.4695 63.5492 82.5659 63.4721C82.665 63.3922 82.7339 63.2972 82.7724 63.187C82.811 63.0769 82.8302 62.9557 82.8302 62.8235C82.8302 62.5426 82.7518 62.3291 82.5948 62.1832C82.4378 62.0372 82.2285 61.9642 81.9669 61.9642C81.8457 61.9642 81.7341 61.9821 81.6322 62.0179C81.5304 62.051 81.4381 62.0992 81.3555 62.1625C81.2756 62.2231 81.2081 62.2947 81.1531 62.3773C81.098 62.46 81.0567 62.5508 81.0291 62.65C80.9823 62.7767 80.9203 62.8607 80.8432 62.902C80.7689 62.9433 80.6628 62.9529 80.5251 62.9309L79.9881 62.8359Z" fill="white"/>
<defs>
<filter id="filter0_d_3736_916" x="0.338201" y="0.188406" width="93.9183" height="77.6936" filterUnits="userSpaceOnUse" color-interpolation-filters="sRGB">
<feFlood flood-opacity="0" result="BackgroundImageFix"/>
<feColorMatrix in="SourceAlpha" type="matrix" values="0 0 0 0 0 0 0 0 0 0 0 0 0 0 0 0 0 0 127 0" result="hardAlpha"/>
<feOffset dx="-0.415563" dy="0.831126"/>
<feGaussianBlur stdDeviation="0.831126"/>
<feComposite in2="hardAlpha" operator="out"/>
<feColorMatrix type="matrix" values="0 0 0 0 0 0 0 0 0 0 0 0 0 0 0 0 0 0 0.1 0"/>
<feBlend mode="normal" in2="BackgroundImageFix" result="effect1_dropShadow_3736_916"/>
<feBlend mode="normal" in="SourceGraphic" in2="effect1_dropShadow_3736_916" result="shape"/>
</filter>
<linearGradient id="paint0_linear_3736_916" x1="4.49414" y1="24.2226" x2="124.354" y2="64.6593" gradientUnits="userSpaceOnUse">
<stop stop-color="#227BFD"/>
<stop offset="1" stop-color="#04357A"/>
</linearGradient>
</defs>
</svg>
