<svg width="51" height="71" viewBox="0 0 51 71" fill="none" xmlns="http://www.w3.org/2000/svg">
<g filter="url(#filter0_d_3736_925)">
<mask id="path-1-outside-1_3736_925" maskUnits="userSpaceOnUse" x="2" y="0" width="48" height="69" fill="black">
<rect fill="white" x="2" width="48" height="69"/>
<path fill-rule="evenodd" clip-rule="evenodd" d="M24.6528 4.71571H29.691V16.5669L31.1432 18.3786H42.3422C44.9892 18.3786 47.135 20.5244 47.135 23.1714V61.5136C47.135 64.1606 44.9892 66.3064 42.3422 66.3064H8.79277C6.14579 66.3064 4 64.1606 4 61.5136V23.1714C4 20.7784 5.75378 18.795 8.04616 18.4364L19.6185 4L24.6528 10.2815V4.71571Z"/>
</mask>
<path fill-rule="evenodd" clip-rule="evenodd" d="M24.6528 4.71571H29.691V16.5669L31.1432 18.3786H42.3422C44.9892 18.3786 47.135 20.5244 47.135 23.1714V61.5136C47.135 64.1606 44.9892 66.3064 42.3422 66.3064H8.79277C6.14579 66.3064 4 64.1606 4 61.5136V23.1714C4 20.7784 5.75378 18.795 8.04616 18.4364L19.6185 4L24.6528 10.2815V4.71571Z" fill="url(#paint0_linear_3736_925)"/>
<path d="M29.691 4.71571H31.6879V2.71872H29.691V4.71571ZM24.6528 4.71571V2.71872H22.6559V4.71571H24.6528ZM29.691 16.5669H27.694V17.2685L28.1328 17.8159L29.691 16.5669ZM31.1432 18.3786L29.585 19.6276L30.1845 20.3756H31.1432V18.3786ZM8.04616 18.4364L8.35477 20.4094L9.11993 20.2897L9.60432 19.6855L8.04616 18.4364ZM19.6185 4L21.1768 2.75111L19.6187 0.806975L18.0604 2.75096L19.6185 4ZM24.6528 10.2815L23.0946 11.5304L26.6498 15.9664V10.2815H24.6528ZM29.691 2.71872H24.6528V6.7127H29.691V2.71872ZM31.6879 16.5669V4.71571H27.694V16.5669H31.6879ZM32.7014 17.1296L31.2491 15.3179L28.1328 17.8159L29.585 19.6276L32.7014 17.1296ZM31.1432 20.3756H42.3422V16.3816H31.1432V20.3756ZM42.3422 20.3756C43.8863 20.3756 45.138 21.6273 45.138 23.1714H49.132C49.132 19.4215 46.0921 16.3816 42.3422 16.3816V20.3756ZM45.138 23.1714V61.5136H49.132V23.1714H45.138ZM45.138 61.5136C45.138 63.0577 43.8863 64.3094 42.3422 64.3094V68.3034C46.0921 68.3034 49.132 65.2635 49.132 61.5136H45.138ZM42.3422 64.3094H8.79277V68.3034H42.3422V64.3094ZM8.79277 64.3094C7.2487 64.3094 5.99699 63.0577 5.99699 61.5136H2.00301C2.00301 65.2635 5.04288 68.3034 8.79277 68.3034V64.3094ZM5.99699 61.5136V23.1714H2.00301V61.5136H5.99699ZM5.99699 23.1714C5.99699 21.7773 7.01925 20.6183 8.35477 20.4094L7.73754 16.4634C4.48832 16.9717 2.00301 19.7794 2.00301 23.1714H5.99699ZM18.0604 2.75096L6.48799 17.1874L9.60432 19.6855L21.1767 5.24904L18.0604 2.75096ZM26.2111 9.03261L21.1768 2.75111L18.0603 5.24889L23.0946 11.5304L26.2111 9.03261ZM22.6559 4.71571V10.2815H26.6498V4.71571H22.6559Z" fill="white" mask="url(#path-1-outside-1_3736_925)"/>
</g>
<path d="M16.1602 31.0586H14.6557V24.1799H12.4627C12.4109 25.1866 12.3369 26.0582 12.2407 26.7948C12.1481 27.5276 12.0352 28.1531 11.902 28.6713C11.7724 29.1858 11.6226 29.604 11.4523 29.926C11.2857 30.248 11.1025 30.4997 10.9027 30.6811C10.7028 30.8587 10.4881 30.9809 10.2587 31.0475C10.0292 31.1104 9.7886 31.1419 9.53691 31.1419C9.27043 31.1419 9.07611 31.1178 8.95397 31.0697C8.83183 31.0216 8.77076 30.9513 8.77076 30.8587V29.926H9.19825C9.29448 29.926 9.39072 29.9149 9.48695 29.8927C9.58688 29.8705 9.68496 29.8242 9.78119 29.7539C9.88113 29.6799 9.97736 29.5744 10.0699 29.4375C10.1661 29.3005 10.2568 29.1173 10.3419 28.8878C10.4308 28.6547 10.5122 28.3697 10.5862 28.0328C10.6639 27.696 10.7324 27.2908 10.7916 26.817C10.8545 26.3432 10.9082 25.7955 10.9526 25.1737C11.0007 24.5482 11.0359 23.8338 11.0581 23.0307H16.1602V31.0586ZM22.765 25.3624V31.0586H21.3937V27.733C21.3937 27.6479 21.3974 27.5554 21.4048 27.4555C21.4159 27.3518 21.4289 27.2482 21.4437 27.1446C21.3697 27.3148 21.2882 27.4647 21.1994 27.5943C21.192 27.6017 21.155 27.6535 21.0884 27.7497C21.0217 27.8422 20.9348 27.9625 20.8274 28.1106C20.7238 28.2586 20.6053 28.427 20.4721 28.6158C20.3389 28.8009 20.2038 28.9896 20.0668 29.1821C19.7448 29.6373 19.3802 30.1518 18.9731 30.7255C18.9213 30.8032 18.8528 30.8791 18.7677 30.9531C18.6863 31.0271 18.5919 31.0641 18.4846 31.0641H17.6462V25.368H19.0175V28.6935C19.0175 28.7786 19.012 28.873 19.0009 28.9767C18.9935 29.0766 18.9824 29.1784 18.9676 29.282C19.049 29.1006 19.1304 28.9507 19.2118 28.8323C19.2155 28.8249 19.2507 28.7749 19.3173 28.6824C19.3839 28.5899 19.4691 28.4696 19.5727 28.3215C19.68 28.1735 19.8003 28.0069 19.9336 27.8219C20.0668 27.6331 20.2019 27.4407 20.3389 27.2445C20.6609 26.7892 21.0273 26.2748 21.4381 25.7011C21.4899 25.6197 21.5584 25.5438 21.6435 25.4735C21.7287 25.3994 21.8249 25.3624 21.9322 25.3624H22.765ZM27.9172 30.0815V26.4117H26.5181C26.4811 26.8892 26.4349 27.3204 26.3793 27.7053C26.3238 28.0865 26.259 28.427 26.185 28.7268C26.111 29.0266 26.0296 29.2876 25.9407 29.5096C25.8556 29.7317 25.7631 29.9223 25.6632 30.0815H27.9172ZM30.2934 30.0426V32.5576C30.2934 32.6834 30.2564 32.7834 30.1823 32.8574C30.112 32.9314 30.0195 32.9684 29.9047 32.9684H29.0498V31.0586H24.786V32.5798C24.786 32.676 24.7545 32.7649 24.6916 32.8463C24.6324 32.9277 24.538 32.9684 24.4084 32.9684H23.5424V30.0815H23.7034C23.8329 30.0815 23.9587 30.0648 24.0809 30.0315C24.203 29.9945 24.3196 29.9205 24.4306 29.8094C24.5454 29.6984 24.6527 29.5392 24.7527 29.332C24.8563 29.121 24.9488 28.8416 25.0302 28.4936C25.1117 28.142 25.182 27.7108 25.2412 27.2001C25.3041 26.6893 25.3541 26.0768 25.3911 25.3624H29.2496V30.0426H30.2934ZM34.7293 27.5554C34.7293 27.3777 34.7034 27.2112 34.6516 27.0557C34.6034 26.8966 34.5294 26.7578 34.4295 26.6393C34.3296 26.5209 34.2019 26.4284 34.0464 26.3617C33.8947 26.2914 33.717 26.2563 33.5134 26.2563C33.1174 26.2563 32.8047 26.3691 32.5752 26.5949C32.3494 26.8207 32.2051 27.1409 32.1421 27.5554H34.7293ZM32.1144 28.3826C32.1366 28.675 32.1884 28.9285 32.2698 29.1432C32.3513 29.3542 32.4586 29.53 32.5918 29.6706C32.7251 29.8076 32.8824 29.9112 33.0637 29.9815C33.2488 30.0482 33.4524 30.0815 33.6744 30.0815C33.8965 30.0815 34.0871 30.0556 34.2463 30.0037C34.4091 29.9519 34.5498 29.8946 34.6682 29.8316C34.7904 29.7687 34.8958 29.7114 34.9847 29.6595C35.0772 29.6077 35.166 29.5818 35.2512 29.5818C35.3659 29.5818 35.451 29.6244 35.5065 29.7095L35.9007 30.2092C35.749 30.3868 35.5787 30.5367 35.39 30.6589C35.2012 30.7773 35.0032 30.8735 34.7959 30.9476C34.5923 31.0179 34.3832 31.0678 34.1686 31.0975C33.9576 31.1271 33.7522 31.1419 33.5523 31.1419C33.1563 31.1419 32.788 31.0771 32.4475 30.9476C32.107 30.8143 31.8109 30.62 31.5592 30.3646C31.3075 30.1055 31.1095 29.7872 30.9651 29.4097C30.8208 29.0285 30.7486 28.588 30.7486 28.0884C30.7486 27.6997 30.8115 27.3352 30.9374 26.9947C31.0632 26.6504 31.2427 26.3525 31.4759 26.1008C31.7128 25.8454 31.9996 25.6437 32.3364 25.4957C32.677 25.3476 33.06 25.2736 33.4857 25.2736C33.8447 25.2736 34.176 25.331 34.4795 25.4457C34.783 25.5604 35.0439 25.7288 35.2623 25.9509C35.4806 26.1693 35.6509 26.4395 35.773 26.7615C35.8989 27.0798 35.9618 27.4444 35.9618 27.8552C35.9618 28.0625 35.9396 28.2031 35.8952 28.2771C35.8508 28.3475 35.7656 28.3826 35.6398 28.3826H32.1144ZM38.3622 29.5818C38.5176 29.7706 38.686 29.9038 38.8674 29.9815C39.0525 30.0593 39.2523 30.0981 39.467 30.0981C39.6743 30.0981 39.8612 30.0593 40.0277 29.9815C40.1943 29.9038 40.3349 29.7854 40.4497 29.6262C40.5681 29.4671 40.6588 29.2672 40.7217 29.0266C40.7846 28.7823 40.8161 28.4955 40.8161 28.1661C40.8161 27.833 40.7883 27.5517 40.7328 27.3222C40.681 27.089 40.6051 26.9003 40.5052 26.7559C40.4052 26.6116 40.2831 26.5061 40.1388 26.4395C39.9981 26.3729 39.8371 26.3395 39.6558 26.3395C39.3708 26.3395 39.1283 26.4006 38.9285 26.5228C38.7286 26.6412 38.5398 26.8096 38.3622 27.028V29.5818ZM38.29 26.1397C38.5232 25.8769 38.7878 25.6641 39.0839 25.5012C39.38 25.3384 39.7279 25.2569 40.1277 25.2569C40.4386 25.2569 40.7217 25.3217 40.9771 25.4512C41.2362 25.5808 41.4582 25.7696 41.6433 26.0175C41.8321 26.2618 41.9764 26.5653 42.0763 26.928C42.18 27.2871 42.2318 27.6997 42.2318 28.1661C42.2318 28.5917 42.1744 28.9859 42.0597 29.3486C41.945 29.7114 41.7803 30.026 41.5656 30.2924C41.3546 30.5589 41.0974 30.768 40.7939 30.9198C40.4941 31.0678 40.1573 31.1419 39.7834 31.1419C39.4651 31.1419 39.1931 31.0938 38.9673 30.9975C38.7416 30.8976 38.5398 30.7606 38.3622 30.5867V32.9185H36.9909V25.3624H37.8292C38.0069 25.3624 38.1234 25.4457 38.179 25.6123L38.29 26.1397ZM10.8416 40.5818C10.997 40.7706 11.1654 40.9038 11.3468 40.9815C11.5319 41.0593 11.7317 41.0981 11.9464 41.0981C12.1537 41.0981 12.3406 41.0593 12.5071 40.9815C12.6737 40.9038 12.8143 40.7854 12.9291 40.6262C13.0475 40.4671 13.1382 40.2672 13.2011 40.0266C13.264 39.7823 13.2955 39.4955 13.2955 39.1661C13.2955 38.833 13.2677 38.5517 13.2122 38.3222C13.1604 38.089 13.0845 37.9003 12.9846 37.7559C12.8847 37.6116 12.7625 37.5061 12.6182 37.4395C12.4775 37.3729 12.3165 37.3395 12.1352 37.3395C11.8502 37.3395 11.6077 37.4006 11.4079 37.5228C11.208 37.6412 11.0193 37.8096 10.8416 38.028V40.5818ZM10.7694 37.1397C11.0026 36.8769 11.2672 36.6641 11.5633 36.5012C11.8594 36.3384 12.2073 36.2569 12.6071 36.2569C12.918 36.2569 13.2011 36.3217 13.4565 36.4512C13.7156 36.5808 13.9377 36.7696 14.1227 37.0175C14.3115 37.2618 14.4558 37.5653 14.5558 37.928C14.6594 38.2871 14.7112 38.6997 14.7112 39.1661C14.7112 39.5917 14.6538 39.9859 14.5391 40.3486C14.4244 40.7114 14.2597 41.026 14.045 41.2924C13.834 41.5589 13.5768 41.768 13.2733 41.9198C12.9735 42.0678 12.6367 42.1419 12.2629 42.1419C11.9446 42.1419 11.6725 42.0938 11.4467 41.9975C11.221 41.8976 11.0193 41.7606 10.8416 41.5867V43.9185H9.47029V36.3624H10.3086C10.4863 36.3624 10.6029 36.4457 10.6584 36.6123L10.7694 37.1397ZM18.0965 41.0759C18.4074 41.0759 18.6388 40.9982 18.7905 40.8427C18.946 40.6873 19.0237 40.4874 19.0237 40.2431C19.0237 40.1395 19.0052 40.0396 18.9682 39.9433C18.9349 39.8471 18.8812 39.762 18.8072 39.688C18.7331 39.6139 18.6369 39.5566 18.5185 39.5159C18.4 39.4714 18.2575 39.4492 18.091 39.4492H17.075V41.0759H18.0965ZM18.0854 38.4721C18.4815 38.4721 18.8164 38.5202 19.0903 38.6165C19.3642 38.7127 19.5863 38.8422 19.7565 39.0051C19.9268 39.1679 20.0489 39.3567 20.1229 39.5714C20.2007 39.7823 20.2395 40.0044 20.2395 40.2376C20.2395 40.5041 20.1914 40.7502 20.0952 40.976C20.0027 41.1981 19.8639 41.3905 19.6788 41.5534C19.4974 41.7125 19.2735 41.8365 19.007 41.9253C18.7442 42.0142 18.4426 42.0586 18.1021 42.0586H15.7703V36.3624H17.075V38.4721H18.0854ZM22.649 36.3624V42.0586H21.2777V36.3624H22.649ZM28.9638 36.3624V42.0586H27.5925V39.5381H25.3718V42.0586H24.0005V36.3624H25.3718V38.5221H27.5925V36.3624H28.9638ZM33.7254 36.7233C33.7921 36.616 33.8827 36.529 33.9975 36.4624C34.1122 36.3957 34.2344 36.3624 34.3639 36.3624H35.441L34.1141 38.4777C34.0215 38.6257 33.9272 38.746 33.8309 38.8385C33.7347 38.9274 33.6181 38.9977 33.4812 39.0495C33.6662 39.105 33.818 39.1883 33.9364 39.2993C34.0549 39.4067 34.1622 39.5436 34.2584 39.7102L35.5909 42.0586H34.6415C34.4009 42.0586 34.214 42.0179 34.0808 41.9365C33.9475 41.855 33.8346 41.7384 33.7421 41.5867L32.9038 40.01C32.8298 39.873 32.7335 39.7712 32.6151 39.7046C32.5003 39.638 32.3652 39.6047 32.2098 39.6047H31.6935V42.0586H30.3222V36.3624H31.6935V38.7108H32.1376C32.2931 38.7108 32.4171 38.6831 32.5096 38.6276C32.6058 38.5683 32.6873 38.4795 32.7539 38.3611L33.7254 36.7233ZM39.3602 39.6269C38.9642 39.6454 38.6311 39.6806 38.3609 39.7324C38.0907 39.7805 37.8742 39.8434 37.7113 39.9211C37.5485 39.9989 37.4319 40.0895 37.3615 40.1932C37.2912 40.2968 37.2561 40.4097 37.2561 40.5318C37.2561 40.7724 37.3264 40.9445 37.467 41.0482C37.6114 41.1518 37.7983 41.2036 38.0278 41.2036C38.3091 41.2036 38.5515 41.1536 38.7551 41.0537C38.9623 40.9501 39.164 40.7946 39.3602 40.5874V39.6269ZM36.2179 37.1563C36.873 36.5567 37.6613 36.2569 38.5829 36.2569C38.9161 36.2569 39.214 36.3125 39.4768 36.4235C39.7396 36.5308 39.9617 36.6826 40.143 36.8787C40.3244 37.0712 40.4613 37.3025 40.5538 37.5727C40.6501 37.8429 40.6982 38.139 40.6982 38.461V42.0586H40.0764C39.9468 42.0586 39.8469 42.0401 39.7766 42.0031C39.7063 41.9624 39.6507 41.8828 39.61 41.7643L39.4879 41.3535C39.3435 41.4831 39.2029 41.5978 39.066 41.6977C38.929 41.794 38.7865 41.8754 38.6385 41.942C38.4904 42.0086 38.3313 42.0586 38.161 42.0919C37.9945 42.1289 37.8094 42.1474 37.6058 42.1474C37.3652 42.1474 37.1432 42.116 36.9396 42.053C36.736 41.9864 36.5602 41.8883 36.4122 41.7588C36.2641 41.6293 36.1494 41.4682 36.068 41.2758C35.9865 41.0833 35.9458 40.8594 35.9458 40.604C35.9458 40.4597 35.9699 40.3172 36.018 40.1765C36.0661 40.0322 36.1438 39.8952 36.2512 39.7657C36.3622 39.6361 36.5047 39.514 36.6787 39.3993C36.8526 39.2845 37.0654 39.1846 37.3171 39.0995C37.5725 39.0143 37.8686 38.9459 38.2054 38.8941C38.5422 38.8385 38.9272 38.8052 39.3602 38.7941V38.461C39.3602 38.0798 39.2788 37.7985 39.1159 37.6171C38.9531 37.4321 38.718 37.3395 38.4108 37.3395C38.1888 37.3395 38.0037 37.3654 37.8557 37.4173C37.7113 37.4691 37.5836 37.5283 37.4726 37.5949C37.3615 37.6578 37.2598 37.7152 37.1672 37.767C37.0784 37.8188 36.9785 37.8448 36.8674 37.8448C36.7712 37.8448 36.6898 37.8207 36.6232 37.7726C36.5565 37.7208 36.5029 37.6615 36.4621 37.5949L36.2179 37.1563Z" fill="white"/>
<path fill-rule="evenodd" clip-rule="evenodd" d="M11.6468 55.123C12.1455 55.123 12.5497 55.5386 12.5497 56.0514C12.5498 56.1015 12.546 56.1516 12.5381 56.2011C12.5303 56.2506 12.5186 56.2994 12.503 56.347C12.4875 56.3945 12.4682 56.4408 12.4454 56.4852C12.4224 56.5295 12.3961 56.5719 12.3665 56.612L11.6468 57.5156L10.9873 56.6977L10.9272 56.6122C10.8977 56.5721 10.8713 56.5297 10.8484 56.4853C10.8256 56.4409 10.8063 56.3947 10.7907 56.3471C10.7752 56.2996 10.7633 56.2507 10.7556 56.2013C10.7477 56.1517 10.7438 56.1017 10.7438 56.0515C10.7438 55.5386 11.1482 55.1231 11.647 55.1231L11.6468 55.123ZM11.6468 56.4751C11.6469 56.4751 11.6469 56.4751 11.6469 56.4751H11.647H11.6468ZM11.2329 56.0495C11.2329 55.8143 11.4182 55.6237 11.647 55.6237C11.8754 55.6237 12.0609 55.8143 12.0609 56.0495C12.0609 56.2845 11.8755 56.475 11.6469 56.4751C11.4181 56.475 11.2329 56.2845 11.2329 56.0495ZM11.9915 57.8786H11.3227V58.6103L10.6543 57.7845L8.79297 60.0838L9.41211 60.6137L10.6543 59.0795L11.8964 60.6137L12.5155 60.0838L11.9915 59.4365V57.8786Z" fill="white"/>
<path fill-rule="evenodd" clip-rule="evenodd" d="M16.0062 60.1228H16.3692V61.1925H15.8316V60.6697H13.6465V58.0635H14.2398V60.1225H15.4128V58.0633H16.0062V60.1228ZM17.3778 59.8179L18.6205 58.0633H19.2138V60.6695H18.6204V58.9149L17.3776 60.6695H16.7844V58.0633H17.3776V59.8179H17.3778ZM24.9167 58.0633V60.6695H24.3269V59.638H23.1156V60.6695H22.5222V58.0633H23.1156V59.0874H24.3269V58.0633H24.9167ZM20.862 58.0137C21.5271 58.0137 21.9405 58.3964 21.9405 59.0125V60.6692H21.4395L21.4339 60.6382L21.3932 60.415C21.3112 60.5064 21.0723 60.7197 20.6335 60.7197C20.3533 60.7197 20.1143 60.64 19.9424 60.489C19.7743 60.3418 19.682 60.1319 19.682 59.8978C19.682 59.6264 19.7717 59.4127 19.949 59.2621C20.1341 59.105 20.407 59.0254 20.7603 59.0254H21.3572V59.0125C21.3572 58.7034 21.1721 58.519 20.862 58.519C20.5254 58.519 20.3957 58.7075 20.369 58.8286H19.7841C19.7987 58.6033 19.9069 58.3989 20.0895 58.2528C20.2848 58.0964 20.5519 58.0137 20.862 58.0137ZM21.3572 59.5691V59.5054H20.7858C20.4599 59.5054 20.2652 59.6427 20.2652 59.8726C20.2652 60.0931 20.414 60.2144 20.6843 60.2144C20.9003 60.2144 21.0687 60.1574 21.1846 60.0448C21.2991 59.9336 21.3573 59.7736 21.3573 59.5691H21.3572Z" fill="white"/>
<path d="M33.4614 60.3819C33.524 60.3819 33.5733 60.3999 33.6093 60.4359C33.6469 60.4703 33.6656 60.5165 33.6656 60.5744V60.9219H31.3366V60.7294C31.3366 60.6902 31.3445 60.6495 31.3601 60.6073C31.3773 60.5634 31.4039 60.5243 31.4399 60.4899L32.4706 59.4569C32.5567 59.3692 32.6334 59.2855 32.7007 59.2056C32.7696 59.1258 32.8267 59.0468 32.8721 58.9685C32.9175 58.8903 32.9519 58.8112 32.9754 58.7314C33.0004 58.65 33.0129 58.5647 33.0129 58.4755C33.0129 58.3941 33.0012 58.3229 32.9777 58.2618C32.9543 58.1992 32.9206 58.1468 32.8768 58.1045C32.8345 58.0623 32.7829 58.031 32.7218 58.0106C32.6623 57.9887 32.595 57.9778 32.5199 57.9778C32.451 57.9778 32.3869 57.9879 32.3274 58.0083C32.2695 58.0271 32.2178 58.0545 32.1724 58.0905C32.1271 58.1249 32.0887 58.1656 32.0574 58.2125C32.0261 58.2595 32.0026 58.3111 31.987 58.3675C31.9604 58.4395 31.9259 58.4872 31.8837 58.5107C31.8414 58.5342 31.7804 58.5397 31.7005 58.5271L31.3953 58.4731C31.4188 58.3104 31.4642 58.1679 31.5315 58.0458C31.5988 57.9222 31.6825 57.8197 31.7827 57.7383C31.8845 57.6553 32.0003 57.5935 32.1302 57.5528C32.2617 57.5105 32.4025 57.4894 32.5528 57.4894C32.7093 57.4894 32.8525 57.5129 32.9824 57.5599C33.1123 57.6052 33.2235 57.6702 33.3158 57.7547C33.4082 57.8392 33.4802 57.941 33.5318 58.0599C33.5835 58.1789 33.6093 58.3111 33.6093 58.4567C33.6093 58.5819 33.5905 58.6977 33.5529 58.8042C33.5169 58.9106 33.4676 59.0123 33.405 59.1094C33.344 59.2064 33.272 59.3003 33.189 59.3911C33.1061 59.4819 33.0192 59.5742 32.9284 59.6682L32.1631 60.45C32.2366 60.4281 32.3094 60.4116 32.3814 60.4007C32.455 60.3881 32.5246 60.3819 32.5903 60.3819H33.4614ZM36.488 59.2244C36.488 59.5202 36.4559 59.7777 36.3918 59.9968C36.3292 60.2144 36.2415 60.3944 36.1288 60.5368C36.0177 60.6793 35.8854 60.7857 35.732 60.8561C35.5802 60.925 35.4159 60.9594 35.239 60.9594C35.0621 60.9594 34.8978 60.925 34.746 60.8561C34.5957 60.7857 34.465 60.6793 34.3539 60.5368C34.2428 60.3944 34.1559 60.2144 34.0933 59.9968C34.0307 59.7777 33.9994 59.5202 33.9994 59.2244C33.9994 58.927 34.0307 58.6696 34.0933 58.452C34.1559 58.2344 34.2428 58.0545 34.3539 57.912C34.465 57.7696 34.5957 57.6639 34.746 57.5951C34.8978 57.5246 35.0621 57.4894 35.239 57.4894C35.4159 57.4894 35.5802 57.5246 35.732 57.5951C35.8854 57.6639 36.0177 57.7696 36.1288 57.912C36.2415 58.0545 36.3292 58.2344 36.3918 58.452C36.4559 58.6696 36.488 58.927 36.488 59.2244ZM35.8893 59.2244C35.8893 58.9787 35.8713 58.7752 35.8353 58.614C35.7993 58.4528 35.7508 58.3244 35.6898 58.229C35.6303 58.1335 35.5614 58.067 35.4832 58.0294C35.4049 57.9903 35.3235 57.9707 35.239 57.9707C35.1561 57.9707 35.0755 57.9903 34.9972 58.0294C34.9205 58.067 34.8524 58.1335 34.7929 58.229C34.7335 58.3244 34.6857 58.4528 34.6497 58.614C34.6153 58.7752 34.5981 58.9787 34.5981 59.2244C34.5981 59.4702 34.6153 59.6736 34.6497 59.8349C34.6857 59.9961 34.7335 60.1244 34.7929 60.2199C34.8524 60.3154 34.9205 60.3827 34.9972 60.4218C35.0755 60.4594 35.1561 60.4781 35.239 60.4781C35.3235 60.4781 35.4049 60.4594 35.4832 60.4218C35.5614 60.3827 35.6303 60.3154 35.6898 60.2199C35.7508 60.1244 35.7993 59.9961 35.8353 59.8349C35.8713 59.6736 35.8893 59.4702 35.8893 59.2244ZM38.909 60.3819C38.9716 60.3819 39.0209 60.3999 39.0569 60.4359C39.0944 60.4703 39.1132 60.5165 39.1132 60.5744V60.9219H36.7842V60.7294C36.7842 60.6902 36.792 60.6495 36.8077 60.6073C36.8249 60.5634 36.8515 60.5243 36.8875 60.4899L37.9182 59.4569C38.0043 59.3692 38.081 59.2855 38.1483 59.2056C38.2171 59.1258 38.2743 59.0468 38.3197 58.9685C38.3651 58.8903 38.3995 58.8112 38.423 58.7314C38.448 58.65 38.4605 58.5647 38.4605 58.4755C38.4605 58.3941 38.4488 58.3229 38.4253 58.2618C38.4018 58.1992 38.3682 58.1468 38.3244 58.1045C38.2821 58.0623 38.2305 58.031 38.1694 58.0106C38.1099 57.9887 38.0426 57.9778 37.9675 57.9778C37.8986 57.9778 37.8345 57.9879 37.775 58.0083C37.7171 58.0271 37.6654 58.0545 37.62 58.0905C37.5746 58.1249 37.5363 58.1656 37.505 58.2125C37.4737 58.2595 37.4502 58.3111 37.4346 58.3675C37.4079 58.4395 37.3735 58.4872 37.3313 58.5107C37.289 58.5342 37.228 58.5397 37.1481 58.5271L36.8429 58.4731C36.8664 58.3104 36.9118 58.1679 36.9791 58.0458C37.0464 57.9222 37.1301 57.8197 37.2303 57.7383C37.332 57.6553 37.4479 57.5935 37.5778 57.5528C37.7092 57.5105 37.8501 57.4894 38.0004 57.4894C38.1569 57.4894 38.3001 57.5129 38.43 57.5599C38.5599 57.6052 38.6711 57.6702 38.7634 57.7547C38.8557 57.8392 38.9277 57.941 38.9794 58.0599C39.031 58.1789 39.0569 58.3111 39.0569 58.4567C39.0569 58.5819 39.0381 58.6977 39.0005 58.8042C38.9645 58.9106 38.9152 59.0123 38.8526 59.1094C38.7916 59.2064 38.7196 59.3003 38.6366 59.3911C38.5537 59.4819 38.4668 59.5742 38.376 59.6682L37.6106 60.45C37.6842 60.4281 37.757 60.4116 37.829 60.4007C37.9025 60.3881 37.9722 60.3819 38.0379 60.3819H38.909ZM39.5831 58.4731C39.6066 58.3104 39.652 58.1679 39.7193 58.0458C39.7866 57.9222 39.8704 57.8197 39.9705 57.7383C40.0723 57.6553 40.1881 57.5935 40.318 57.5528C40.4495 57.5105 40.5903 57.4894 40.7406 57.4894C40.8971 57.4894 41.038 57.5121 41.1632 57.5575C41.29 57.6013 41.398 57.6632 41.4872 57.743C41.5764 57.8212 41.6445 57.9136 41.6914 58.02C41.74 58.1265 41.7642 58.2415 41.7642 58.3651C41.7642 58.4731 41.7517 58.5686 41.7267 58.6516C41.7032 58.733 41.6688 58.8042 41.6234 58.8652C41.578 58.9263 41.5216 58.9779 41.4543 59.0202C41.387 59.0624 41.3111 59.0976 41.2266 59.1258C41.4301 59.19 41.5819 59.2878 41.6821 59.4193C41.7822 59.5508 41.8323 59.7159 41.8323 59.9147C41.8323 60.0837 41.801 60.2332 41.7384 60.3631C41.6758 60.493 41.5913 60.6026 41.4848 60.6918C41.3784 60.7794 41.2548 60.846 41.1139 60.8914C40.9746 60.9367 40.8267 60.9594 40.6702 60.9594C40.4996 60.9594 40.3509 60.9399 40.2241 60.9007C40.0973 60.8616 39.987 60.8037 39.893 60.727C39.7991 60.6503 39.7193 60.5564 39.6536 60.4453C39.5878 60.3341 39.5315 60.2058 39.4845 60.0602L39.7404 59.9546C39.8077 59.9264 39.8704 59.9194 39.9283 59.9335C39.9877 59.946 40.0308 59.9773 40.0574 60.0274C40.0856 60.0822 40.1161 60.1362 40.149 60.1894C40.1834 60.2426 40.2241 60.2903 40.271 60.3326C40.318 60.3733 40.3728 60.4069 40.4354 60.4335C40.4996 60.4586 40.5755 60.4711 40.6631 60.4711C40.7617 60.4711 40.8478 60.4554 40.9214 60.4241C40.9949 60.3913 41.056 60.349 41.1045 60.2974C41.1546 60.2457 41.1914 60.1886 41.2148 60.126C41.2399 60.0618 41.2524 59.9976 41.2524 59.9335C41.2524 59.8521 41.2438 59.7785 41.2266 59.7128C41.2094 59.6455 41.1734 59.5883 41.1186 59.5414C41.0638 59.4944 40.9848 59.4576 40.8815 59.431C40.7797 59.4044 40.6428 59.3911 40.4706 59.3911V58.9779C40.613 58.9763 40.7312 58.963 40.8251 58.938C40.919 58.913 40.9934 58.8785 41.0482 58.8347C41.1045 58.7893 41.1436 58.7353 41.1655 58.6727C41.1875 58.6101 41.1984 58.5412 41.1984 58.4661C41.1984 58.3064 41.1538 58.1851 41.0646 58.1022C40.9754 58.0192 40.8564 57.9778 40.7077 57.9778C40.6389 57.9778 40.5755 57.9879 40.5176 58.0083C40.4596 58.0271 40.4072 58.0545 40.3603 58.0905C40.3149 58.1249 40.2765 58.1656 40.2452 58.2125C40.2139 58.2595 40.1904 58.3111 40.1748 58.3675C40.1482 58.4395 40.113 58.4872 40.0691 58.5107C40.0269 58.5342 39.9666 58.5397 39.8884 58.5271L39.5831 58.4731Z" fill="white"/>
<defs>
<filter id="filter0_d_3736_925" x="0.00691625" y="0.00784463" width="50.3241" height="70.6913" filterUnits="userSpaceOnUse" color-interpolation-filters="sRGB">
<feFlood flood-opacity="0" result="BackgroundImageFix"/>
<feColorMatrix in="SourceAlpha" type="matrix" values="0 0 0 0 0 0 0 0 0 0 0 0 0 0 0 0 0 0 127 0" result="hardAlpha"/>
<feOffset dx="-0.399398" dy="0.798796"/>
<feGaussianBlur stdDeviation="0.798796"/>
<feComposite in2="hardAlpha" operator="out"/>
<feColorMatrix type="matrix" values="0 0 0 0 0 0 0 0 0 0 0 0 0 0 0 0 0 0 0.1 0"/>
<feBlend mode="normal" in2="BackgroundImageFix" result="effect1_dropShadow_3736_925"/>
<feBlend mode="normal" in="SourceGraphic" in2="effect1_dropShadow_3736_925" result="shape"/>
</filter>
<linearGradient id="paint0_linear_3736_925" x1="-0.393378" y1="26.3664" x2="66.82" y2="52.1657" gradientUnits="userSpaceOnUse">
<stop stop-color="#227BFD"/>
<stop offset="1" stop-color="#04357A"/>
</linearGradient>
</defs>
</svg>
