<svg width="1920" height="926" viewBox="0 0 1920 926" fill="none" xmlns="http://www.w3.org/2000/svg">
<path fill-rule="evenodd" clip-rule="evenodd" d="M1920 0H0V926H1920V0ZM1706.74 524.471C1627.22 494.582 1549.5 498.02 1478.62 518.511C1489.75 506.352 1500.85 494.524 1511.83 483.086C1555.48 437.589 1595.8 399.571 1625.17 372.97C1639.83 359.687 1651.71 349.295 1659.85 342.289C1663.92 338.787 1667.05 336.134 1669.12 334.392C1669.76 333.853 1670.3 333.401 1670.73 333.039C1671 332.815 1671.22 332.626 1671.41 332.471C1671.65 332.267 1671.83 332.123 1671.93 332.038L1672.02 331.965L1672.03 331.956L1672.03 331.954C1672.03 331.955 1672.03 331.955 1671.98 331.894L1603.07 209.038L1626.44 276.731C1603.07 209.038 1603.07 209.041 1603.05 209.045L1603.03 209.054L1602.95 209.082L1602.7 209.168C1602.49 209.239 1602.21 209.339 1601.84 209.467C1601.11 209.722 1600.06 210.09 1598.72 210.567C1596.02 211.523 1592.11 212.92 1587.09 214.748C1577.04 218.404 1562.55 223.784 1544.39 230.797C1509.7 244.196 1461.56 263.596 1405.58 288.356L1494.98 195.004L1428.14 75.4739C1337.87 94.9623 1269.4 110.474 1201.75 135.844C1133.24 161.542 1067.99 196.373 980.886 252.304L1058.27 372.822C1118.64 334.06 1164.73 308.069 1206.89 288.751L980.111 525.556L1072.99 633.688C1149.33 580.069 1232.74 532.19 1312.08 491.47C1247.81 568.733 1185.27 657.264 1144.78 747.391L1259.52 828.572C1317.68 773.134 1385.22 716.257 1456.36 680.742C1526.76 645.596 1593.27 634.831 1656.35 658.538L1706.74 524.471Z" fill="#FF7060"/>
</svg>
