<svg width="740" height="764" viewBox="0 0 740 764" fill="none" xmlns="http://www.w3.org/2000/svg">
<path fill-rule="evenodd" clip-rule="evenodd" d="M740 0H0V764H740V0ZM733.312 453.471C653.791 423.582 576.078 427.02 505.193 447.511C516.322 435.352 527.426 423.524 538.4 412.086C582.056 366.589 622.379 328.571 651.744 301.97C666.408 288.687 678.29 278.295 686.428 271.289C690.495 267.787 693.624 265.134 695.692 263.392C696.726 262.521 697.495 261.878 697.984 261.471C698.228 261.267 698.402 261.123 698.504 261.038L698.592 260.965L698.603 260.956L698.605 260.954C698.604 260.955 698.604 260.955 698.552 260.894L629.65 138.038L653.013 205.731C629.65 138.038 629.64 138.041 629.629 138.045L629.601 138.054L629.523 138.082L629.274 138.168C629.068 138.239 628.781 138.339 628.416 138.467C627.685 138.722 626.639 139.09 625.29 139.567C622.593 140.523 618.683 141.92 613.662 143.748C603.62 147.404 589.12 152.784 570.964 159.797C536.275 173.196 488.134 192.596 432.151 217.356L521.55 124.004L454.72 4.47395C364.441 23.9623 295.97 39.4741 228.33 64.8435C159.811 90.5425 94.5664 125.373 7.46134 181.304L84.8467 301.822C145.213 263.06 191.302 237.069 233.465 217.751L6.68578 454.556L99.5667 562.688C175.903 509.069 259.312 461.19 338.651 420.47C274.386 497.733 211.846 586.264 171.359 676.391L286.091 757.572C344.253 702.134 411.791 645.257 482.932 609.742C553.331 574.596 619.849 563.831 682.922 587.538L733.312 453.471Z" fill="#FF7060"/>
</svg>
