<svg width="1920" role="img" preserveAspectRatio="xMidYMin slice" height="1215" viewBox="0 0 1920 1215" fill="none" xmlns="http://www.w3.org/2000/svg">
    <defs>
        <mask id="mask-2" x="0" y="0">
            <g>
                <path fill-rule="evenodd" clip-rule="evenodd"
                      d="M1020 0H0V1215H1920V0ZM1706.74 679.471C1627.22 649.582 1549.5 653.02 1478.62 673.511C1489.75 661.352 1500.85 649.524 1511.83 638.086C1555.48 592.589 1595.8 554.571 1625.17 527.97C1639.83 514.687 1651.71 504.295 1659.85 497.289C1663.92 493.787 1667.05 491.134 1669.12 489.392C1670.15 488.521 1670.92 487.878 1671.41 487.471C1671.65 487.267 1671.83 487.123 1671.93 487.038L1672.02 486.965L1672.03 486.956L1672.03 486.954C1672.03 486.955 1672.03 486.955 1671.98 486.894L1603.07 364.038L1626.44 431.731C1603.07 364.038 1603.07 364.041 1603.05 364.045L1603.03 364.054L1602.95 364.082L1602.7 364.168C1602.49 364.24 1602.21 364.339 1601.84 364.467C1601.44 364.607 1600.94 364.781 1600.35 364.989C1599.87 365.159 1599.32 365.352 1598.72 365.567C1596.02 366.523 1592.11 367.92 1587.09 369.748C1577.04 373.404 1562.55 378.784 1544.39 385.797C1509.7 399.196 1461.56 418.596 1405.58 443.356L1494.98 350.004L1428.14 230.474C1337.87 249.962 1269.4 265.474 1201.75 290.844C1133.24 316.542 1067.99 351.373 980.886 407.304L1058.27 527.822C1118.64 489.06 1164.73 463.069 1206.89 443.751L980.111 680.556L1072.99 788.688C1149.33 735.069 1232.74 687.19 1312.08 646.47C1247.81 723.733 1185.27 812.264 1144.78 902.391L1259.52 983.572C1317.68 928.134 1385.22 871.257 1456.36 835.742C1526.76 800.596 1593.27 789.831 1656.35 813.538L1706.74 679.471Z"
                      fill="#FF7060"/>
            </g>
        </mask>
    </defs>
    <image x="0" y="0" width="100%" height="100%" href="/img/Exclude2.svg" mask="url(#mask-2)" />
</svg>
